<svg id="svg8" width="490" height="580" version="1.1" viewBox="0 0 129.64 153.45" xmlns="http://www.w3.org/2000/svg">
 <rect id="rect37" y="-2.8422e-14" width="129.64" height="153.45" style="opacity:0;paint-order:fill markers stroke;stroke-width:.26528"/>
 <path id="path20-3" d="m23.572 40.154c-7.7562 8.4257-14.78 17.584-21.147 27.401l12.658 18.167 12.658-11.02 6.9988 38.598h60.163l6.9988-38.598 12.658 11.02 12.658-18.167c-6.3664-9.8157-13.39-18.974-21.147-27.401h-23.231c-1.6709 14.089-6.8332 20.976-18.019 32.687-11.186-11.711-16.348-18.598-18.019-32.687z" style="fill:#cf0;stroke-width:.78796"/>
 <circle id="path691-6" cx="64.822" cy="79.734" r="2.3166" style="fill:#450;paint-order:fill markers stroke;stroke-width:.78796"/>
 <circle id="circle718" cx="64.822" cy="92.239" r="2.3166" style="fill:#450;paint-order:fill markers stroke;stroke-width:.78796"/>
 <circle id="circle720" cx="64.822" cy="104.75" r="2.3166" style="fill:#450;paint-order:fill markers stroke;stroke-width:.78796"/>
 <path id="path178" d="m45.092 40.154c1.8532 14.86 8.6904 24.046 19.732 35.606 11.039-11.557 18.093-21.03 19.596-35.606h-1.689c-1.6709 14.089-6.7213 20.913-17.907 32.624-11.186-11.711-16.289-18.535-17.96-32.624z" style="fill:#450;stroke-width:.78796"/>
 <path id="rect180" transform="scale(.26458)" d="m12.332 250.51c-1.0572 1.6061-2.1163 3.2106-3.1641 4.8262l47.842 68.666 4.4609-3.8848-49.139-69.607z" style="fill:#450;paint-order:fill markers stroke"/>
 <path id="rect182" transform="scale(.26458)" d="m477.39 250.08-49.219 69.721 4.8164 4.1934 47.842-68.666c-1.1394-1.7568-2.2888-3.5024-3.4394-5.248z" style="fill:#450;paint-order:fill markers stroke"/>
 <path id="rect225" transform="scale(.26458)" d="m130.15 421.85 1.1582 6.3848h227.39l1.1582-6.3848h-229.71z" style="fill:#450;paint-order:fill markers stroke"/>
</svg>
