<svg id="svg8" width="490" height="580" version="1.1" viewBox="0 0 129.64 153.45" xmlns="http://www.w3.org/2000/svg">
 <rect id="rect37" y="-2.8422e-14" width="129.64" height="153.45" style="opacity:0;paint-order:fill markers stroke;stroke-width:.26528"/>
 <g id="g600" transform="translate(0 3.704)">
  <path id="path2941" transform="matrix(.069943 -.027033 .027033 .069943 67.338 59.949)" d="m-558.5 406.53c-6.0796 3.5101-20.82-17.83-27.801-18.564-6.9817-0.7338-25.836 17.075-31.053 12.378-5.217-4.6974 10.524-25.31 9.0641-32.177-1.4596-6.8668-24.223-19.295-21.368-25.708 2.8554-6.4132 27.324 2.1873 33.403-1.3228s10.865-29 17.847-28.267c6.9817 0.7338 6.3632 26.662 11.58 31.36 5.217 4.6974 30.939 1.372 32.398 8.2388 1.4596 6.8668-23.391 14.291-26.246 20.704-2.8554 6.4132 8.2557 29.848 2.1761 33.358z" style="fill:#2a7fff;paint-order:fill markers stroke"/>
  <path id="use2939" transform="matrix(.079726 -.021009 .021009 .079726 89.803 43.159)" d="m-558.5 406.53c-6.0796 3.5101-20.82-17.83-27.801-18.564-6.9817-0.7338-25.836 17.075-31.053 12.378-5.217-4.6974 10.524-25.31 9.0641-32.177-1.4596-6.8668-24.223-19.295-21.368-25.708 2.8554-6.4132 27.324 2.1873 33.403-1.3228s10.865-29 17.847-28.267c6.9817 0.7338 6.3632 26.662 11.58 31.36 5.217 4.6974 30.939 1.372 32.398 8.2388 1.4596 6.8668-23.391 14.291-26.246 20.704-2.8554 6.4132 8.2557 29.848 2.1761 33.358z" style="fill:#fc0;paint-order:fill markers stroke"/>
  <path id="use2937" transform="matrix(.095812 .039031 -.039031 .095812 181.44 34.894)" d="m-558.5 406.53c-6.0796 3.5101-20.82-17.83-27.801-18.564-6.9817-0.7338-25.836 17.075-31.053 12.378-5.217-4.6974 10.524-25.31 9.0641-32.177-1.4596-6.8668-24.223-19.295-21.368-25.708 2.8554-6.4132 27.324 2.1873 33.403-1.3228s10.865-29 17.847-28.267c6.9817 0.7338 6.3632 26.662 11.58 31.36 5.217 4.6974 30.939 1.372 32.398 8.2388 1.4596 6.8668-23.391 14.291-26.246 20.704-2.8554 6.4132 8.2557 29.848 2.1761 33.358z" style="fill:#f60;paint-order:fill markers stroke"/>
  <path id="use2611" transform="matrix(.09613 .038239 -.038239 .09613 137.24 21.598)" d="m-558.5 406.53c-6.0796 3.5101-20.82-17.83-27.801-18.564-6.9817-0.7338-25.836 17.075-31.053 12.378-5.217-4.6974 10.524-25.31 9.0641-32.177-1.4596-6.8668-24.223-19.295-21.368-25.708 2.8554-6.4132 27.324 2.1873 33.403-1.3228s10.865-29 17.847-28.267c6.9817 0.7338 6.3632 26.662 11.58 31.36 5.217 4.6974 30.939 1.372 32.398 8.2388 1.4596 6.8668-23.391 14.291-26.246 20.704-2.8554 6.4132 8.2557 29.848 2.1761 33.358z" style="fill:#fc0;paint-order:fill markers stroke"/>
  <path id="use2613" transform="matrix(.084156 -.060176 .060176 .084156 103.09 -7.4534)" d="m-558.5 406.53c-6.0796 3.5101-20.82-17.83-27.801-18.564-6.9817-0.7338-25.836 17.075-31.053 12.378-5.217-4.6974 10.524-25.31 9.0641-32.177-1.4596-6.8668-24.223-19.295-21.368-25.708 2.8554-6.4132 27.324 2.1873 33.403-1.3228s10.865-29 17.847-28.267c6.9817 0.7338 6.3632 26.662 11.58 31.36 5.217 4.6974 30.939 1.372 32.398 8.2388 1.4596 6.8668-23.391 14.291-26.246 20.704-2.8554 6.4132 8.2557 29.848 2.1761 33.358z" style="fill:#fc0;paint-order:fill markers stroke"/>
  <path id="use2617" transform="matrix(.10219 .016123 -.016123 .10219 101.96 23.764)" d="m-558.5 406.53c-6.0796 3.5101-20.82-17.83-27.801-18.564-6.9817-0.7338-25.836 17.075-31.053 12.378-5.217-4.6974 10.524-25.31 9.0641-32.177-1.4596-6.8668-24.223-19.295-21.368-25.708 2.8554-6.4132 27.324 2.1873 33.403-1.3228s10.865-29 17.847-28.267c6.9817 0.7338 6.3632 26.662 11.58 31.36 5.217 4.6974 30.939 1.372 32.398 8.2388 1.4596 6.8668-23.391 14.291-26.246 20.704-2.8554 6.4132 8.2557 29.848 2.1761 33.358z" style="fill:#fc0;paint-order:fill markers stroke"/>
  <path id="use2681" transform="matrix(.051067 -.089975 .089975 .051067 47.17 -58.318)" d="m-558.5 406.53c-6.0796 3.5101-20.82-17.83-27.801-18.564-6.9817-0.7338-25.836 17.075-31.053 12.378-5.217-4.6974 10.524-25.31 9.0641-32.177-1.4596-6.8668-24.223-19.295-21.368-25.708 2.8554-6.4132 27.324 2.1873 33.403-1.3228s10.865-29 17.847-28.267c6.9817 0.7338 6.3632 26.662 11.58 31.36 5.217 4.6974 30.939 1.372 32.398 8.2388 1.4596 6.8668-23.391 14.291-26.246 20.704-2.8554 6.4132 8.2557 29.848 2.1761 33.358z" style="fill:#f60;paint-order:fill markers stroke"/>
  <path id="use2683" transform="matrix(.094843 .04133 -.04133 .094843 158.11 35.009)" d="m-558.5 406.53c-6.0796 3.5101-20.82-17.83-27.801-18.564-6.9817-0.7338-25.836 17.075-31.053 12.378-5.217-4.6974 10.524-25.31 9.0641-32.177-1.4596-6.8668-24.223-19.295-21.368-25.708 2.8554-6.4132 27.324 2.1873 33.403-1.3228s10.865-29 17.847-28.267c6.9817 0.7338 6.3632 26.662 11.58 31.36 5.217 4.6974 30.939 1.372 32.398 8.2388 1.4596 6.8668-23.391 14.291-26.246 20.704-2.8554 6.4132 8.2557 29.848 2.1761 33.358z" style="fill:#f60;paint-order:fill markers stroke"/>
  <path id="use2685" transform="matrix(.10174 .018765 -.018765 .10174 158.99 45.407)" d="m-558.5 406.53c-6.0796 3.5101-20.82-17.83-27.801-18.564-6.9817-0.7338-25.836 17.075-31.053 12.378-5.217-4.6974 10.524-25.31 9.0641-32.177-1.4596-6.8668-24.223-19.295-21.368-25.708 2.8554-6.4132 27.324 2.1873 33.403-1.3228s10.865-29 17.847-28.267c6.9817 0.7338 6.3632 26.662 11.58 31.36 5.217 4.6974 30.939 1.372 32.398 8.2388 1.4596 6.8668-23.391 14.291-26.246 20.704-2.8554 6.4132 8.2557 29.848 2.1761 33.358z" style="fill:#f60;paint-order:fill markers stroke"/>
  <path id="use2687" transform="matrix(.049723 .090725 -.090725 .049723 115.45 85.469)" d="m-558.5 406.53c-6.0796 3.5101-20.82-17.83-27.801-18.564-6.9817-0.7338-25.836 17.075-31.053 12.378-5.217-4.6974 10.524-25.31 9.0641-32.177-1.4596-6.8668-24.223-19.295-21.368-25.708 2.8554-6.4132 27.324 2.1873 33.403-1.3228s10.865-29 17.847-28.267c6.9817 0.7338 6.3632 26.662 11.58 31.36 5.217 4.6974 30.939 1.372 32.398 8.2388 1.4596 6.8668-23.391 14.291-26.246 20.704-2.8554 6.4132 8.2557 29.848 2.1761 33.358z" style="fill:#f60;paint-order:fill markers stroke"/>
  <path id="use2689" transform="matrix(.076927 -.069177 .069177 .076927 31.846 -.43756)" d="m-558.5 406.53c-6.0796 3.5101-20.82-17.83-27.801-18.564-6.9817-0.7338-25.836 17.075-31.053 12.378-5.217-4.6974 10.524-25.31 9.0641-32.177-1.4596-6.8668-24.223-19.295-21.368-25.708 2.8554-6.4132 27.324 2.1873 33.403-1.3228s10.865-29 17.847-28.267c6.9817 0.7338 6.3632 26.662 11.58 31.36 5.217 4.6974 30.939 1.372 32.398 8.2388 1.4596 6.8668-23.391 14.291-26.246 20.704-2.8554 6.4132 8.2557 29.848 2.1761 33.358z" style="fill:#f60;paint-order:fill markers stroke"/>
  <path id="use2691" transform="matrix(.087168 .055723 -.055723 .087168 134.02 110)" d="m-558.5 406.53c-6.0796 3.5101-20.82-17.83-27.801-18.564-6.9817-0.7338-25.836 17.075-31.053 12.378-5.217-4.6974 10.524-25.31 9.0641-32.177-1.4596-6.8668-24.223-19.295-21.368-25.708 2.8554-6.4132 27.324 2.1873 33.403-1.3228s10.865-29 17.847-28.267c6.9817 0.7338 6.3632 26.662 11.58 31.36 5.217 4.6974 30.939 1.372 32.398 8.2388 1.4596 6.8668-23.391 14.291-26.246 20.704-2.8554 6.4132 8.2557 29.848 2.1761 33.358z" style="fill:#f60;paint-order:fill markers stroke"/>
  <path id="use2719" transform="matrix(.064416 .10459 -.10459 .064416 163.4 66.941)" d="m-558.5 406.53c-6.0796 3.5101-20.82-17.83-27.801-18.564-6.9817-0.7338-25.836 17.075-31.053 12.378-5.217-4.6974 10.524-25.31 9.0641-32.177-1.4596-6.8668-24.223-19.295-21.368-25.708 2.8554-6.4132 27.324 2.1873 33.403-1.3228s10.865-29 17.847-28.267c6.9817 0.7338 6.3632 26.662 11.58 31.36 5.217 4.6974 30.939 1.372 32.398 8.2388 1.4596 6.8668-23.391 14.291-26.246 20.704-2.8554 6.4132 8.2557 29.848 2.1761 33.358z" style="fill:#2a7fff;paint-order:fill markers stroke"/>
  <path id="use2721" transform="matrix(.022523 .091168 -.091168 .022523 105.24 107.02)" d="m-558.5 406.53c-6.0796 3.5101-20.82-17.83-27.801-18.564-6.9817-0.7338-25.836 17.075-31.053 12.378-5.217-4.6974 10.524-25.31 9.0641-32.177-1.4596-6.8668-24.223-19.295-21.368-25.708 2.8554-6.4132 27.324 2.1873 33.403-1.3228s10.865-29 17.847-28.267c6.9817 0.7338 6.3632 26.662 11.58 31.36 5.217 4.6974 30.939 1.372 32.398 8.2388 1.4596 6.8668-23.391 14.291-26.246 20.704-2.8554 6.4132 8.2557 29.848 2.1761 33.358z" style="fill:#2a7fff;paint-order:fill markers stroke"/>
  <path id="use2723" transform="matrix(.11188 .030043 -.030043 .11188 127.86 7.2405)" d="m-558.5 406.53c-6.0796 3.5101-20.82-17.83-27.801-18.564-6.9817-0.7338-25.836 17.075-31.053 12.378-5.217-4.6974 10.524-25.31 9.0641-32.177-1.4596-6.8668-24.223-19.295-21.368-25.708 2.8554-6.4132 27.324 2.1873 33.403-1.3228s10.865-29 17.847-28.267c6.9817 0.7338 6.3632 26.662 11.58 31.36 5.217 4.6974 30.939 1.372 32.398 8.2388 1.4596 6.8668-23.391 14.291-26.246 20.704-2.8554 6.4132 8.2557 29.848 2.1761 33.358z" style="fill:#2a7fff;paint-order:fill markers stroke"/>
  <path id="use2725" transform="matrix(.049125 .094144 -.094144 .049125 94.333 159.9)" d="m-558.5 406.53c-6.0796 3.5101-20.82-17.83-27.801-18.564-6.9817-0.7338-25.836 17.075-31.053 12.378-5.217-4.6974 10.524-25.31 9.0641-32.177-1.4596-6.8668-24.223-19.295-21.368-25.708 2.8554-6.4132 27.324 2.1873 33.403-1.3228s10.865-29 17.847-28.267c6.9817 0.7338 6.3632 26.662 11.58 31.36 5.217 4.6974 30.939 1.372 32.398 8.2388 1.4596 6.8668-23.391 14.291-26.246 20.704-2.8554 6.4132 8.2557 29.848 2.1761 33.358z" style="fill:#2a7fff;paint-order:fill markers stroke"/>
  <path id="use2727" transform="matrix(.00041374 -.11557 .11557 .00041374 -.18741 11.239)" d="m-558.5 406.53c-6.0796 3.5101-20.82-17.83-27.801-18.564-6.9817-0.7338-25.836 17.075-31.053 12.378-5.217-4.6974 10.524-25.31 9.0641-32.177-1.4596-6.8668-24.223-19.295-21.368-25.708 2.8554-6.4132 27.324 2.1873 33.403-1.3228s10.865-29 17.847-28.267c6.9817 0.7338 6.3632 26.662 11.58 31.36 5.217 4.6974 30.939 1.372 32.398 8.2388 1.4596 6.8668-23.391 14.291-26.246 20.704-2.8554 6.4132 8.2557 29.848 2.1761 33.358z" style="fill:#2a7fff;paint-order:fill markers stroke"/>
  <path id="use2729" transform="matrix(.068479 .068458 -.068458 .068479 170.81 77.805)" d="m-558.5 406.53c-6.0796 3.5101-20.82-17.83-27.801-18.564-6.9817-0.7338-25.836 17.075-31.053 12.378-5.217-4.6974 10.524-25.31 9.0641-32.177-1.4596-6.8668-24.223-19.295-21.368-25.708 2.8554-6.4132 27.324 2.1873 33.403-1.3228s10.865-29 17.847-28.267c6.9817 0.7338 6.3632 26.662 11.58 31.36 5.217 4.6974 30.939 1.372 32.398 8.2388 1.4596 6.8668-23.391 14.291-26.246 20.704-2.8554 6.4132 8.2557 29.848 2.1761 33.358z" style="fill:#2a7fff;paint-order:fill markers stroke"/>
  <path id="use2735" transform="matrix(.052085 -.099617 .099617 .052085 26.374 -61.176)" d="m-558.5 406.53c-6.0796 3.5101-20.82-17.83-27.801-18.564-6.9817-0.7338-25.836 17.075-31.053 12.378-5.217-4.6974 10.524-25.31 9.0641-32.177-1.4596-6.8668-24.223-19.295-21.368-25.708 2.8554-6.4132 27.324 2.1873 33.403-1.3228s10.865-29 17.847-28.267c6.9817 0.7338 6.3632 26.662 11.58 31.36 5.217 4.6974 30.939 1.372 32.398 8.2388 1.4596 6.8668-23.391 14.291-26.246 20.704-2.8554 6.4132 8.2557 29.848 2.1761 33.358z" style="fill:#fc0;paint-order:fill markers stroke"/>
  <path id="use2737" transform="matrix(.090869 -.064207 .064207 .090869 100.19 -52.638)" d="m-558.5 406.53c-6.0796 3.5101-20.82-17.83-27.801-18.564-6.9817-0.7338-25.836 17.075-31.053 12.378-5.217-4.6974 10.524-25.31 9.0641-32.177-1.4596-6.8668-24.223-19.295-21.368-25.708 2.8554-6.4132 27.324 2.1873 33.403-1.3228s10.865-29 17.847-28.267c6.9817 0.7338 6.3632 26.662 11.58 31.36 5.217 4.6974 30.939 1.372 32.398 8.2388 1.4596 6.8668-23.391 14.291-26.246 20.704-2.8554 6.4132 8.2557 29.848 2.1761 33.358z" style="fill:#fc0;paint-order:fill markers stroke"/>
  <path id="use2741" transform="matrix(.079726 -.021009 .021009 .079726 140.42 -19.981)" d="m-558.5 406.53c-6.0796 3.5101-20.82-17.83-27.801-18.564-6.9817-0.7338-25.836 17.075-31.053 12.378-5.217-4.6974 10.524-25.31 9.0641-32.177-1.4596-6.8668-24.223-19.295-21.368-25.708 2.8554-6.4132 27.324 2.1873 33.403-1.3228s10.865-29 17.847-28.267c6.9817 0.7338 6.3632 26.662 11.58 31.36 5.217 4.6974 30.939 1.372 32.398 8.2388 1.4596 6.8668-23.391 14.291-26.246 20.704-2.8554 6.4132 8.2557 29.848 2.1761 33.358z" style="fill:#fc0;paint-order:fill markers stroke"/>
  <path id="path2743" transform="matrix(.087964 -.054467 .054467 .087964 62.241 -24.054)" d="m-558.5 406.53c-6.0796 3.5101-20.82-17.83-27.801-18.564-6.9817-0.7338-25.836 17.075-31.053 12.378-5.217-4.6974 10.524-25.31 9.0641-32.177-1.4596-6.8668-24.223-19.295-21.368-25.708 2.8554-6.4132 27.324 2.1873 33.403-1.3228s10.865-29 17.847-28.267c6.9817 0.7338 6.3632 26.662 11.58 31.36 5.217 4.6974 30.939 1.372 32.398 8.2388 1.4596 6.8668-23.391 14.291-26.246 20.704-2.8554 6.4132 8.2557 29.848 2.1761 33.358z" style="fill:#f60;paint-order:fill markers stroke"/>
  <path id="path2843" transform="matrix(.10543 -.011257 .011257 .10543 168.41 -12.457)" d="m-558.5 406.53c-6.0796 3.5101-20.82-17.83-27.801-18.564-6.9817-0.7338-25.836 17.075-31.053 12.378-5.217-4.6974 10.524-25.31 9.0641-32.177-1.4596-6.8668-24.223-19.295-21.368-25.708 2.8554-6.4132 27.324 2.1873 33.403-1.3228s10.865-29 17.847-28.267c6.9817 0.7338 6.3632 26.662 11.58 31.36 5.217 4.6974 30.939 1.372 32.398 8.2388 1.4596 6.8668-23.391 14.291-26.246 20.704-2.8554 6.4132 8.2557 29.848 2.1761 33.358z" style="fill:#2a7fff;paint-order:fill markers stroke"/>
  <path id="path2373" d="m67.888 117.65c-12.364 0-22.318 8.1151-22.318 18.195v1.4322h45.491v-1.4322c0-10.08-9.9533-18.195-22.317-18.195z" style="fill:#333;paint-order:fill markers stroke"/>
  <g id="g2383" transform="matrix(.98242 0 0 .98242 249.34 -793.16)" style="fill:#ff2a2a">
   <rect id="rect2375" transform="matrix(.98924 .14627 .1007 -.99492 0 0)" x="-95.484" y="-956.42" width="4.8272" height="10.958" ry="2.9006" style="fill:#ff2a2a;paint-order:fill markers stroke"/>
   <rect id="rect2377" transform="matrix(-.98924 .14627 -.1007 -.99492 0 0)" x="271.55" y="-902.46" width="4.8272" height="10.958" ry="2.9006" style="fill:#ff2a2a;paint-order:fill markers stroke"/>
   <circle id="circle2379" cx="-184.26" cy="939.73" r="1.0357" style="fill:#ff2a2a;paint-order:fill markers stroke"/>
   <circle id="circle2381" cx="-184.26" cy="943.22" r="1.0357" style="fill:#ff2a2a;paint-order:fill markers stroke"/>
  </g>
  <path id="path2387" d="m49.749 64.133c-7.7988-0.0098-10.746 16.1-7.3075 23.573 4.7285 10.276 5.0833 22.44-4.8565 22.897 6.5325 5.4696 15.921 5.9421 18.016-3.0953 0.27025-1.1658 0.50496-2.3315 0.7138-3.4974l-3.9873-8.0366-0.11578-3.4801-0.06798-2.0338 0.1838-9.19 4.1355-7.6279 1.6545-4.1102 0.20155-0.50109a3.1563 4.0382 47.369 0 0-0.51327-0.86306 3.1563 4.0382 47.369 0 0-1.9728-0.85086 3.1563 4.0382 47.369 0 0-0.6869 0.04411c-1.4754-1.688-3.4501-3.2249-5.3972-3.2278zm37.735 0c-1.9471 0.0029-3.9218 1.5399-5.3972 3.2278a4.0382 3.1563 42.631 0 0-0.68689-0.04411 4.0382 3.1563 42.631 0 0-1.9728 0.85086 4.0382 3.1563 42.631 0 0-0.51326 0.86306l0.20152 0.50109 1.6545 4.1102 4.1356 7.6279 0.18379 9.19-0.06808 2.0338-0.11575 3.4801-3.9873 8.0366c0.20883 1.1659 0.44357 2.3316 0.7138 3.4974 2.0947 9.0374 11.484 8.565 18.016 3.0953-9.9398-0.45788-9.585-12.622-4.8565-22.897 3.4385-7.4722 0.49127-23.583-7.3075-23.573z" style="fill:#ff2a2a"/>
  <rect id="rect2389" x="64.138" y="107.4" width="8.355" height="19.075" ry="4.1775" style="fill:#ffc8b2;paint-order:fill markers stroke"/>
  <path id="path2391" d="m68.315 105.69c-2.3143 0-4.1774 1.8631-4.1774 4.1774v5.8942c1.0568 0.19501 2.1453 0.30146 3.2602 0.30146h1.8343c1.1149 0 2.2034-0.10645 3.2602-0.30146v-5.8942c0-2.3143-1.8631-4.1774-4.1774-4.1774z" style="fill:#fabba3;paint-order:fill markers stroke"/>
  <path id="path2393" d="m67.31 68.381c-8.9487 0-16.153 7.2041-16.153 16.153v8.1737c-0.20228-0.05079-0.40751-0.07702-0.61332-0.0782-1.8971-9.8e-5 -3.4349 2.0781-3.4349 4.6417 1.97e-4 2.5634 1.538 4.6413 3.4349 4.6412 0.45408-9.8e-4 0.90343-0.12443 1.322-0.36197 2.0233 6.6097 8.1547 11.391 15.444 11.391h2.0109c7.2895 0 13.421-4.7811 15.445-11.391 0.41831 0.23737 0.86728 0.36039 1.321 0.36197 1.897 1.2e-4 3.4348-2.0778 3.4349-4.6412 0-2.5636-1.5378-4.6418-3.4349-4.6417-0.20542 9.83e-4 -0.41026 0.02741-0.61224 0.0782v-8.1737c0-8.9487-7.2047-16.153-16.153-16.153z" style="fill:#ffc8b2;paint-order:fill markers stroke"/>
  <g id="g2400" transform="matrix(.98242 0 0 .98242 -698.2 -236.15)">
   <ellipse id="ellipse2395" cx="774.56" cy="333.81" rx="2.1734" ry="4.4412" style="fill:#333;paint-order:fill markers stroke"/>
   <ellipse id="ellipse2397" cx="785.9" cy="333.81" rx="2.1734" ry="4.4412" style="fill:#333;paint-order:fill markers stroke"/>
  </g>
  <g id="g2406" transform="matrix(.98242 0 0 .98242 -698.2 -236.15)">
   <rect id="rect2402" x="770.54" y="326.49" width="6.1421" height="1.6064" ry=".8032" style="fill:#4d4d4d;paint-order:fill markers stroke"/>
   <rect id="rect2404" x="783.77" y="326.49" width="6.1421" height="1.6064" ry=".8032" style="fill:#4d4d4d;paint-order:fill markers stroke"/>
  </g>
  <path id="path2408" d="m67.593 66.28c-3.6402-0.039-6.1286 0.55573-9.7718 2.7801-5.82 3.6334-7.2033 8.9624-7.3375 14.482-0.72454 0.77759-1.1899 2.4789-1.191 4.3539-1.9e-5 2.6464 0.91097 4.7918 2.0348 4.792 1.0733-0.0029 1.9611-1.968 2.0287-4.4904 4.615-0.72066 9.2487-3.6149 11.189-7.2537 0.24254 1.0757-0.46634 2.869-2.575 5.057 3.5926-1.4373 7.0322-3.926 8.3884-7.4949 0.16439 1.612-0.48722 2.3556-1.0666 3.2593 1.9753-0.84841 3.6467-2.071 5.2032-3.435 2.0975 2.855 4.8314 5.5778 8.9184 8.0183-0.06052 0.45966-0.09136 0.93819-0.09136 1.4195-2e-5 2.6464 0.91097 4.7918 2.0348 4.792 1.1238-1.87e-4 2.0348-2.1456 2.0348-4.792-9.83e-4 -1.8347-0.44708-3.5068-1.1484-4.3061-0.01336-3.2241-0.16547-6.4702-2.0444-9.1068 0.46113-0.13799 0.86054-0.38273 1.1707-0.71735 1.1807-1.2826 0.8075-3.547-0.8336-5.0575-1.6409-1.5105-3.9282-1.6953-5.1088-0.41274-0.37816 0.4133-0.60893 0.94808-0.66862 1.5494-1.6882-1.9371-7.5257-3.398-11.166-3.437z" style="fill:#ff2a2a"/>
  <path id="path2410" d="m56.447 67.527a2.5397 4.6452 49.448 0 1 1.3164 0.44624 2.5397 4.6452 49.448 0 1 0.22693 0.27974 2.5397 4.6452 49.448 0 0-4.5889 1.7754 2.5397 4.6452 49.448 0 0-1.7698 4.5899 2.5397 4.6452 49.448 0 1-0.7011-0.3701 2.5397 4.6452 49.448 0 1 1.5428-4.8697 2.5397 4.6452 49.448 0 1 3.9736-1.8515z" style="fill:#333;paint-order:fill markers stroke"/>
  <path id="path2412" d="m80.786 67.527a4.6452 2.5397 40.552 0 0-1.3164 0.44624 4.6452 2.5397 40.552 0 0-0.22693 0.27974 4.6452 2.5397 40.552 0 1 4.5889 1.7754 4.6452 2.5397 40.552 0 1 1.7698 4.5899 4.6452 2.5397 40.552 0 0 0.7011-0.3701 4.6452 2.5397 40.552 0 0-1.5428-4.8697 4.6452 2.5397 40.552 0 0-3.9736-1.8515z" style="fill:#333;paint-order:fill markers stroke"/>
  <g id="g2422" transform="matrix(.98242 0 0 .98242 -916.06 -236.15)">
   <ellipse id="ellipse2414" cx="994.1" cy="340.44" rx="2.6059" ry="1.0691" style="fill:#eb9f9b;paint-order:fill markers stroke"/>
   <ellipse id="ellipse2416" cx="1009.9" cy="340.44" rx="2.6059" ry="1.0691" style="fill:#eb9f9b;paint-order:fill markers stroke"/>
   <path id="path2418" d="m1004.9 339.76a3.0881 3.1542 0 0 1-2.866 1.9863 3.0881 3.1542 0 0 1-2.866-1.9837 3.0881 3.1542 0 0 0-0.22213 1.168 3.0881 3.1542 0 0 0 3.0881 3.1542 3.0881 3.1542 0 0 0 3.0881-3.1542 3.0881 3.1542 0 0 0-0.2221-1.1705z" style="fill:#eb9f9b;paint-order:fill markers stroke"/>
   <path id="path2420" d="m997.44 347.08a0.52922 0.52922 0 0 0-0.31445 0.94726c1.8079 1.4365 3.2384 2.2818 4.7988 2.3106 1.5605 0.0288 3.0865-0.76449 5.0742-2.3066a0.52922 0.52922 0 1 0-0.6485-0.83594c-1.9179 1.4881-3.2225 2.1078-4.4062 2.0859-1.1837-0.0218-2.409-0.69065-4.1602-2.082a0.52922 0.52922 0 0 0-0.34375-0.11914z" style="color-rendering:auto;color:#000000;dominant-baseline:auto;fill:#eb9f9b;font-feature-settings:normal;font-variant-alternates:normal;font-variant-caps:normal;font-variant-ligatures:normal;font-variant-numeric:normal;font-variant-position:normal;image-rendering:auto;isolation:auto;mix-blend-mode:normal;shape-padding:0;shape-rendering:auto;solid-color:#000000;text-decoration-color:#000000;text-decoration-line:none;text-decoration-style:solid;text-indent:0;text-orientation:mixed;text-transform:none;white-space:normal"/>
  </g>
  <g id="g2917" transform="matrix(.48952 0 0 .48952 659.26 -449.86)">
   <rect id="rect2347" transform="rotate(-30)" x="-1659.3" y="295.76" width="11.742" height="153.52" rx="5.8711" ry="5.8711" style="fill:#333;paint-order:fill markers stroke"/>
   <g id="g2911">
    <rect id="rect2349" transform="rotate(-30)" x="-1659.3" y="295.76" width="11.742" height="146.05" rx="5.8711" ry="5.8711" style="fill:#4d4d4d;paint-order:fill markers stroke"/>
    <rect id="rect2351" transform="rotate(-30)" x="-1659.3" y="295.76" width="11.742" height="54.604" rx="0" ry="0" style="fill:#ccc;paint-order:fill markers stroke"/>
   </g>
  </g>
  <g id="g2369" transform="matrix(.28506 -.16458 .16458 .28506 156.43 -176.38)" style="fill:#fc0">
   <path id="path2353" transform="rotate(-6.0942 473.68 1708.9)" d="m-558.5 406.53c-6.0796 3.5101-20.82-17.83-27.801-18.564-6.9817-0.7338-25.836 17.075-31.053 12.378-5.217-4.6974 10.524-25.31 9.0641-32.177-1.4596-6.8668-24.223-19.295-21.368-25.708 2.8554-6.4132 27.324 2.1873 33.403-1.3228s10.865-29 17.847-28.267c6.9817 0.7338 6.3632 26.662 11.58 31.36 5.217 4.6974 30.939 1.372 32.398 8.2388 1.4596 6.8668-23.391 14.291-26.246 20.704-2.8554 6.4132 8.2557 29.848 2.1761 33.358z" style="fill:#fc0;paint-order:fill markers stroke"/>
   <g id="g2367" transform="translate(-129.53 224.37)" style="fill:#fc0">
    <path id="path2355" transform="matrix(.26458 0 0 .26458 0 138.57)" d="m-2234 124.66a3.0003 2.1212 0 0 0-2.9531 2.1484v79.787a242.08 229.51 0 0 1 3-0.10156 242.08 229.51 0 0 1 3.002 0.14258v-79.828a3.0003 2.1212 0 0 0-3.0489-2.1484zm-308.25 264.5a3.001 3.001 0 1 0 0 6.002h70.287a242.08 229.51 0 0 1 1.0938-6.002zm545.01 0a242.08 229.51 0 0 1 1.4219 6.002h70.174a3.001 3.001 0 1 0 0-6.002z" style="color-rendering:auto;color:#000000;dominant-baseline:auto;fill:#fc0;font-feature-settings:normal;font-variant-alternates:normal;font-variant-caps:normal;font-variant-ligatures:normal;font-variant-numeric:normal;font-variant-position:normal;image-rendering:auto;isolation:auto;mix-blend-mode:normal;shape-padding:0;shape-rendering:auto;solid-color:#000000;text-decoration-color:#000000;text-decoration-line:none;text-decoration-style:solid;text-indent:0;text-orientation:mixed;text-transform:none;white-space:normal"/>
    <g id="g2365" style="fill:#fc0">
     <path id="path2357" transform="matrix(.26458 0 0 .26458 0 138.57)" d="m-2452 214.97a3.0003 3.0003 0 0 0-2.0878 5.1523l112 111.99a154 146 0 0 1 4.545-3.9414l-112.3-112.3a3.0003 3.0003 0 0 0-2.1563-0.9082z" style="color-rendering:auto;color:#000000;dominant-baseline:auto;fill:#fc0;font-feature-settings:normal;font-variant-alternates:normal;font-variant-caps:normal;font-variant-ligatures:normal;font-variant-numeric:normal;font-variant-position:normal;image-rendering:auto;isolation:auto;mix-blend-mode:normal;shape-padding:0;shape-rendering:auto;solid-color:#000000;text-decoration-color:#000000;text-decoration-line:none;text-decoration-style:solid;text-indent:0;text-orientation:mixed;text-transform:none;white-space:normal"/>
     <path id="path2359" transform="matrix(.26458 0 0 .26458 0 138.57)" d="m-2045.6 188.79a3.0003 3.0003 0 0 0-2.5312 1.2031l-97.51 126.5a154 146 0 0 1 4.8691 3.5098l97.395-126.35a3.0003 3.0003 0 0 0-2.2227-4.8652z" style="color-rendering:auto;color:#000000;dominant-baseline:auto;fill:#fc0;font-feature-settings:normal;font-variant-alternates:normal;font-variant-caps:normal;font-variant-ligatures:normal;font-variant-numeric:normal;font-variant-position:normal;image-rendering:auto;isolation:auto;mix-blend-mode:normal;shape-padding:0;shape-rendering:auto;solid-color:#000000;text-decoration-color:#000000;text-decoration-line:none;text-decoration-style:solid;text-indent:0;text-orientation:mixed;text-transform:none;white-space:normal"/>
     <path id="path2361" transform="matrix(.26458 0 0 .26458 0 138.57)" d="m-2378 487.71-145.16 55.389a3.0024 3.0024 0 1 0 2.1406 5.6094l145.47-55.506a154 146 0 0 1-2.4473-5.4922z" style="color-rendering:auto;color:#000000;dominant-baseline:auto;fill:#fc0;font-feature-settings:normal;font-variant-alternates:normal;font-variant-caps:normal;font-variant-ligatures:normal;font-variant-numeric:normal;font-variant-position:normal;image-rendering:auto;isolation:auto;mix-blend-mode:normal;shape-padding:0;shape-rendering:auto;solid-color:#000000;text-decoration-color:#000000;text-decoration-line:none;text-decoration-style:solid;text-indent:0;text-orientation:mixed;text-transform:none;white-space:normal"/>
     <path id="path2363" transform="matrix(.26458 0 0 .26458 0 138.57)" d="m-2089.9 486.95a154 146 0 0 1-2.1563 5.5996l145.57 54.717a3.0003 3.0003 0 0 0 3.0566-5.0606 3.0003 3.0003 0 0 0-0.9492-0.55469z" style="color-rendering:auto;color:#000000;dominant-baseline:auto;fill:#fc0;font-feature-settings:normal;font-variant-alternates:normal;font-variant-caps:normal;font-variant-ligatures:normal;font-variant-numeric:normal;font-variant-position:normal;image-rendering:auto;isolation:auto;mix-blend-mode:normal;shape-padding:0;shape-rendering:auto;solid-color:#000000;text-decoration-color:#000000;text-decoration-line:none;text-decoration-style:solid;text-indent:0;text-orientation:mixed;text-transform:none;white-space:normal"/>
    </g>
   </g>
  </g>
  <path id="path2437" transform="matrix(.14494 .086896 -.086896 .14494 209.56 126.89)" d="m-558.5 406.53c-6.0796 3.5101-20.82-17.83-27.801-18.564-6.9817-0.7338-25.836 17.075-31.053 12.378-5.217-4.6974 10.524-25.31 9.0641-32.177-1.4596-6.8668-24.223-19.295-21.368-25.708 2.8554-6.4132 27.324 2.1873 33.403-1.3228s10.865-29 17.847-28.267c6.9817 0.7338 6.3632 26.662 11.58 31.36 5.217 4.6974 30.939 1.372 32.398 8.2388 1.4596 6.8668-23.391 14.291-26.246 20.704-2.8554 6.4132 8.2557 29.848 2.1761 33.358z" style="fill:#fc0;paint-order:fill markers stroke"/>
  <path id="use2935" transform="matrix(.020392 .11614 -.11614 .020392 174.24 127.46)" d="m-558.5 406.53c-6.0796 3.5101-20.82-17.83-27.801-18.564-6.9817-0.7338-25.836 17.075-31.053 12.378-5.217-4.6974 10.524-25.31 9.0641-32.177-1.4596-6.8668-24.223-19.295-21.368-25.708 2.8554-6.4132 27.324 2.1873 33.403-1.3228s10.865-29 17.847-28.267c6.9817 0.7338 6.3632 26.662 11.58 31.36 5.217 4.6974 30.939 1.372 32.398 8.2388 1.4596 6.8668-23.391 14.291-26.246 20.704-2.8554 6.4132 8.2557 29.848 2.1761 33.358z" style="fill:#fc0;paint-order:fill markers stroke"/>
  <path id="path2816" transform="matrix(.14188 .037173 -.037173 .14188 202.01 75.792)" d="m-558.5 406.53c-6.0796 3.5101-20.82-17.83-27.801-18.564-6.9817-0.7338-25.836 17.075-31.053 12.378-5.217-4.6974 10.524-25.31 9.0641-32.177-1.4596-6.8668-24.223-19.295-21.368-25.708 2.8554-6.4132 27.324 2.1873 33.403-1.3228s10.865-29 17.847-28.267c6.9817 0.7338 6.3632 26.662 11.58 31.36 5.217 4.6974 30.939 1.372 32.398 8.2388 1.4596 6.8668-23.391 14.291-26.246 20.704-2.8554 6.4132 8.2557 29.848 2.1761 33.358z" style="fill:#f60;paint-order:fill markers stroke"/>
  <path id="path2814" transform="matrix(.13244 -.051186 .051186 .13244 165.22 4.6898)" d="m-558.5 406.53c-6.0796 3.5101-20.82-17.83-27.801-18.564-6.9817-0.7338-25.836 17.075-31.053 12.378-5.217-4.6974 10.524-25.31 9.0641-32.177-1.4596-6.8668-24.223-19.295-21.368-25.708 2.8554-6.4132 27.324 2.1873 33.403-1.3228s10.865-29 17.847-28.267c6.9817 0.7338 6.3632 26.662 11.58 31.36 5.217 4.6974 30.939 1.372 32.398 8.2388 1.4596 6.8668-23.391 14.291-26.246 20.704-2.8554 6.4132 8.2557 29.848 2.1761 33.358z" style="fill:#2a7fff;paint-order:fill markers stroke"/>
  <path id="path321" transform="matrix(.09613 .038239 -.038239 .09613 91.722 90.353)" d="m-558.5 406.53c-6.0796 3.5101-20.82-17.83-27.801-18.564-6.9817-0.7338-25.836 17.075-31.053 12.378-5.217-4.6974 10.524-25.31 9.0641-32.177-1.4596-6.8668-24.223-19.295-21.368-25.708 2.8554-6.4132 27.324 2.1873 33.403-1.3228s10.865-29 17.847-28.267c6.9817 0.7338 6.3632 26.662 11.58 31.36 5.217 4.6974 30.939 1.372 32.398 8.2388 1.4596 6.8668-23.391 14.291-26.246 20.704-2.8554 6.4132 8.2557 29.848 2.1761 33.358z" style="fill:#fc0;paint-order:fill markers stroke"/>
  <path id="path323" transform="matrix(.068479 .068458 -.068458 .068479 80.733 55.205)" d="m-558.5 406.53c-6.0796 3.5101-20.82-17.83-27.801-18.564-6.9817-0.7338-25.836 17.075-31.053 12.378-5.217-4.6974 10.524-25.31 9.0641-32.177-1.4596-6.8668-24.223-19.295-21.368-25.708 2.8554-6.4132 27.324 2.1873 33.403-1.3228s10.865-29 17.847-28.267c6.9817 0.7338 6.3632 26.662 11.58 31.36 5.217 4.6974 30.939 1.372 32.398 8.2388 1.4596 6.8668-23.391 14.291-26.246 20.704-2.8554 6.4132 8.2557 29.848 2.1761 33.358z" style="fill:#2a7fff;paint-order:fill markers stroke"/>
 </g>
</svg>
