<svg id="svg8" width="490" height="580" version="1.1" viewBox="0 0 129.64 153.45" xmlns="http://www.w3.org/2000/svg" xmlns:xlink="http://www.w3.org/1999/xlink">
 <rect id="rect37" y="-2.8422e-14" width="129.64" height="153.45" style="opacity:0;paint-order:fill markers stroke;stroke-width:.26528"/>
 <g id="layer1-6" transform="matrix(.99996 0 0 .99996 167.62 67.761)">
  <g id="g1327" transform="matrix(1.8435,0,0,1.8435,290.9,-1308.9)">
   <path id="path1243" d="m-219.72 677.87c-0.18511-7e-3 -0.37029-7e-3 -0.55604 5.3e-4 -1.486 0.0612-2.9868 0.65217-3.9548 1.7813-0.67807 0.79093-1.0601 1.788-1.4025 2.7719-0.34237 0.98394-0.66532 1.9919-1.2532 2.852-0.30407 0.44494-0.67937 0.84707-1.1317 1.14-0.45234 0.29292-0.98454 0.47315-1.5234 0.46715-0.49562-5e-3 -0.97817-0.16598-1.4268-0.37672-0.44861-0.21075-0.87111-0.47229-1.3126-0.69763-0.44146-0.22533-0.9093-0.41616-1.402-0.47026s-1.0162 0.0402-1.4113 0.33952c-0.35437 0.26848-0.57989 0.68195-0.68419 1.1141-0.1043 0.43218-0.0961 0.88443-0.0491 1.3265 0.047 0.4421 0.13231 0.87926 0.17931 1.3214 0.047 0.44211 0.0553 0.89437-0.0491 1.3265-0.14715 0.60905-0.51244 1.1476-0.95136 1.5947-0.43892 0.44714-0.95206 0.81251-1.4593 1.1803s-1.015 0.74359-1.4371 1.2066c-0.42211 0.46306-0.75814 1.024-0.8599 1.6423-0.0938 0.56984 0.0164 1.1586 0.22376 1.6976 0.20737 0.53899 0.509 1.0354 0.81287 1.5265 0.30386 0.49112 0.61268 0.98263 0.83612 1.5152 0.22341 0.53253 0.35964 1.1138 0.30024 1.6883-0.0669 0.64644-0.37835 1.2482-0.78393 1.756-0.40559 0.5078-0.90426 0.932-1.4025 1.3493-0.49823 0.41728-1.0019 0.83395-1.4216 1.3302-0.4197 0.4962-0.75524 1.0823-0.85834 1.7239-0.0834 0.51924-0.0115 1.0556 0.14883 1.5565 0.1603 0.50088 0.40689 0.97005 0.67644 1.4216 0.5391 0.90315 1.1845 1.7674 1.4681 2.7802 0.29461 1.0522 0.16823 2.192-0.20774 3.2179-0.37598 1.0259-0.98934 1.9493-1.6707 2.8034-1.3627 1.7083-3.0426 3.223-3.915 5.2266-0.99337 2.2813-0.76281 5.0548 0.59377 7.1406 1.3566 2.0858 3.7978 3.421 6.2859 3.438 0.52592 0.61389 0.88653 1.3679 1.034 2.1627 0.1475 0.79479 0.0815 1.6283-0.18913 2.39-0.45556 1.2823-1.4421 2.2886-2.3136 3.3336-0.43575 0.52254-0.8508 1.0681-1.1617 1.6733-0.31088 0.60522-0.51498 1.2756-0.50798 1.956 6e-3 0.56975 0.16213 1.1357 0.43563 1.6356 0.27349 0.49987 0.66301 0.93384 1.1214 1.2723 0.91676 0.67687 2.0937 0.95692 3.2308 0.88212s2.2352-0.48709 3.2096-1.078c0.9744-0.59089 1.8326-1.3568 2.6246-2.1761 0.70626-0.73065 1.3658-1.508 2.1182-2.1911 0.75238-0.68307 1.6126-1.2769 2.589-1.5586 1.0183-0.29372 2.0998-0.23339 3.1595-0.21239 1.0596 0.0211 2.1572-8e-3 3.1171-0.45682 0.70749-0.33116 1.2939-0.87047 1.8516-1.4175 0.55766-0.54702 1.106-1.1162 1.7694-1.5286 1.2707-0.78991 2.8806-0.92801 4.3331-0.56895 1.4525 0.35905 2.7586 1.1796 3.8747 2.1761 1.5374 1.3726 2.7425 3.0751 4.1966 4.5356 0.72706 0.73025 1.5209 1.4029 2.4154 1.9146 0.89446 0.5117 1.8949 0.85905 2.9239 0.91415 0.61563 0.033 1.239-0.0394 1.8226-0.23823 0.58359-0.19881 1.1264-0.52568 1.557-0.96686 0.67216-0.68862 1.044-1.6236 1.2242-2.5688 0.18027-0.94527 0.18426-1.9136 0.21756-2.8753 0.0333-0.96173 0.0985-1.9341 0.39377-2.85s0.8444-1.7807 1.6645-2.2841c0.55032-0.33782 1.1967-0.49812 1.8412-0.53692s1.2907 0.0392 1.927 0.14935c1.2726 0.2202 2.5582 0.57157 3.8364 0.38757 0.78718-0.11331 1.541-0.4314 2.1864-0.89607 0.64543-0.46468 1.1826-1.074 1.5839-1.7606 0.80257-1.3733 1.0466-3.0299 0.85989-4.6095s-0.78328-3.0889-1.5622-4.4757c-0.7789-1.3868-1.7389-2.6624-2.7058-3.9253-1.246-1.6276-2.5271-3.2759-3.2401-5.1976-0.35653-0.96086-0.56475-1.9843-0.53175-3.0086 0.033-1.0244 0.31431-2.0499 0.87488-2.9078 0.81257-1.2436 2.1303-2.0454 3.252-3.0194 0.56084-0.48701 1.0837-1.0308 1.4537-1.6748 0.36999-0.64407 0.57963-1.3986 0.48473-2.1353-0.0908-0.70479-0.45696-1.3576-0.95705-1.8624-0.50008-0.50488-1.1283-0.86917-1.789-1.1307-1.3215-0.52304-2.7637-0.64714-4.1341-1.0237-1.7611-0.4839-3.4398-1.4247-4.5542-2.8717-0.55721-0.72346-0.96563-1.5662-1.1514-2.4603-0.18573-0.89409-0.14487-1.8394 0.15296-2.7027 0.27143-0.78672 0.74408-1.4846 1.1545-2.2086 0.41037-0.72402 0.76921-1.5118 0.77721-2.344 8e-3 -0.93409-0.4432-1.8395-1.1188-2.4846-0.6756-0.64513-1.5582-1.0456-2.4696-1.2506-1.8227-0.40989-3.7179-0.073-5.5852-0.014-2.1379 0.0675-4.3053-0.24114-6.2766-1.0712-2.7414-1.1544-4.9876-3.254-7.6755-4.5279-1.176-0.55734-2.4508-0.95415-3.7465-1.0036z" style="fill:#f60"/>
   <path id="path1253" d="m-215.95 727.84c-2.3557 0-4.2522 1.8964-4.2522 4.2522v5.9996c1.0757 0.1985 2.1837 0.30685 3.3186 0.30685h1.8672c1.1348 0 2.2429-0.10835 3.3186-0.30685v-5.9996c0-2.3557-1.8964-4.2522-4.2522-4.2522z" style="fill:#fabba3;paint-order:fill markers stroke"/>
   <path id="path1255" d="m-216.98 689.87c-9.1088 0-16.442 7.333-16.442 16.442v8.3199c-0.2059-0.0517-0.4148-0.0784-0.6243-0.0796-1.931-1e-4 -3.4964 2.1153-3.4964 4.7248 2e-4 2.6093 1.5655 4.7244 3.4964 4.7243 0.4622-1e-3 0.9196-0.12665 1.3457-0.36845 2.0595 6.728 8.3006 11.595 15.721 11.595h2.0469c7.4199 0 13.662-4.8667 15.721-11.595 0.4258 0.24162 0.8828 0.36684 1.3446 0.36845 1.9309 1.2e-4 3.4963-2.115 3.4964-4.7243 0-2.6095-1.5653-4.7249-3.4964-4.7248-0.2091 1e-3 -0.4176 0.0279-0.6232 0.0796v-8.3199c0-9.1089-7.3336-16.442-16.442-16.442z" style="fill:#ffc8b2;paint-order:fill markers stroke"/>
   <g id="g1261" transform="translate(-802.2,379.89)">
    <ellipse id="ellipse1257" cx="580.58" cy="333.81" rx="2.1734" ry="4.4412" style="fill:#333;paint-order:fill markers stroke"/>
    <ellipse id="ellipse1259" cx="591.92" cy="333.81" rx="2.1734" ry="4.4412" style="fill:#333;paint-order:fill markers stroke"/>
   </g>
   <g id="g1267" transform="translate(-802.2,379.89)">
    <rect id="rect1263" x="576.56" y="326.49" width="6.1421" height="1.6064" ry=".8032" style="fill:#4d4d4d;paint-order:fill markers stroke"/>
    <rect id="rect1265" x="589.79" y="326.49" width="6.1421" height="1.6064" ry=".8032" style="fill:#4d4d4d;paint-order:fill markers stroke"/>
   </g>
   <path id="path1273" d="m-237.62 717.55c1.0112 0.36288 2.1589 0.27704 3.1421-0.15595s1.8036-1.1965 2.3818-2.102 0.9219-1.9483 1.0848-3.0101 0.14949-2.1447 0.0507-3.2144c-0.17911-1.9404-0.63734-3.8647-0.56181-5.8119 0.0378-0.97361 0.21267-1.9506 0.60805-2.8411s1.0206-1.6923 1.8436-2.2138c0.60854-0.38556 1.3147-0.61111 2.0328-0.66964 0.71802-0.0585 1.4469 0.0484 2.125 0.29166 1.6456 0.59046 2.8994 1.923 4.3852 2.8445 0.74286 0.46076 1.5652 0.82465 2.4353 0.90828 0.43507 0.0418 0.87871 0.0123 1.2994-0.10644 0.42064-0.11869 0.81781-0.32785 1.1406-0.62256 0.61198-0.55878 0.91539-1.3753 1.1297-2.1758s0.36605-1.6309 0.76016-2.3599c0.35183-0.65077 0.89335-1.1986 1.5434-1.5518s1.4066-0.50924 2.1427-0.43521c0.73607 0.074 1.4483 0.37894 2.0052 0.86584 0.55697 0.4869 0.95512 1.1542 1.1122 1.8771 0.18301 0.84214 0.0419 1.723-0.19701 2.551-0.23889 0.82802-0.57431 1.6267-0.7912 2.4608-0.21688 0.83406-0.3109 1.727-0.0616 2.552 0.12464 0.41247 0.33561 0.8018 0.63336 1.1133 0.29774 0.31148 0.68412 0.54254 1.1057 0.6316 0.33353 0.0705 0.68177 0.0518 1.0148-0.021 0.33301-0.0728 0.6523-0.19865 0.96162-0.34191 0.61865-0.2865 1.2104-0.64707 1.8701-0.81921 0.51634-0.13474 1.07-0.14746 1.5808 7e-3 0.51074 0.1546 0.97477 0.48308 1.254 0.9378 0.32107 0.52279 0.38029 1.1686 0.322 1.7794-0.0583 0.61073-0.22436 1.2057-0.322 1.8114-0.31027 1.9248 0.1184 3.9948 1.3229 5.5279 1.1696 1.4886 3.0436 2.3976 4.9366 2.3945 2.1932-3.4926 2.8843-7.8945 1.867-11.891-0.91681-3.6016-3.102-6.73-5.2917-9.7329-1.3585-1.8631-2.7543-3.7331-4.5357-5.1972-2.5744-2.1158-5.8145-3.2643-9.0714-3.9688-2.2784-0.49278-4.6083-0.78827-6.9385-0.72616-2.6153 0.0697-5.1968 0.58749-7.8026 0.82069-1.4907 0.13341-3.0008 0.1754-4.4507 0.54676-0.72494 0.18567-1.4324 0.45452-2.0718 0.8433-0.63943 0.38879-1.2102 0.90048-1.6238 1.5241-0.76057 1.1465-0.94156 2.5762-0.99827 3.9509-0.0567 1.3747-0.013 2.7757-0.39929 4.0962-0.2408 0.8233-0.64215 1.5898-0.939 2.3946-0.29685 0.80478-0.48893 1.6848-0.28943 2.5191 0.19889 0.83173 0.75407 1.5234 1.2075 2.2485 0.22672 0.36254 0.43262 0.74089 0.57098 1.1455 0.13836 0.40459 0.20725 0.83569 0.17325 1.2619-0.034 0.42623-0.17241 0.84437-0.40448 1.2035s-0.55522 0.65579-0.92201 0.87556-0.7744 0.36287-1.1867 0.47621c-0.41229 0.11334-0.83353 0.19836-1.234 0.34836-0.72563 0.27182-1.3643 0.77081-1.8036 1.4092-0.43927 0.63833-0.67715 1.4131-0.67178 2.188 5e-3 0.77485 0.25397 1.5463 0.70204 2.1784 0.44808 0.63218 1.0936 1.1223 1.8229 1.384z" style="fill:#f60"/>
   <g id="g1285" transform="translate(-1217.9,379.89)">
    <ellipse id="ellipse1275" cx="994.1" cy="340.44" rx="2.6059" ry="1.0691" style="fill:#eb9f9b;paint-order:fill markers stroke"/>
    <ellipse id="ellipse1277" cx="1009.9" cy="340.44" rx="2.6059" ry="1.0691" style="fill:#eb9f9b;paint-order:fill markers stroke"/>
    <path id="path1281" d="m1004.9 339.76a3.0881 3.1542 0 0 1-2.866 1.9863 3.0881 3.1542 0 0 1-2.866-1.9837 3.0881 3.1542 0 0 0-0.22213 1.168 3.0881 3.1542 0 0 0 3.0881 3.1542 3.0881 3.1542 0 0 0 3.0881-3.1542 3.0881 3.1542 0 0 0-0.2221-1.1705z" style="fill:#eb9f9b;paint-order:fill markers stroke"/>
    <path id="path1283" d="m997.44 347.08a0.52922 0.52922 0 0 0-0.31445 0.94726c1.8079 1.4365 3.2384 2.2818 4.7988 2.3106 1.5605 0.0288 3.0865-0.76449 5.0742-2.3066a0.52922 0.52922 0 1 0-0.6485-0.83594c-1.9179 1.4881-3.2225 2.1078-4.4062 2.0859-1.1837-0.0218-2.409-0.69065-4.1602-2.082a0.52922 0.52922 0 0 0-0.34375-0.11914z" style="color-rendering:auto;color:#000000;dominant-baseline:auto;fill:#eb9f9b;font-feature-settings:normal;font-variant-alternates:normal;font-variant-caps:normal;font-variant-ligatures:normal;font-variant-numeric:normal;font-variant-position:normal;image-rendering:auto;isolation:auto;mix-blend-mode:normal;shape-padding:0;shape-rendering:auto;solid-color:#000000;text-decoration-color:#000000;text-decoration-line:none;text-decoration-style:solid;text-indent:0;text-orientation:mixed;text-transform:none;white-space:normal"/>
   </g>
  </g>
 </g>
</svg>
