<?xml version="1.0" encoding="UTF-8"?>
<svg width="256" height="256" version="1.1" viewBox="0 0 67.733 67.733" xmlns="http://www.w3.org/2000/svg" xmlns:cc="http://creativecommons.org/ns#" xmlns:dc="http://purl.org/dc/elements/1.1/" xmlns:rdf="http://www.w3.org/1999/02/22-rdf-syntax-ns#">
 <metadata>
  <rdf:RDF>
   <cc:Work rdf:about="">
    <dc:format>image/svg+xml</dc:format>
    <dc:type rdf:resource="http://purl.org/dc/dcmitype/StillImage"/>
    <dc:title/>
    <dc:creator>
     <cc:Agent>
      <dc:title>Artur S</dc:title>
     </cc:Agent>
    </dc:creator>
   </cc:Work>
  </rdf:RDF>
 </metadata>
 <g transform="translate(7.2206 -169.52)">
  <g transform="matrix(2.2857 0 0 2.2857 9.2837 -217.96)">
   <rect x="-7.2206" y="169.52" width="29.633" height="29.633" fill="none" stroke-linecap="round" stroke-linejoin="round" stroke-width=".16583" style="paint-order:fill markers stroke"/>
   <g transform="translate(-296.39 112.84)">
    <g fill="#353942">
     <ellipse transform="matrix(-.93664 .35029 .35029 .93664 0 0)" cx="-268.23" cy="180.47" rx="1.6838" ry="5.4256" style="paint-order:fill markers stroke"/>
     <ellipse transform="rotate(20.505)" cx="301.22" cy="-32.496" rx="1.6838" ry="5.4256" style="paint-order:fill markers stroke"/>
     <path d="m303.99 56.712c-2.1719 0-6.6772 1.4283-7.6176 5.8136-1.1591 5.4052-2.5459 10.916-2.0045 15.168 0.45893 3.6041 2.8068 8.586 9.6222 8.586s9.1632-4.982 9.6222-8.586c0.54138-4.2517-0.84539-9.7623-2.0045-15.168-0.94041-4.3853-5.4457-5.8136-7.6176-5.8136z"/>
    </g>
    <path d="m300.64 60.468c-1.5002 0.0232-2.8812 1.189-3.3455 3.3543-1.0175 4.7447-2.2348 9.5823-1.7596 13.314 0.40284 3.1636 2.4635 7.5365 8.446 7.5365s8.0437-4.3728 8.4465-7.5365c0.47524-3.7321-0.74208-8.5698-1.7596-13.314-0.82548-3.8494-4.5489-4.5408-6.6869-1.2666-0.93538-1.4325-2.1741-2.1058-3.3409-2.0877z" fill="#fff"/>
    <g fill="#f60">
     <path d="m296.89 86.259h4.4901c0-0.49423-1.2309-1.8461-2.2451-1.8241-1.0904 0.0236-2.2451 0.97708-2.2451 1.8241z"/>
     <path d="m311.08 86.259h-4.4901c0-0.49423 1.2309-1.8461 2.2451-1.8241 1.0904 0.0236 2.2451 0.97708 2.2451 1.8241z"/>
     <path d="m303.99 65.511c-1.4436 0-1.5332 1.4387-1.5332 1.4387l1.5332 1.0583 1.5332-1.0583s-0.0897-1.4387-1.5332-1.4387z"/>
    </g>
    <g transform="translate(-44.012)">
     <path d="m351.21 62.795c0.62007 6.7e-5 1.1226 0.50286 1.1224 1.1229-6e-5 0.61987-0.50254 1.1224-1.1224 1.1224-0.61987-6.7e-5 -1.1224-0.50255-1.1224-1.1224-2.2e-4 -0.62006 0.50234-1.1229 1.1224-1.1229zm0 0.25735c-0.47811-1.63e-4 -0.86574 0.38747-0.86558 0.86558 4.1e-4 0.16554-0.18321-0.5324-0.0935-0.39326 0.15928-0.24739 0.69795-0.59533 0.99218-0.59531 0.29454 3.16e-4 0.65964 0.39021 0.81855 0.6382 0.0898-0.13964-0.97044 0.89672-0.97048 0.7307 1.6e-4 -0.47791 0.59677-1.2458 0.11886-1.2459z" fill="#1a1a1a" style="paint-order:fill markers stroke"/>
     <path d="m344.78 62.795c-0.62007 6.7e-5 -1.1226 0.50286-1.1224 1.1229 6e-5 0.61987 0.50254 1.1224 1.1224 1.1224 0.61987-6.7e-5 1.1224-0.50255 1.1224-1.1224 2.2e-4 -0.62006-0.50234-1.1229-1.1224-1.1229zm0.71934 1.6381c0.47811-1.63e-4 0.1464-0.99333 0.14624-0.51521-4.1e-4 0.16554-0.0483 0.3275-0.13798 0.46664-0.15928-0.24739-0.46644-1.48-0.76067-1.48-0.29454 3.16e-4 -0.53561 1.2336-0.69453 1.4816-0.0898-0.13964 1.5492 0.20219 1.5493 0.03617-1.6e-4 -0.47791-0.58024 0.01098-0.10232 0.01085z" fill="#1a1a1a" style="paint-order:fill markers stroke"/>
     <g fill="#fff" stroke-width="0">
      <path d="m345.09 63.317a0.32246 0.32246 0 0 1-0.3224 0.32246 0.32246 0.32246 0 0 1-0.32253-0.32232 0.32246 0.32246 0 0 1 0.32226-0.3226 0.32246 0.32246 0 0 1 0.32267 0.32218"/>
      <path d="m345.08 64.433a0.50023 0.50023 0 0 1-0.50012 0.50023 0.50023 0.50023 0 0 1-0.50034-0.50001 0.50023 0.50023 0 0 1 0.49991-0.50044 0.50023 0.50023 0 0 1 0.50055 0.4998"/>
      <path d="m351.48 63.247a0.32246 0.32246 0 0 1-0.32239 0.32246 0.32246 0.32246 0 0 1-0.32253-0.32232 0.32246 0.32246 0 0 1 0.32226-0.3226 0.32246 0.32246 0 0 1 0.32266 0.32218"/>
      <path d="m351.47 64.363a0.50023 0.50023 0 0 1-0.50012 0.50023 0.50023 0.50023 0 0 1-0.50034-0.50001 0.50023 0.50023 0 0 1 0.49991-0.50044 0.50023 0.50023 0 0 1 0.50055 0.4998"/>
     </g>
    </g>
   </g>
  </g>
 </g>
</svg>
