<?xml version="1.0" encoding="UTF-8"?>
<svg width="312.81" height="357.56" version="1.1" viewBox="0 0 82.764 94.604" xmlns="http://www.w3.org/2000/svg" xmlns:cc="http://creativecommons.org/ns#" xmlns:dc="http://purl.org/dc/elements/1.1/" xmlns:rdf="http://www.w3.org/1999/02/22-rdf-syntax-ns#">
 <metadata>
  <rdf:RDF>
   <cc:Work rdf:about="">
    <dc:format>image/svg+xml</dc:format>
    <dc:type rdf:resource="http://purl.org/dc/dcmitype/StillImage"/>
    <dc:title/>
    <dc:creator>
     <cc:Agent>
      <dc:title>Artur S</dc:title>
     </cc:Agent>
    </dc:creator>
   </cc:Work>
  </rdf:RDF>
 </metadata>
 <g transform="translate(112.44 -264.06)">
  <g transform="matrix(3.1996 0 0 3.1996 547.6 -426.7)">
   <g>
    <path d="m-193.36 215.89c-2.1719 0-6.6772 1.4283-7.6176 5.8136-0.54586 2.5454-1.1395 5.1126-1.5611 7.5623a1.6838 5.4256 20.505 0 0-2.8618 4.4023 1.6838 5.4256 20.505 0 0-0.32351 5.672 1.6838 5.4256 20.505 0 0 2.714-2.7585c0.0103 0.0959 0.0159 0.19467 0.0279 0.28938 0.45892 3.6041 2.8068 8.586 9.6222 8.586 6.8154 0 9.1632-4.982 9.6222-8.586 0.0122-0.0947 0.0182-0.19342 0.0284-0.28938a5.4256 1.6838 69.495 0 0 2.714 2.7585 5.4256 1.6838 69.495 0 0-0.32351-5.6715 5.4256 1.6838 69.495 0 0-2.8618-4.4028c-0.42167-2.4497-1.0158-5.0169-1.5616-7.5623-0.94041-4.3853-5.4457-5.8136-7.6176-5.8136z" fill="#353942" style="paint-order:fill markers stroke"/>
    <path d="m-200.45 245.44h4.4901c0-0.49423-1.2309-1.8461-2.2451-1.8241-1.0904 0.0236-2.2451 0.97708-2.2451 1.8241z" fill="#f60"/>
    <path d="m-186.26 245.44h-4.4901c0-0.49423 1.2309-1.8461 2.2451-1.8241 1.0904 0.0236 2.2451 0.97708 2.2451 1.8241z" fill="#f60"/>
   </g>
   <path d="m-196.7 219.65c-1.5002 0.0232-2.8817 1.1896-3.346 3.3548-1.0175 4.7447-2.2348 9.5818-1.7596 13.314 0.40284 3.1636 2.464 7.5365 8.4465 7.5365 5.9825 0 8.0437-4.3728 8.4465-7.5365 0.47524-3.7321-0.74208-8.5692-1.7596-13.314-0.82549-3.8494-4.5489-4.5413-6.6869-1.2671-0.93537-1.4325-2.1741-2.1058-3.3409-2.0877z" fill="#fff"/>
   <path d="m-193.36 224.69c-1.4436 0-1.5332 1.4387-1.5332 1.4387l1.5332 1.0583 1.5332-1.0583s-0.0897-1.4387-1.5332-1.4387z" fill="#f60"/>
   <g transform="matrix(.4389 0 0 .4389 -333.26 93.343)">
    <g transform="translate(6.9453 12.634)">
     <path d="m297.77 280.95c4.3558 1.9891 8.3893 4.4863 12.839 5.1324 0 0-4.2864 1.9282-6.361 1.3096-2.9184-0.87016-6.4783-6.442-6.4783-6.442z" fill="#fff"/>
     <path d="m310.8 285.93c-6.3074-1.8124-8.3156-2.9426-14.008-5.4264 6.1628 2.6973 8.9893 5.0948 13.816 5.5698 0.0792 8e-3 0.35366-0.0932 0.19105-0.14336z" fill="#333"/>
     <path d="m308.51 281.85-0.30737 0.82725-7.3661-3.89z" fill="#4d4d4d"/>
     <path transform="matrix(.26458 0 0 .26458 0 138.57)" d="m1143.9 547.08a8.6621 11.314 0 0 0-2.1152 7.3984 8.6621 11.314 0 0 0 0.4238 3.4512c2.5605 2.1144 5.1777 3.7948 7.6738 4.5391 1.8098 0.5396 4.0723 0.55143 6.4707 0.27344a8.6621 11.314 0 0 0 2.7559-8.2637 8.6621 11.314 0 0 0-0.025-0.83399c-5.1049-1.8512-10.137-4.132-15.184-6.5644z" fill="#4d4d4d" style="paint-order:fill markers stroke"/>
    </g>
    <g transform="matrix(-1 0 0 1 630.58 12.634)">
     <path d="m297.77 280.95c4.3558 1.9891 8.3893 4.4863 12.839 5.1324 0 0-4.2864 1.9282-6.361 1.3096-2.9184-0.87016-6.4783-6.442-6.4783-6.442z" fill="#fff"/>
     <path d="m310.8 285.93c-6.3074-1.8124-8.3156-2.9426-14.008-5.4264 6.1628 2.6973 8.9893 5.0948 13.816 5.5698 0.0792 8e-3 0.35366-0.0932 0.19105-0.14336z" fill="#333"/>
     <path d="m308.51 281.85-0.30737 0.82725-7.3661-3.89z" fill="#4d4d4d"/>
     <path transform="matrix(.26458 0 0 .26458 0 138.57)" d="m1143.9 547.08a8.6621 11.314 0 0 0-2.1152 7.3984 8.6621 11.314 0 0 0 0.4238 3.4512c2.5605 2.1144 5.1777 3.7948 7.6738 4.5391 1.8098 0.5396 4.0723 0.55143 6.4707 0.27344a8.6621 11.314 0 0 0 2.7559-8.2637 8.6621 11.314 0 0 0-0.025-0.83399c-5.1049-1.8512-10.137-4.132-15.184-6.5644z" fill="#4d4d4d" style="paint-order:fill markers stroke"/>
    </g>
   </g>
  </g>
 </g>
</svg>
