<?xml version="1.0" encoding="UTF-8"?>
<svg width="93.077" height="161.23" version="1.1" viewBox="0 0 24.627 42.658" xmlns="http://www.w3.org/2000/svg" xmlns:cc="http://creativecommons.org/ns#" xmlns:dc="http://purl.org/dc/elements/1.1/" xmlns:rdf="http://www.w3.org/1999/02/22-rdf-syntax-ns#">
 <metadata>
  <rdf:RDF>
   <cc:Work rdf:about="">
    <dc:format>image/svg+xml</dc:format>
    <dc:type rdf:resource="http://purl.org/dc/dcmitype/StillImage"/>
    <dc:title/>
    <dc:creator>
     <cc:Agent>
      <dc:title>Artur S</dc:title>
     </cc:Agent>
    </dc:creator>
   </cc:Work>
  </rdf:RDF>
 </metadata>
 <g transform="translate(-147.95 -241.65)">
  <g transform="translate(-217.67 198.03)">
   <g transform="translate(12.944)">
    <path d="m362.41 55.544c1.2444 0.47154 2.0223 0.90166 1.8569 1.6536l1.6215 0.072c-0.14478-0.84416-0.0174-1.5654 1.1927-1.8578-1.425 0.0031-1.6459 0.13965-1.8277 1.246-0.84275-0.79881-1.8487-0.93364-2.8434-1.1138z" fill="#353942"/>
    <path d="m364.99 56.712c-2.1719 0-6.6772 1.4283-7.6176 5.8136-1.1591 5.4052-2.5459 10.916-2.0045 15.168 0.45893 3.6041 2.8068 8.586 9.6222 8.586s9.1632-4.982 9.6222-8.586c0.54138-4.2517-0.84539-9.7623-2.0045-15.168-0.94041-4.3853-5.4457-5.8136-7.6176-5.8136z" fill="#353942"/>
    <path d="m361.65 60.468c-1.5002 0.0232-2.8812 1.189-3.3455 3.3543-1.0175 4.7447-2.2348 9.5823-1.7596 13.314 0.40284 3.1636 2.4635 7.5365 8.446 7.5365s8.0437-4.3728 8.4465-7.5365c0.47524-3.7321-0.74208-8.5698-1.7596-13.314-0.82548-3.8494-4.5489-4.5408-6.6869-1.2666-0.93538-1.4325-2.1741-2.1058-3.3409-2.0877z" fill="#fff"/>
    <g fill="#f60">
     <path d="m357.9 86.259h4.4901c0-0.49423-1.2309-1.8461-2.2451-1.8241-1.0904 0.0236-2.2451 0.97708-2.2451 1.8241z"/>
     <path d="m372.09 86.259h-4.4901c0-0.49423 1.2309-1.8461 2.2451-1.8241 1.0904 0.0236 2.2451 0.97708 2.2451 1.8241z"/>
     <path d="m364.99 65.511c-1.4436 0-1.5332 1.4387-1.5332 1.4387l1.5332 1.0583 1.5332-1.0583s-0.0897-1.4387-1.5332-1.4387z"/>
    </g>
    <g>
     <path d="m361.78 62.795c-0.59989 6.6e-5 -1.0857 0.47189-1.1167 1.064 0.24215-0.35798 0.65199-0.5932 1.1167-0.59325 0.46474 5e-5 0.87461 0.23527 1.1167 0.59325-0.031-0.59213-0.51681-1.064-1.1167-1.064z" fill="#1a1a1a" style="paint-order:fill markers stroke"/>
     <path d="m368.21 62.795c-0.59989 6.6e-5 -1.0857 0.47189-1.1167 1.064 0.24214-0.35798 0.65198-0.5932 1.1167-0.59325 0.46474 5e-5 0.87461 0.23527 1.1167 0.59325-0.031-0.59213-0.51681-1.064-1.1167-1.064z" fill="#1a1a1a" style="paint-order:fill markers stroke"/>
     <ellipse transform="rotate(37.72)" cx="326.12" cy="-165.43" rx="1.6838" ry="5.4256" fill="#353942" style="paint-order:fill markers stroke"/>
     <ellipse transform="matrix(-.79101 .61181 .61181 .79101 0 0)" cx="-251.31" cy="281.18" rx="1.6838" ry="5.4256" fill="#353942" style="paint-order:fill markers stroke"/>
    </g>
   </g>
   <g fill="#999">
    <rect x="377.67" y="43.622" width=".52917" height="9.1214" style="paint-order:fill markers stroke"/>
    <rect transform="rotate(18.578)" x="378.12" y="-75.724" width=".52917" height="4.894" style="paint-order:fill markers stroke"/>
    <rect transform="rotate(41.245)" x="325.43" y="-220.18" width=".52917" height="9.1214" style="paint-order:fill markers stroke"/>
    <rect transform="rotate(59.181)" x="247.53" y="-306.4" width=".52917" height="4.894" style="paint-order:fill markers stroke"/>
    <rect transform="matrix(-.94789 .31859 .31859 .94789 0 0)" x="-338.37" y="165.09" width=".52917" height="4.894" style="paint-order:fill markers stroke"/>
    <rect transform="matrix(-.7519 .65928 .65928 .7519 0 0)" x="-242.91" y="278.15" width=".52917" height="9.1214" style="paint-order:fill markers stroke"/>
    <rect transform="matrix(-.51233 .85879 .85879 .51233 0 0)" x="-139.73" y="342.73" width=".52917" height="4.894" style="paint-order:fill markers stroke"/>
   </g>
  </g>
 </g>
</svg>
