<svg id="svg8" width="106.92" height="111.75" version="1.1" viewBox="0 0 28.289 29.567" xmlns="http://www.w3.org/2000/svg" xmlns:xlink="http://www.w3.org/1999/xlink">
 <defs id="defs2">
  <linearGradient id="linearGradient1576" x1="232.4" x2="232.4" y1="580.47" y2="619.54" gradientTransform="matrix(.1313 0 0 .1313 -81.964 115.77)" gradientUnits="userSpaceOnUse" xlink:href="#linearGradient1464"/>
  <linearGradient id="linearGradient1464">
   <stop id="stop1460" style="stop-color:#2ad4ff" offset="0"/>
   <stop id="stop1462" style="stop-color:#2ad4ff;stop-opacity:0" offset="1"/>
  </linearGradient>
  <linearGradient id="linearGradient1578" x1="232.4" x2="232.4" y1="580.47" y2="619.54" gradientTransform="matrix(.1313 0 0 .1313 13.115 115.77)" gradientUnits="userSpaceOnUse" xlink:href="#linearGradient1464"/>
 </defs>
 <g id="layer1" transform="translate(-51.623 -86.425)">
  <g id="g1652" transform="translate(510.49 68.627)">
   <ellipse id="ellipse1519" transform="matrix(-.4551 .89044 .89044 .4551 0 0)" cx="227.91" cy="-372.56" rx="1.6838" ry="5.4256" style="fill:#353942;paint-order:fill markers stroke"/>
   <ellipse id="ellipse1521" transform="rotate(20.505)" cx="-414.81" cy="193.75" rx="1.6838" ry="5.4256" style="fill:#353942;paint-order:fill markers stroke"/>
   <path id="path1523" d="m-445.93 17.798c-2.1719 0-6.6772 1.4283-7.6176 5.8136-1.1592 5.4052-2.5459 10.916-2.0045 15.168 0.45893 3.6041 2.8068 8.586 9.6222 8.586s9.1632-4.982 9.6222-8.586c0.54138-4.2517-0.84539-9.7623-2.0045-15.168-0.94041-4.3853-5.4457-5.8136-7.6176-5.8136z" style="fill:#353942"/>
   <path id="path1525" d="m-449.27 21.554c-1.5002 0.0232-2.8812 1.189-3.3455 3.3543-1.0175 4.7447-2.2348 9.5823-1.7596 13.314 0.40284 3.1636 2.4635 7.5365 8.446 7.5365s8.0437-4.3728 8.4465-7.5365c0.47524-3.7321-0.74208-8.5698-1.7596-13.314-0.82548-3.8494-4.5489-4.5408-6.6869-1.2666-0.93538-1.4325-2.1741-2.1058-3.3409-2.0877z" style="fill:#fff"/>
   <path id="path1527" d="m-453.03 47.345h4.4901c0-0.49423-1.2309-1.8461-2.2451-1.8241-1.0904 0.0236-2.2451 0.97708-2.2451 1.8241z" style="fill:#f60"/>
   <path id="path1529" d="m-449.14 24.192a1.1225 1.1225 0 0 0-1.1224 1.1229 1.1225 1.1225 0 0 0 1.1224 1.1224 1.1225 1.1225 0 0 0 1.1224-1.1224 1.1225 1.1225 0 0 0-1.1224-1.1229zm0 0.25735a0.86528 0.86528 0 0 1 0.86558 0.86558 0.86528 0.86528 0 0 1-0.13798 0.46664 0.86528 0.86528 0 0 0-0.7276-0.39687 0.86528 0.86528 0 0 0-0.7276 0.39842 0.86528 0.86528 0 0 1-0.13746-0.46819 0.86528 0.86528 0 0 1 0.86506-0.86558z" style="fill:#1a1a1a;paint-order:fill markers stroke"/>
   <path id="path1531" d="m-438.83 47.345h-4.4901c0-0.49423 1.2309-1.8461 2.2451-1.8241 1.0904 0.0236 2.2451 0.97708 2.2451 1.8241z" style="fill:#f60"/>
   <path id="path1533" d="m-442.72 24.192a1.1225 1.1225 0 0 1 1.1224 1.1229 1.1225 1.1225 0 0 1-1.1224 1.1224 1.1225 1.1225 0 0 1-1.1224-1.1224 1.1225 1.1225 0 0 1 1.1224-1.1229zm0 0.25735a0.86528 0.86528 0 0 0-0.86558 0.86558 0.86528 0.86528 0 0 0 0.13798 0.46664 0.86528 0.86528 0 0 1 0.7276-0.39687 0.86528 0.86528 0 0 1 0.7276 0.39842 0.86528 0.86528 0 0 0 0.13746-0.46819 0.86528 0.86528 0 0 0-0.86506-0.86558z" style="fill:#1a1a1a;paint-order:fill markers stroke"/>
   <path id="path1535" d="m-445.93 26.596c-1.4436 0-1.5332 1.4387-1.5332 1.4387l1.5332 1.0583 1.5332-1.0583s-0.0897-1.4387-1.5332-1.4387z" style="fill:#f60"/>
   <g id="g1574" transform="translate(-398.36 -168.46)">
    <circle id="circle1568" cx="-51.462" cy="194.59" r="2.6114" style="fill:url(#linearGradient1576);paint-order:fill markers stroke"/>
    <circle id="circle1570" transform="scale(-1,1)" cx="43.617" cy="194.59" r="2.6114" style="fill:url(#linearGradient1578);paint-order:fill markers stroke"/>
    <path id="path1572" transform="matrix(.26458 0 0 .26458 0 138.25)" d="m-194.5 201.52c-2.2885 4e-3 -4.7301 0.97858-6.4121 1.9883-1.682 1.0097-3.1472 1.8441-4.2109 2.5117-1.0637 0.66758-1.4658 0.68945-1.9434 0.68945l-2.2246-0.0117c-0.12402 0.57062-0.24665 1.1383-0.3711 1.709 0.12759 0.0313 0.8799 0.26397 0.94141 0.27734 2.8512 0.61671 2.6191 2.6006 2.8164 4.3926l4e-3 -8e-3c0.078 6.2411 5.1587 11.26 11.4 11.262 6.2989 8e-5 11.404-5.1054 11.404-11.404 2e-5 -1.8867-0.45843-3.6669-1.2695-5.2344 3.2429-0.92368 6.3806-1.002 9.3828 0-0.8111 1.5675-1.2696 3.3476-1.2695 5.2344-6e-5 6.2989 5.1074 11.404 11.406 11.404 6.2416-2e-3 11.32-5.0206 11.398-11.262l4e-3 8e-3c0.19654-1.7847-0.0313-3.7595 2.7832-4.3848 0.0687-0.0138 0.61312-0.11801 0.77539-0.14843-0.1363-0.62477-0.27047-1.2464-0.40625-1.8711l-1.9883 0.0371c-0.4775 8e-3 -0.87962-0.0222-1.9434-0.68945-1.0638-0.66766-2.5289-1.502-4.2109-2.5117-1.682-1.0097-4.1236-1.9844-6.4121-1.9883-3.6472 4e-5 -6.8947 1.7127-8.9824 4.377h-0.60742c-3.3641-0.71577-6.8109-0.962-10.475 0h-0.60742c-2.0879-2.6643-5.3352-4.3769-8.9824-4.377zm0 1.8066c5.3015-4e-5 9.5996 4.2981 9.5996 9.5996 3e-5 5.3015-4.2981 9.5996-9.5996 9.5996-5.3015 3e-5 -9.5996-4.2981-9.5996-9.5996-2e-5 -5.3015 4.2981-9.5996 9.5996-9.5996zm29.652 0c5.3015-4e-5 9.5996 4.2981 9.5996 9.5996 2e-5 5.3015-4.2981 9.5996-9.5996 9.5996-5.3015 3e-5 -9.5977-4.2981-9.5977-9.5996-3e-5 -5.3015 4.2962-9.5996 9.5977-9.5996z" style="fill:#333;paint-order:fill markers stroke"/>
   </g>
  </g>
 </g>
</svg>
