<svg id="svg8" width="284.54" height="491.82" version="1.1" viewBox="0 0 75.286 130.13" xmlns="http://www.w3.org/2000/svg">
 <g id="layer1" transform="translate(-44.756 -131.39)">
  <g id="g84496" transform="matrix(2.8294 0 0 2.8294 730.07 -4.0733)">
   <g id="g84472">
    <ellipse id="ellipse247" transform="matrix(.78295 .62209 .62209 -.78295 0 0)" cx="-123.95" cy="-196.39" rx="1.6838" ry="5.4256" style="fill:#353942;paint-order:fill markers stroke"/>
    <ellipse id="ellipse249" transform="rotate(20.505)" cx="-195.59" cy="161.41" rx="1.6838" ry="5.4256" style="fill:#353942;paint-order:fill markers stroke"/>
    <path id="path251" d="m-229.27 64.301c-2.1719 0-6.6772 1.4283-7.6176 5.8136-1.1591 5.4052-2.5459 10.916-2.0045 15.168 0.45893 3.6041 2.8068 8.586 9.6222 8.586s9.1632-4.982 9.6222-8.586c0.54138-4.2517-0.84539-9.7623-2.0045-15.168-0.94041-4.3853-5.4457-5.8136-7.6176-5.8136z" style="fill:#353942"/>
    <path id="path253" d="m-232.62 68.057c-1.5002 0.0232-2.8812 1.189-3.3455 3.3543-1.0175 4.7447-2.2348 9.5823-1.7596 13.314 0.40284 3.1636 2.4635 7.5365 8.446 7.5365s8.0437-4.3728 8.4465-7.5365c0.47524-3.7321-0.74208-8.5698-1.7596-13.314-0.82548-3.8494-4.5489-4.5408-6.6869-1.2666-0.93538-1.4325-2.1741-2.1058-3.3409-2.0877z" style="fill:#fff"/>
    <path id="path255" d="m-236.37 93.848h4.4901c0-0.49423-1.2309-1.8461-2.2451-1.8241-1.0904 0.0236-2.2451 0.97708-2.2451 1.8241z" style="fill:#f60"/>
    <path id="path259" d="m-222.18 93.848h-4.4901c0-0.49423 1.2309-1.8461 2.2451-1.8241 1.0904 0.0236 2.2451 0.97708 2.2451 1.8241z" style="fill:#f60"/>
    <ellipse id="ellipse1389" cx="-226.79" cy="73.422" rx="2.2129" ry="2.8921" style="fill:#353942;paint-order:fill markers stroke"/>
    <ellipse id="ellipse1391" cx="-226.83" cy="73.422" rx="2.0769" ry="2.7576" style="fill:#fff;paint-order:fill markers stroke"/>
    <ellipse id="ellipse1395" transform="rotate(-8.0859)" cx="-239.1" cy="40.65" rx="2.5362" ry="3.237" style="fill:#353942;paint-order:fill markers stroke"/>
    <ellipse id="ellipse1397" transform="matrix(.98921 -.14651 .13503 .99084 0 0)" cx="-238.85" cy="39.243" rx="2.3216" ry="3.084" style="fill:#fff;paint-order:fill markers stroke"/>
    <ellipse id="path1401" cx="-227.1" cy="74.445" rx=".34483" ry=".62292" style="fill:#1a1a1a;paint-order:fill markers stroke"/>
    <ellipse id="ellipse1403" transform="rotate(-14.102)" cx="-241.81" cy="16.393" rx=".34483" ry=".62292" style="fill:#1a1a1a;paint-order:fill markers stroke"/>
    <path id="path1405" d="m-233.8 70.448c0.98806-0.83858 1.9032-1.1421 2.8032-1.3348-0.96306-0.77655-2.6659 0.19285-2.8032 1.3348z" style="fill:#1a1a1a"/>
    <path id="path1418" d="m-225.36 70.039c-0.95118-0.58833-1.8682-0.82977-2.5514-0.82573 0.55116-1.0738 1.8145-0.27135 2.5514 0.82573z" style="fill:#1a1a1a"/>
    <path id="path263" d="m-228.85 77.029c-1.4436 0-1.5332 1.4387-1.5332 1.4387l1.5332 1.0583 1.5332-1.0583s-0.0897-1.4387-1.5332-1.4387z" style="fill:#f60"/>
   </g>
   <text id="text84369" x="-233.94899" y="60.627083" style="fill:#ff6600;font-family:sans-serif;font-size:17.512px;letter-spacing:0px;line-height:1.25;stroke-width:.091209;word-spacing:0px" xml:space="preserve"><tspan id="tspan84367" x="-233.94899" y="60.627083" style="fill:#ff6600;font-family:'Arial Black';stroke-width:.091209">?</tspan></text>
   <text id="text84390" transform="rotate(-35.344)" x="-230.72961" y="-86.13961" style="fill:#ff6600;font-family:sans-serif;font-size:10.446px;letter-spacing:0px;line-height:1.25;stroke-width:.054408;word-spacing:0px" xml:space="preserve"><tspan id="tspan84388" x="-230.72961" y="-86.13961" style="fill:#ff6600;font-family:'Arial Black';stroke-width:.054408">?</tspan></text>
   <text id="text84394" transform="rotate(31.576)" x="-159.86205" y="168.82918" style="fill:#ff6600;font-family:sans-serif;font-size:10.275px;letter-spacing:0px;line-height:1.25;stroke-width:.053517;word-spacing:0px" xml:space="preserve"><tspan id="tspan84392" x="-159.86205" y="168.82918" style="fill:#ff6600;font-family:'Arial Black';stroke-width:.053517">?</tspan></text>
  </g>
 </g>
</svg>
