<svg id="svg8" width="294.3" height="463.71" version="1.1" viewBox="0 0 77.866 122.69" xmlns="http://www.w3.org/2000/svg">
 <g id="layer1" transform="translate(-44.756 -138.83)">
  <g id="g85430">
   <path id="ellipse247" transform="matrix(.26458 0 0 .26458 44.756 131.39)" d="m265.09 265.33a18.006 58.021 38.469 0 0-33.396 31.195 18.006 58.021 38.469 0 0-21.996 56.629 18.006 58.021 38.469 0 0 50.191-34.225 18.006 58.021 38.469 0 0 19.877-31.773l-5.2695 2.0449z" style="fill:#353942;paint-order:fill markers stroke"/>
   <ellipse id="ellipse249" transform="rotate(20.505)" cx="128.98" cy="197.15" rx="4.7642" ry="15.351" style="fill:#353942;paint-order:fill markers stroke"/>
   <path id="path251" d="m81.35 177.86c-6.1453 0-18.893 4.0414-21.554 16.449-3.2797 15.294-7.2035 30.886-5.6717 42.916 1.2985 10.198 7.9416 24.294 27.225 24.294 19.284 0 25.927-14.096 27.225-24.294 1.5318-12.03-2.392-27.622-5.6717-42.916-2.6608-12.408-15.408-16.449-21.554-16.449z" style="fill:#353942"/>
   <path id="path253" d="m71.897 188.49c-4.2447 0.0657-8.1522 3.3643-9.466 9.4909-2.879 13.425-6.3233 27.113-4.9786 37.672 1.1398 8.9514 6.9703 21.324 23.897 21.324s22.759-12.373 23.899-21.324c1.3447-10.56-2.0997-24.248-4.9786-37.672-2.3356-10.892-12.871-12.848-18.92-3.5837-2.6466-4.0531-6.1514-5.9581-9.4528-5.9071z" style="fill:#fff"/>
   <path id="path255" d="m61.272 261.46h12.705c0-1.3984-3.4828-5.2234-6.3523-5.1612-3.0851 0.0668-6.3523 2.7646-6.3523 5.1612z" style="fill:#f60"/>
   <path id="path259" d="m101.43 261.46h-12.705c0-1.3984 3.4828-5.2234 6.3523-5.1612 3.0851 0.0668 6.3523 2.7646 6.3523 5.1612z" style="fill:#f60"/>
   <g id="g85258">
    <rect id="rect85091" transform="rotate(-18.034)" x="44.748" y="184.21" width="4.5316" height="59.249" rx="2.2658" ry="2.2658" style="fill:#333;paint-order:fill markers stroke"/>
    <rect id="rect85093" transform="rotate(-18.034)" x="44.748" y="184.21" width="4.5316" height="56.365" rx="2.2658" ry="2.2658" style="fill:#4d4d4d;paint-order:fill markers stroke"/>
    <rect id="rect85095" transform="rotate(-18.034)" x="44.748" y="184.21" width="4.5316" height="21.073" rx="0" ry="0" style="fill:#ccc;paint-order:fill markers stroke"/>
    <g id="g85113" transform="matrix(.24676 -.080339 .080339 .24676 240.66 -16.742)" style="fill:#f60">
     <path id="path85097" transform="rotate(-6.0942 473.68 1708.9)" d="m-558.5 406.53c-6.0796 3.5101-20.82-17.83-27.801-18.564-6.9817-0.7338-25.836 17.075-31.053 12.378-5.217-4.6974 10.524-25.31 9.0641-32.177-1.4596-6.8668-24.223-19.295-21.368-25.708 2.8554-6.4132 27.324 2.1873 33.403-1.3228s10.865-29 17.847-28.267c6.9817 0.7338 6.3632 26.662 11.58 31.36 5.217 4.6974 30.939 1.372 32.398 8.2388 1.4596 6.8668-23.391 14.291-26.246 20.704-2.8554 6.4132 8.2557 29.848 2.1761 33.358z" style="fill:#f60;paint-order:fill markers stroke"/>
     <g id="g85111" transform="translate(-129.53 224.37)" style="fill:#f60">
      <path id="path85099" transform="matrix(.26458 0 0 .26458 0 138.57)" d="m-2234 124.66a3.0003 2.1212 0 0 0-2.9531 2.1484v79.787a242.08 229.51 0 0 1 3-0.10156 242.08 229.51 0 0 1 3.002 0.14258v-79.828a3.0003 2.1212 0 0 0-3.0489-2.1484zm-308.25 264.5a3.001 3.001 0 1 0 0 6.002h70.287a242.08 229.51 0 0 1 1.0938-6.002zm545.01 0a242.08 229.51 0 0 1 1.4219 6.002h70.174a3.001 3.001 0 1 0 0-6.002z" style="color-rendering:auto;color:#000000;dominant-baseline:auto;fill:#f60;font-feature-settings:normal;font-variant-alternates:normal;font-variant-caps:normal;font-variant-ligatures:normal;font-variant-numeric:normal;font-variant-position:normal;image-rendering:auto;isolation:auto;mix-blend-mode:normal;shape-padding:0;shape-rendering:auto;solid-color:#000000;text-decoration-color:#000000;text-decoration-line:none;text-decoration-style:solid;text-indent:0;text-orientation:mixed;text-transform:none;white-space:normal"/>
      <g id="g85109" style="fill:#f60">
       <path id="path85101" transform="matrix(.26458 0 0 .26458 0 138.57)" d="m-2452 214.97a3.0003 3.0003 0 0 0-2.0878 5.1523l112 111.99a154 146 0 0 1 4.545-3.9414l-112.3-112.3a3.0003 3.0003 0 0 0-2.1563-0.9082z" style="color-rendering:auto;color:#000000;dominant-baseline:auto;fill:#f60;font-feature-settings:normal;font-variant-alternates:normal;font-variant-caps:normal;font-variant-ligatures:normal;font-variant-numeric:normal;font-variant-position:normal;image-rendering:auto;isolation:auto;mix-blend-mode:normal;shape-padding:0;shape-rendering:auto;solid-color:#000000;text-decoration-color:#000000;text-decoration-line:none;text-decoration-style:solid;text-indent:0;text-orientation:mixed;text-transform:none;white-space:normal"/>
       <path id="path85103" transform="matrix(.26458 0 0 .26458 0 138.57)" d="m-2045.6 188.79a3.0003 3.0003 0 0 0-2.5312 1.2031l-97.51 126.5a154 146 0 0 1 4.8691 3.5098l97.395-126.35a3.0003 3.0003 0 0 0-2.2227-4.8652z" style="color-rendering:auto;color:#000000;dominant-baseline:auto;fill:#f60;font-feature-settings:normal;font-variant-alternates:normal;font-variant-caps:normal;font-variant-ligatures:normal;font-variant-numeric:normal;font-variant-position:normal;image-rendering:auto;isolation:auto;mix-blend-mode:normal;shape-padding:0;shape-rendering:auto;solid-color:#000000;text-decoration-color:#000000;text-decoration-line:none;text-decoration-style:solid;text-indent:0;text-orientation:mixed;text-transform:none;white-space:normal"/>
       <path id="path85105" transform="matrix(.26458 0 0 .26458 0 138.57)" d="m-2378 487.71-145.16 55.389a3.0024 3.0024 0 1 0 2.1406 5.6094l145.47-55.506a154 146 0 0 1-2.4473-5.4922z" style="color-rendering:auto;color:#000000;dominant-baseline:auto;fill:#f60;font-feature-settings:normal;font-variant-alternates:normal;font-variant-caps:normal;font-variant-ligatures:normal;font-variant-numeric:normal;font-variant-position:normal;image-rendering:auto;isolation:auto;mix-blend-mode:normal;shape-padding:0;shape-rendering:auto;solid-color:#000000;text-decoration-color:#000000;text-decoration-line:none;text-decoration-style:solid;text-indent:0;text-orientation:mixed;text-transform:none;white-space:normal"/>
       <path id="path85107" transform="matrix(.26458 0 0 .26458 0 138.57)" d="m-2089.9 486.95a154 146 0 0 1-2.1563 5.5996l145.57 54.717a3.0003 3.0003 0 0 0 3.0566-5.0606 3.0003 3.0003 0 0 0-0.9492-0.55469z" style="color-rendering:auto;color:#000000;dominant-baseline:auto;fill:#f60;font-feature-settings:normal;font-variant-alternates:normal;font-variant-caps:normal;font-variant-ligatures:normal;font-variant-numeric:normal;font-variant-position:normal;image-rendering:auto;isolation:auto;mix-blend-mode:normal;shape-padding:0;shape-rendering:auto;solid-color:#000000;text-decoration-color:#000000;text-decoration-line:none;text-decoration-style:solid;text-indent:0;text-orientation:mixed;text-transform:none;white-space:normal"/>
      </g>
     </g>
    </g>
   </g>
   <path id="path85117" d="m117.17 200.57c1.588 0.52706 2.7496 5.2055 1.9844 5.9531 0 0-2.6981-0.15546-3.2081-1.141-0.73732-1.4248 1.2237-4.8121 1.2237-4.8121z" style="fill:#353942"/>
   <g id="g85213" transform="translate(-.46042)">
    <path id="path1502" d="m72.711 196.93a3.1778 3.1778 0 0 0-3.1774 3.1789 3.1778 3.1778 0 0 0 3.1774 3.1775 3.1778 3.1778 0 0 0 3.1774-3.1775 3.1778 3.1778 0 0 0-3.1774-3.1789zm0 0.72854a2.4495 2.4495 0 0 1 2.4504 2.4504 2.4495 2.4495 0 0 1-0.39061 1.321 2.4495 2.4495 0 0 0-2.0598-1.1235 2.4495 2.4495 0 0 0-2.0598 1.1279 2.4495 2.4495 0 0 1-0.38914-1.3254 2.4495 2.4495 0 0 1 2.4489-2.4504z" style="fill:#1a1a1a;paint-order:fill markers stroke"/>
    <path id="path1506" d="m90.91 196.93a3.1778 3.1778 0 0 1 3.1774 3.1789 3.1778 3.1778 0 0 1-3.1774 3.1775 3.1778 3.1778 0 0 1-3.1774-3.1775 3.1778 3.1778 0 0 1 3.1774-3.1789zm0 0.72854a2.4495 2.4495 0 0 0-2.4504 2.4504 2.4495 2.4495 0 0 0 0.39061 1.321 2.4495 2.4495 0 0 1 2.0598-1.1235 2.4495 2.4495 0 0 1 2.0598 1.1279 2.4495 2.4495 0 0 0 0.38914-1.3254 2.4495 2.4495 0 0 0-2.4489-2.4504z" style="fill:#1a1a1a;paint-order:fill markers stroke"/>
    <path id="path1508" d="m81.81 203.74c-4.0866 0-4.3404 4.0728-4.3404 4.0728l4.3404 2.9961 4.3405-2.9961s-0.25393-4.0728-4.3405-4.0728z" style="fill:#f60"/>
   </g>
  </g>
 </g>
</svg>
