<svg id="ey2kgd74p0b1" xmlns="http://www.w3.org/2000/svg" xmlns:xlink="http://www.w3.org/1999/xlink" viewBox="0 0 228.600010 261.408330" shape-rendering="geometricPrecision" text-rendering="geometricPrecision"><style><![CDATA[#ey2kgd74p0b88_tr {animation: ey2kgd74p0b88_tr__tr 2500ms linear infinite normal forwards}@keyframes ey2kgd74p0b88_tr__tr { 0% {transform: translate(101.733498px,222.403023px) rotate(0deg)} 40% {transform: translate(101.733498px,222.403023px) rotate(14.230519deg)} 80% {transform: translate(101.733498px,222.403023px) rotate(-13.735610deg)} 100% {transform: translate(101.733498px,222.403023px) rotate(0deg)} }]]></style><defs><linearGradient id="ey2kgd74p0b65-fill" x1="123.672819" y1="418.458697" x2="123.672819" y2="429.983168" spreadMethod="pad" gradientUnits="userSpaceOnUse"><stop id="ey2kgd74p0b65-fill-0" offset="0%" stop-color="rgb(42,212,255)"/><stop id="ey2kgd74p0b65-fill-1" offset="100%" stop-color="rgba(42,212,255,0)"/></linearGradient><linearGradient id="ey2kgd74p0b66-fill" x1="-135.980086" y1="418.458697" x2="-135.980086" y2="429.983168" spreadMethod="pad" gradientUnits="userSpaceOnUse"><stop id="ey2kgd74p0b66-fill-0" offset="0%" stop-color="rgb(42,212,255)"/><stop id="ey2kgd74p0b66-fill-1" offset="100%" stop-color="rgba(42,212,255,0)"/></linearGradient></defs><g id="ey2kgd74p0b2"><g id="ey2kgd74p0b3"><g id="ey2kgd74p0b4"><g id="ey2kgd74p0b5"><g id="ey2kgd74p0b6" transform="matrix(1 0 0 1 924.02400000000000 188.77500000000001)"><path id="ey2kgd74p0b7" d="M-768.270000,-98.800000C-786.350000,-98.800000,-800.910000,-86.940000,-800.910000,-72.200000L-800.910000,-70.100000L-734.390000,-70.100000L-734.390000,-72.200000C-734.390000,-86.940000,-748.950000,-98.800000,-767.030000,-98.800000Z" paint-order="fill markers stroke" fill="rgb(186,0,255)" stroke="none" stroke-width="1"/><rect id="ey2kgd74p0b8" width="12.218000" height="27.894000" rx="0" ry="6.109000" transform="matrix(1 0 0 1 -773.75500000000000 -113.79900000000001)" paint-order="fill markers stroke" fill="rgb(255,200,178)" stroke="none" stroke-width="1"/><path id="ey2kgd74p0b9" d="M-767.650000,-116.300000C-771.030000,-116.300000,-773.750000,-113.580000,-773.750000,-110.200000L-773.750000,-101.570000C-772.210000,-101.290000,-770.620000,-101.130000,-768.990000,-101.130000L-766.290000,-101.130000C-764.660000,-101.130000,-763.070000,-101.290000,-761.530000,-101.570000L-761.530000,-110.190000C-761.530000,-113.570000,-764.250000,-116.290000,-767.630000,-116.290000Z" paint-order="fill markers stroke" fill="rgb(250,187,163)" stroke="none" stroke-width="1"/><path id="ey2kgd74p0b10" d="M-769.120000,-170.850000C-782.200000,-170.850000,-792.740000,-160.320000,-792.740000,-147.230000L-792.740000,-135.280000C-793.040000,-135.360000,-793.340000,-135.380000,-793.640000,-135.400000C-796.410000,-135.400000,-798.660000,-132.360000,-798.660000,-128.600000C-798.660000,-124.860000,-796.410000,-121.820000,-793.630000,-121.820000C-792.970000,-121.820000,-792.310000,-122,-791.700000,-122.350000C-788.740000,-112.680000,-779.780000,-105.690000,-769.120000,-105.690000L-766.180000,-105.690000C-755.520000,-105.690000,-746.550000,-112.670000,-743.580000,-122.340000C-742.980000,-121.990000,-742.320000,-121.810000,-741.660000,-121.810000C-738.880000,-121.810000,-736.640000,-124.850000,-736.630000,-128.610000C-736.630000,-132.350000,-738.880000,-135.390000,-741.660000,-135.390000C-741.960000,-135.390000,-742.260000,-135.350000,-742.560000,-135.270000L-742.560000,-147.220000C-742.560000,-160.320000,-753.090000,-170.840000,-766.180000,-170.840000Z" paint-order="fill markers stroke" fill="rgb(255,200,178)" stroke="none" stroke-width="1"/><g id="ey2kgd74p0b11" transform="matrix(1.43700000000000 0 0 1.43700000000000 -809.02300000000002 -616.19200000000001)"><ellipse id="ey2kgd74p0b12" rx="2.173000" ry="4.441000" transform="matrix(1 0 0 1 23.13100000000000 333.81500000000000)" paint-order="fill markers stroke" fill="rgb(51,51,51)" stroke="none" stroke-width="1"/><ellipse id="ey2kgd74p0b13" rx="2.173000" ry="4.441000" transform="matrix(1 0 0 1 34.47000000000000 333.81500000000000)" paint-order="fill markers stroke" fill="rgb(51,51,51)" stroke="none" stroke-width="1"/></g><g id="ey2kgd74p0b14" transform="matrix(1.43700000000000 0 0 1.43700000000000 -809.02300000000002 -616.19200000000001)"><rect id="ey2kgd74p0b15" width="6.142000" height="1.606000" rx="0" ry="0.803000" transform="matrix(1 0 0 1 19.11500000000000 326.48899999999998)" paint-order="fill markers stroke" fill="rgb(77,77,77)" stroke="none" stroke-width="1"/><rect id="ey2kgd74p0b16" width="6.142000" height="1.606000" rx="0" ry="0.803000" transform="matrix(1 0 0 1 32.34500000000000 326.48899999999998)" paint-order="fill markers stroke" fill="rgb(77,77,77)" stroke="none" stroke-width="1"/></g><path id="ey2kgd74p0b17" d="M-775.960000,-178.900000C-778.113240,-178.968296,-780.141305,-177.146863,-781.260000,-174.140000C-782.000605,-174.482338,-782.775863,-174.667726,-783.560000,-174.690000C-787.535089,-174.800355,-790.995413,-170.764741,-791.620000,-165.290000C-793.057182,-164.764050,-794.450050,-163.972026,-795.700000,-162.970000C-797.962091,-161.154048,-799.612528,-158.765725,-800.287768,-156.331109C-800.963008,-153.896492,-800.607662,-151.615296,-799.300000,-149.990000C-798.730702,-149.286750,-797.996585,-148.725168,-797.130000,-148.330000C-797.573423,-146.776694,-797.814004,-145.023884,-797.830000,-143.230000C-797.852125,-140.362055,-797.299422,-137.582027,-796.293843,-135.503331C-795.288265,-133.424636,-793.912460,-132.218119,-792.470000,-132.150000C-791.027252,-132.071146,-789.634298,-133.137202,-788.598640,-135.112832C-787.562982,-137.088462,-786.969785,-139.811205,-786.950000,-142.680000C-786.933977,-145.036822,-787.306252,-147.347737,-788.010000,-149.260000C-787.259391,-149.673113,-786.537632,-150.156523,-785.860000,-150.700000C-785.064472,-151.340007,-784.337403,-152.056977,-783.700000,-152.830000C-781.640454,-152.939549,-779.679905,-154.167585,-778.240000,-156.250000C-776.969316,-155.876288,-775.616693,-155.629434,-774.240000,-155.520000C-771.164717,-155.286946,-768.141286,-155.751540,-765.780000,-156.820000C-764.508292,-156.449676,-763.155706,-156.206211,-761.780000,-156.100000C-759.988756,-155.966793,-758.199352,-156.069240,-756.540000,-156.400000C-756.069901,-155.613521,-755.531941,-154.840204,-754.940000,-154.100000C-752.749821,-151.397377,-750.017435,-149.364839,-747.600000,-148.640000C-748.096467,-147.014202,-748.365630,-145.150771,-748.380000,-143.240000C-748.404863,-140.372041,-747.854738,-137.589845,-746.851023,-135.507369C-745.847307,-133.424894,-744.472505,-132.213316,-743.030000,-132.140000C-740.033013,-131.998147,-737.571380,-136.711057,-737.530000,-142.670000C-737.503174,-146.038703,-738.268754,-149.256358,-739.600000,-151.370000C-738.154233,-153.087286,-738.002827,-156.354467,-739.220000,-159.570000C-739.845104,-161.224234,-740.784597,-162.731631,-741.900000,-163.870000C-741.320950,-166.269332,-741.739566,-168.325039,-743.020000,-169.370000C-743.885506,-170.070973,-745.081295,-170.260893,-746.420000,-169.910000C-747.309059,-171.522338,-748.714329,-173.061109,-750.420000,-174.290000C-754.056859,-176.887038,-758.327214,-177.591854,-760.720000,-175.990000C-761.857687,-176.665734,-763.155077,-177.198347,-764.520000,-177.550000C-767.485027,-178.288726,-770.492770,-178.110489,-772.620000,-177.070000C-773.588213,-178.207709,-774.753277,-178.835588,-775.960000,-178.870000Z" paint-order="fill markers stroke" fill="rgb(51,51,51)" stroke="none" stroke-width="1"/><g id="ey2kgd74p0b18" transform="matrix(1.43700000000000 0 0 1.43700000000000 -1369.64000000000010 -615.07799999999997)"><ellipse id="ey2kgd74p0b19" rx="2.606000" ry="1.069000" transform="matrix(1 0 0 1 411.14200000000000 339.66800000000001)" paint-order="fill markers stroke" fill="rgb(235,159,155)" stroke="none" stroke-width="1"/><ellipse id="ey2kgd74p0b20" rx="2.606000" ry="1.069000" transform="matrix(1 0 0 1 426.91100000000000 339.66800000000001)" paint-order="fill markers stroke" fill="rgb(235,159,155)" stroke="none" stroke-width="1"/><path id="ey2kgd74p0b21" d="M421.970000,339C421.500311,340.193034,420.364555,340.976587,419.100000,340.980000C417.830573,340.973324,416.693431,340.180891,416.230000,338.980000C416.082870,339.355357,416.008180,339.755970,416.010000,340.160000C416.010000,340.995432,416.336606,341.796647,416.917969,342.387386C417.499332,342.978126,418.287829,343.310000,419.110000,343.310000C420.818247,343.310009,422.204577,341.905790,422.210000,340.170000C422.207384,339.768673,422.129317,339.371551,421.980000,339Z" paint-order="fill markers stroke" fill="rgb(235,159,155)" stroke="none" stroke-width="1"/><path id="ey2kgd74p0b22" d="M414.480000,346.300000C414.248118,346.295493,414.040239,346.442275,413.966898,346.662299C413.893556,346.882323,413.971790,347.124477,414.160000,347.260000C415.960000,348.690000,417.400000,349.540000,418.960000,349.560000C420.520000,349.600000,422.060000,348.800000,424.030000,347.260000C424.199243,347.152828,424.293600,346.959392,424.273876,346.760043C424.254152,346.560694,424.123718,346.389500,423.936755,346.317572C423.749791,346.245643,423.538249,346.285273,423.390000,346.420000C421.460000,347.920000,420.150000,348.520000,418.970000,348.520000C417.790000,348.490000,416.570000,347.820000,414.810000,346.420000C414.711499,346.348640,414.591451,346.313331,414.470000,346.320000Z" fill="rgb(235,159,155)" stroke="none" stroke-width="1"/></g></g><g id="ey2kgd74p0b23" transform="matrix(1.43700000000000 0 0 1.43700000000000 1277.54999999999995 424.27100000000002)"><path id="ey2kgd74p0b24" d="M-790.200000,-219.920000C-798.140000,-219.920000,-801.140000,-203.520000,-797.640000,-195.920000C-792.840000,-185.470000,-792.470000,-173.090000,-802.590000,-172.620000C-795.930000,-167.050000,-786.370000,-166.570000,-784.240000,-175.770000C-783.960000,-176.970000,-783.720000,-178.140000,-783.510000,-179.330000L-787.570000,-187.510000L-787.690000,-191.060000L-787.760000,-193.130000L-787.560000,-202.490000L-783.360000,-210.250000L-781.680000,-214.450000L-781.460000,-214.950000C-781.576188,-215.281037,-781.751722,-215.578094,-781.980000,-215.830000C-782.469334,-216.360495,-783.174151,-216.663566,-783.980000,-216.690000C-784.208545,-216.699035,-784.442957,-216.685641,-784.680000,-216.650000C-786.180000,-218.350000,-788.200000,-219.930000,-790.180000,-219.930000ZM-751.800000,-219.920000C-753.780000,-219.920000,-755.800000,-218.350000,-757.300000,-216.640000C-757.537043,-216.675641,-757.771455,-216.689035,-758,-216.680000C-758.805849,-216.653566,-759.510666,-216.350495,-760,-215.820000C-760.228278,-215.568094,-760.403812,-215.271037,-760.520000,-214.940000L-760.320000,-214.440000L-758.620000,-210.240000L-754.420000,-202.480000L-754.220000,-193.120000L-754.300000,-191.050000L-754.420000,-187.510000L-758.480000,-179.340000C-758.260000,-178.140000,-758.030000,-176.970000,-757.750000,-175.780000C-755.620000,-166.580000,-746.050000,-167.060000,-739.410000,-172.630000C-749.540000,-173.100000,-749.180000,-185.480000,-744.370000,-195.930000C-740.870000,-203.530000,-743.870000,-219.930000,-751.800000,-219.930000Z" fill="rgb(255,0,102)" stroke="none" stroke-width="1"/><path id="ey2kgd74p0b25" d="M-771.740000,-165.450000C-784.340000,-165.450000,-794.460000,-157.190000,-794.460000,-146.930000L-794.460000,-145.470000L-748.160000,-145.470000L-748.160000,-146.930000C-748.160000,-157.190000,-758.280000,-165.450000,-770.860000,-165.450000Z" paint-order="fill markers stroke" fill="rgb(128,0,51)" stroke="none" stroke-width="1"/><rect id="ey2kgd74p0b26" width="8.504000" height="19.416000" rx="0" ry="4.252000" transform="matrix(1 0 0 1 -775.55799999999999 -175.88399999999999)" paint-order="fill markers stroke" fill="rgb(255,200,178)" stroke="none" stroke-width="1"/><path id="ey2kgd74p0b27" d="M-771.300000,-177.630000C-773.660000,-177.630000,-775.560000,-175.730000,-775.560000,-173.370000L-775.560000,-167.370000C-774.480000,-167.170000,-773.360000,-167.070000,-772.240000,-167.070000L-770.370000,-167.070000C-769.240000,-167.070000,-768.130000,-167.170000,-767.050000,-167.370000L-767.050000,-173.370000C-767.050000,-175.730000,-768.950000,-177.630000,-771.310000,-177.630000Z" paint-order="fill markers stroke" fill="rgb(250,187,163)" stroke="none" stroke-width="1"/><path id="ey2kgd74p0b28" d="M-772.330000,-215.600000C-781.430000,-215.600000,-788.770000,-208.260000,-788.770000,-199.160000L-788.770000,-190.840000C-788.970000,-190.890000,-789.190000,-190.910000,-789.400000,-190.920000C-791.330000,-190.920000,-792.900000,-188.800000,-792.900000,-186.190000C-792.900000,-183.570000,-791.330000,-181.460000,-789.400000,-181.460000C-788.930000,-181.460000,-788.480000,-181.580000,-788.050000,-181.830000C-785.990000,-175.100000,-779.750000,-170.230000,-772.330000,-170.230000L-770.280000,-170.230000C-762.860000,-170.230000,-756.620000,-175.100000,-754.560000,-181.830000C-754.140000,-181.580000,-753.680000,-181.460000,-753.220000,-181.460000C-751.290000,-181.460000,-749.720000,-183.560000,-749.720000,-186.180000C-749.720000,-188.780000,-751.290000,-190.900000,-753.220000,-190.900000C-753.420000,-190.900000,-753.620000,-190.870000,-753.840000,-190.820000L-753.840000,-199.140000C-753.840000,-208.240000,-761.170000,-215.580000,-770.280000,-215.580000Z" paint-order="fill markers stroke" fill="rgb(255,200,178)" stroke="none" stroke-width="1"/><g id="ey2kgd74p0b29" transform="matrix(1 0 0 1 -1551.52999999999997 -525.05200000000002)"><rect id="ey2kgd74p0b30" width="6.142000" height="1.606000" rx="0" ry="0.803000" transform="matrix(1 0 0 1 770.54200000000003 326.48899999999998)" paint-order="fill markers stroke" fill="rgb(77,77,77)" stroke="none" stroke-width="1"/><rect id="ey2kgd74p0b31" width="6.142000" height="1.606000" rx="0" ry="0.803000" transform="matrix(1 0 0 1 783.77200000000005 326.48899999999998)" paint-order="fill markers stroke" fill="rgb(77,77,77)" stroke="none" stroke-width="1"/></g><path id="ey2kgd74p0b32" d="M-772.040000,-217.740000C-775.740000,-217.780000,-778.280000,-217.170000,-781.990000,-214.910000C-787.890000,-211.210000,-789.310000,-205.790000,-789.450000,-200.180000C-790.180000,-199.380000,-790.650000,-197.650000,-790.650000,-195.740000C-790.650000,-193.040000,-789.730000,-190.870000,-788.590000,-190.870000C-787.490000,-190.870000,-786.590000,-192.870000,-786.520000,-195.440000C-781.820000,-196.170000,-777.120000,-199.120000,-775.120000,-202.820000C-774.890000,-201.740000,-775.620000,-199.920000,-777.750000,-197.680000C-774.100000,-199.150000,-770.600000,-201.680000,-769.220000,-205.310000C-769.050000,-203.660000,-769.720000,-202.910000,-770.300000,-201.980000C-768.300000,-202.850000,-766.600000,-204.080000,-765,-205.480000C-762.880000,-202.580000,-760.100000,-199.800000,-755.940000,-197.320000C-756,-196.860000,-756.040000,-196.370000,-756.040000,-195.880000C-756.040000,-193.180000,-755.100000,-191.010000,-753.960000,-191.010000C-752.810000,-191.010000,-751.890000,-193.180000,-751.890000,-195.870000C-751.890000,-197.740000,-752.330000,-199.440000,-753.050000,-200.270000C-753.050000,-203.540000,-753.210000,-206.840000,-755.130000,-209.530000C-754.660000,-209.670000,-754.250000,-209.930000,-753.930000,-210.260000C-752.730000,-211.560000,-753.110000,-213.860000,-754.780000,-215.410000C-756.440000,-216.940000,-758.780000,-217.130000,-759.980000,-215.830000C-760.360000,-215.400000,-760.580000,-214.860000,-760.660000,-214.250000C-762.360000,-216.220000,-768.320000,-217.710000,-772.020000,-217.750000Z" fill="rgb(255,0,102)" stroke="none" stroke-width="1"/><path id="ey2kgd74p0b33" d="M-783.400000,-216.470000C-782.836411,-216.466592,-782.372108,-216.308385,-782.050000,-216.010000C-781.958579,-215.930078,-781.878386,-215.839860,-781.810000,-215.740000C-783.063574,-216.084274,-784.974244,-215.352528,-786.510000,-213.940000C-788.236881,-212.353117,-789.003309,-210.360403,-788.310000,-209.260000C-788.587457,-209.337059,-788.823310,-209.465093,-789.010000,-209.640000C-790.046518,-210.627098,-789.346047,-212.835589,-787.440000,-214.590000C-786.176386,-215.758656,-784.628421,-216.486659,-783.400000,-216.490000Z" paint-order="fill markers stroke" fill="rgb(255,221,85)" stroke="none" stroke-width="1"/><path id="ey2kgd74p0b34" d="M-758.600000,-216.470000C-759.163589,-216.466592,-759.627892,-216.308385,-759.950000,-216.010000C-760.037744,-215.929646,-760.114589,-215.839436,-760.180000,-215.740000C-758.927139,-216.068605,-757.034417,-215.339076,-755.510000,-213.940000C-753.783119,-212.353117,-753.016691,-210.360403,-753.710000,-209.260000C-753.432543,-209.337059,-753.196690,-209.465093,-753.010000,-209.640000C-751.973482,-210.627098,-752.673953,-212.835589,-754.580000,-214.590000C-755.843614,-215.758656,-757.391579,-216.486659,-758.620000,-216.490000Z" paint-order="fill markers stroke" fill="rgb(255,221,85)" stroke="none" stroke-width="1"/><g id="ey2kgd74p0b35" transform="matrix(1 0 0 1 -1773.29999999999995 -525.58100000000002)"><ellipse id="ey2kgd74p0b36" rx="2.606000" ry="1.069000" transform="matrix(1 0 0 1 994.10500000000002 340.44299999999998)" paint-order="fill markers stroke" fill="rgb(235,159,155)" stroke="none" stroke-width="1"/><ellipse id="ey2kgd74p0b37" rx="2.606000" ry="1.069000" transform="matrix(1 0 0 1 1009.87000000000000 340.44299999999998)" paint-order="fill markers stroke" fill="rgb(235,159,155)" stroke="none" stroke-width="1"/><path id="ey2kgd74p0b38" d="M1004.930000,339.760000C1004.466569,340.960891,1003.329427,341.753324,1002.060000,341.760000C1000.794230,341.749183,999.662078,340.957468,999.200000,339.760000C999.049448,340.134668,998.971358,340.535306,998.970000,340.940000C998.970000,341.775432,999.296606,342.576647,999.877969,343.167386C1000.459332,343.758126,1001.247829,344.090000,1002.070000,344.090000C1003.778113,344.078811,1005.155458,342.665690,1005.150000,340.930000C1005.151820,340.525970,1005.077130,340.125357,1004.930000,339.750000Z" paint-order="fill markers stroke" fill="rgb(235,159,155)" stroke="none" stroke-width="1"/><path id="ey2kgd74p0b39" d="M997.440000,347.080000C997.213687,347.081388,997.013225,347.226327,996.940981,347.440804C996.868736,347.655281,996.940650,347.891967,997.120000,348.030000C998.920000,349.470000,1000.360000,350.310000,1001.920000,350.330000C1003.480000,350.370000,1005.020000,349.580000,1007,348.030000C1007.171649,347.922390,1007.266936,347.726342,1007.245507,347.524887C1007.224077,347.323432,1007.089680,347.151818,1006.899235,347.082724C1006.708789,347.013631,1006.495617,347.059149,1006.350000,347.200000C1004.430000,348.700000,1003.130000,349.300000,1001.950000,349.300000C1000.750000,349.260000,999.530000,348.600000,997.780000,347.200000C997.684173,347.121495,997.563875,347.079036,997.440000,347.080000Z" fill="rgb(235,159,155)" stroke="none" stroke-width="1"/></g><g id="ey2kgd74p0b40"><g id="ey2kgd74p0b41"><path id="ey2kgd74p0b42" d="M-769.440000,-191.230000C-768.160000,-188.410000,-761,-188.960000,-760.340000,-191.930000C-762.770000,-195.530000,-767.740000,-193.630000,-769.440000,-191.230000Z" fill="rgb(255,255,255)" stroke="none" stroke-width="1"/><path id="ey2kgd74p0b43" d="M-764.170000,-193.930000C-765.470000,-193.910000,-766.770000,-193.430000,-767.840000,-192.730000C-767.908780,-192.482604,-767.942443,-192.226768,-767.940000,-191.970000C-767.940731,-190.873521,-767.287710,-189.882189,-766.280000,-189.450000C-765.580000,-189.350000,-764.820000,-189.370000,-764.080000,-189.480000C-763.102402,-189.927284,-762.476701,-190.904941,-762.480000,-191.980000C-762.486134,-192.677336,-762.757929,-193.346093,-763.240000,-193.850000C-763.540000,-193.910000,-763.840000,-193.930000,-764.170000,-193.930000Z" paint-order="fill markers stroke" fill="rgb(77,77,77)" stroke="none" stroke-width="1"/><path id="ey2kgd74p0b44" d="M-769.520000,-191.170000C-766.490000,-192.820000,-763.420000,-193.670000,-760.220000,-191.770000L-759.940000,-191.850000L-759.900000,-192.550000C-763.730000,-195.870000,-767.740000,-193.680000,-769.520000,-191.170000Z" fill="rgb(77,77,77)" stroke="none" stroke-width="1"/></g><g id="ey2kgd74p0b45"><path id="ey2kgd74p0b46" d="M-773.300000,-191.230000C-774.570000,-188.410000,-781.730000,-188.960000,-782.400000,-191.930000C-779.960000,-195.530000,-775,-193.630000,-773.300000,-191.230000Z" fill="rgb(255,255,255)" stroke="none" stroke-width="1"/><path id="ey2kgd74p0b47" d="M-778.570000,-193.930000C-777.270000,-193.910000,-775.950000,-193.430000,-774.890000,-192.730000C-774.814453,-192.483572,-774.774055,-192.227716,-774.770000,-191.970000C-774.770978,-190.871120,-775.428372,-189.879124,-776.440000,-189.450000C-777.140000,-189.350000,-777.900000,-189.370000,-778.640000,-189.480000C-779.617598,-189.927284,-780.243299,-190.904941,-780.240000,-191.980000C-780.233866,-192.677336,-779.962071,-193.346093,-779.480000,-193.850000C-779.180000,-193.910000,-778.860000,-193.930000,-778.550000,-193.930000Z" paint-order="fill markers stroke" fill="rgb(77,77,77)" stroke="none" stroke-width="1"/><path id="ey2kgd74p0b48" d="M-773.200000,-191.170000C-776.250000,-192.820000,-779.300000,-193.670000,-782.500000,-191.770000L-782.800000,-191.850000L-782.830000,-192.550000C-779.010000,-195.870000,-774.990000,-193.680000,-773.210000,-191.170000Z" fill="rgb(77,77,77)" stroke="none" stroke-width="1"/></g></g></g><g id="ey2kgd74p0b49"><g id="ey2kgd74p0b50" transform="matrix(1.43700000000000 0 0 1.43700000000000 -76.86700000000000 -821.98000000000002)"><path id="ey2kgd74p0b51" d="M104.360000,628.420000C91.760000,628.420000,81.640000,636.680000,81.640000,646.940000L81.640000,648.400000L127.940000,648.400000L127.940000,646.940000C127.940000,636.680000,117.810000,628.420000,105.240000,628.420000Z" paint-order="fill markers stroke" fill="rgb(51,51,51)" stroke="none" stroke-width="1"/><rect id="ey2kgd74p0b52" width="8.504000" height="19.416000" rx="0" ry="4.252000" transform="matrix(1 0 0 1 100.54200000000000 617.98000000000002)" paint-order="fill markers stroke" fill="rgb(255,200,178)" stroke="none" stroke-width="1"/><path id="ey2kgd74p0b53" d="M104.800000,616.240000C102.440000,616.240000,100.540000,618.140000,100.540000,620.490000L100.540000,626.490000C101.620000,626.690000,102.740000,626.790000,103.860000,626.790000L105.730000,626.790000C106.860000,626.790000,107.970000,626.690000,109.050000,626.490000L109.050000,620.490000C109.050000,618.120000,107.150000,616.230000,104.790000,616.230000Z" paint-order="fill markers stroke" fill="rgb(250,187,163)" stroke="none" stroke-width="1"/><path id="ey2kgd74p0b54" d="M103.770000,578.270000C94.670000,578.270000,87.330000,585.600000,87.330000,594.710000L87.330000,603.040000C87.130000,602.990000,86.910000,602.960000,86.700000,602.960000C84.770000,602.960000,83.200000,605.060000,83.200000,607.680000C83.200000,610.280000,84.770000,612.410000,86.700000,612.410000C87.170000,612.410000,87.620000,612.280000,88.050000,612.040000C90.110000,618.770000,96.350000,623.640000,103.770000,623.640000L105.820000,623.640000C113.240000,623.640000,119.480000,618.770000,121.540000,612.040000C121.960000,612.280000,122.420000,612.410000,122.880000,612.410000C124.810000,612.410000,126.380000,610.290000,126.380000,607.680000C126.380000,605.080000,124.810000,602.960000,122.880000,602.960000C122.680000,602.960000,122.480000,602.990000,122.260000,603.040000L122.260000,594.720000C122.260000,585.620000,114.930000,578.290000,105.820000,578.290000Z" paint-order="fill markers stroke" fill="rgb(255,200,178)" stroke="none" stroke-width="1"/><ellipse id="ey2kgd74p0b55" rx="2.173000" ry="4.441000" transform="matrix(1 0 0 1 99.12400000000000 602.09799999999996)" paint-order="fill markers stroke" fill="rgb(51,51,51)" stroke="none" stroke-width="1"/><ellipse id="ey2kgd74p0b56" rx="2.173000" ry="4.441000" transform="matrix(1 0 0 1 110.46400000000000 602.09799999999996)" paint-order="fill markers stroke" fill="rgb(51,51,51)" stroke="none" stroke-width="1"/><rect id="ey2kgd74p0b57" width="6.142000" height="1.606000" rx="0" ry="0.803000" transform="matrix(1 0 0 1 95.10800000000000 594.77099999999996)" paint-order="fill markers stroke" fill="rgb(77,77,77)" stroke="none" stroke-width="1"/><rect id="ey2kgd74p0b58" width="6.142000" height="1.606000" rx="0" ry="0.803000" transform="matrix(1 0 0 1 108.33799999999999 594.77099999999996)" paint-order="fill markers stroke" fill="rgb(77,77,77)" stroke="none" stroke-width="1"/><g id="ey2kgd74p0b59" transform="matrix(1 0 0 1 -896.85500000000002 268.28300000000002)"><ellipse id="ey2kgd74p0b60" rx="2.606000" ry="1.069000" transform="matrix(1 0 0 1 994.10500000000002 340.44299999999998)" paint-order="fill markers stroke" fill="rgb(235,159,155)" stroke="none" stroke-width="1"/><ellipse id="ey2kgd74p0b61" rx="2.606000" ry="1.069000" transform="matrix(1 0 0 1 1009.87000000000000 340.44299999999998)" paint-order="fill markers stroke" fill="rgb(235,159,155)" stroke="none" stroke-width="1"/><path id="ey2kgd74p0b62" d="M1004.930000,339.760000C1004.466569,340.960891,1003.329427,341.753324,1002.060000,341.760000C1000.794230,341.749183,999.662078,340.957468,999.200000,339.760000C999.049448,340.134668,998.971358,340.535306,998.970000,340.940000C998.970000,341.775432,999.296606,342.576647,999.877969,343.167386C1000.459332,343.758126,1001.247829,344.090000,1002.070000,344.090000C1003.778113,344.078811,1005.155458,342.665690,1005.150000,340.930000C1005.151820,340.525970,1005.077130,340.125357,1004.930000,339.750000Z" paint-order="fill markers stroke" fill="rgb(235,159,155)" stroke="none" stroke-width="1"/><path id="ey2kgd74p0b63" d="M997.440000,347.080000C997.213687,347.081388,997.013225,347.226327,996.940981,347.440804C996.868736,347.655281,996.940650,347.891967,997.120000,348.030000C998.920000,349.470000,1000.360000,350.310000,1001.920000,350.330000C1003.480000,350.370000,1005.020000,349.580000,1007,348.030000C1007.171649,347.922390,1007.266936,347.726342,1007.245507,347.524887C1007.224077,347.323432,1007.089680,347.151818,1006.899235,347.082724C1006.708789,347.013631,1006.495617,347.059149,1006.350000,347.200000C1004.430000,348.700000,1003.130000,349.300000,1001.950000,349.300000C1000.750000,349.260000,999.530000,348.600000,997.780000,347.200000C997.684173,347.121495,997.563875,347.079036,997.440000,347.080000Z" fill="rgb(235,159,155)" stroke="none" stroke-width="1"/></g></g><g id="ey2kgd74p0b64" transform="matrix(1.43700000000000 0 0 1.43700000000000 -190.92900000000000 -821.98000000000002)"><circle id="ey2kgd74p0b65" r="5.865000" transform="matrix(1 0 0 1 175.34100000000001 601.73199999999997)" paint-order="fill markers stroke" fill="url(#ey2kgd74p0b65-fill)" stroke="none" stroke-width="1"/><circle id="ey2kgd74p0b66" r="5.865000" transform="matrix(-1 0 0 1 192.96100000000001 601.73199999999997)" paint-order="fill markers stroke" fill="url(#ey2kgd74p0b66-fill)" stroke="none" stroke-width="1"/><path id="ey2kgd74p0b67" d="M175.340000,594.960000C173.980000,594.960000,172.540000,595.540000,171.540000,596.140000C170.540000,596.740000,169.660000,597.240000,169.040000,597.640000C168.400000,598.040000,168.160000,598.040000,167.870000,598.040000L166.770000,598.040000L166.770000,599.190000C168.590000,599.520000,168.440000,600.720000,168.570000,601.810000C168.610000,605.510000,171.630000,608.510000,175.340000,608.510000C179.080000,608.510000,182.120000,605.460000,182.120000,601.710000C182.120000,600.610000,181.850000,599.540000,181.360000,598.610000C183.290000,598.060000,185.160000,598.010000,186.940000,598.610000C186.460000,599.540000,186.180000,600.610000,186.180000,601.710000C186.180000,605.460000,189.220000,608.510000,192.960000,608.510000C196.660000,608.510000,199.690000,605.510000,199.730000,601.810000C199.860000,600.710000,199.710000,599.510000,201.530000,599.180000L201.530000,598.020000L200.430000,598.020000C200.130000,598.020000,199.900000,598.020000,199.270000,597.620000C198.640000,597.220000,197.770000,596.720000,196.770000,596.120000C195.770000,595.520000,194.320000,594.940000,192.970000,594.940000C190.790000,594.940000,188.870000,595.940000,187.620000,597.540000L187.260000,597.540000C185.260000,597.110000,183.220000,596.960000,181.040000,597.540000L180.680000,597.540000C179.440000,595.940000,177.510000,594.940000,175.340000,594.940000ZM175.340000,596.030000C178.490000,596.030000,181.040000,598.580000,181.040000,601.730000C181.040000,604.880000,178.490000,607.430000,175.340000,607.430000C172.190000,607.430000,169.640000,604.880000,169.640000,601.730000C169.640000,598.580000,172.190000,596.030000,175.340000,596.030000ZM192.960000,596.030000C196.110000,596.030000,198.660000,598.580000,198.660000,601.730000C198.660000,604.880000,196.110000,607.430000,192.960000,607.430000C189.810000,607.430000,187.260000,604.880000,187.260000,601.730000C187.260000,598.580000,189.810000,596.030000,192.960000,596.030000Z" paint-order="fill markers stroke" fill="rgb(212,0,0)" stroke="none" stroke-width="1"/></g></g><g id="ey2kgd74p0b68" transform="matrix(1.43700000000000 0 0 1.43700000000000 1028.04999999999995 365.17300000000000)"><path id="ey2kgd74p0b69" d="M-683.600000,-132.630000C-696.180000,-132.630000,-706.300000,-124.370000,-706.300000,-114.110000L-706.300000,-112.660000L-660,-112.660000L-660,-114.120000C-660,-124.390000,-670.140000,-132.650000,-682.720000,-132.650000Z" paint-order="fill markers stroke" fill="rgb(0,132,200)" stroke="none" stroke-width="1"/><rect id="ey2kgd74p0b70" width="8.504000" height="19.416000" rx="0" ry="4.252000" transform="matrix(1 0 0 1 -687.41300000000001 -143.06399999999999)" paint-order="fill markers stroke" fill="rgb(255,200,178)" stroke="none" stroke-width="1"/><path id="ey2kgd74p0b71" d="M-683.160000,-144.800000C-685.520000,-144.800000,-687.410000,-142.900000,-687.410000,-140.550000L-687.410000,-134.550000C-686.350000,-134.350000,-685.240000,-134.250000,-684.110000,-134.250000L-682.240000,-134.250000C-681.100000,-134.250000,-679.990000,-134.350000,-678.920000,-134.550000L-678.920000,-140.550000C-678.920000,-142.910000,-680.820000,-144.810000,-683.180000,-144.810000Z" paint-order="fill markers stroke" fill="rgb(250,187,163)" stroke="none" stroke-width="1"/><path id="ey2kgd74p0b72" d="M-684.180000,-182.780000C-693.280000,-182.780000,-700.630000,-175.450000,-700.630000,-166.340000L-700.630000,-158.020000C-700.830000,-158.070000,-701.030000,-158.100000,-701.250000,-158.100000C-703.180000,-158.100000,-704.750000,-155.980000,-704.750000,-153.370000C-704.750000,-150.770000,-703.180000,-148.650000,-701.250000,-148.650000C-700.790000,-148.650000,-700.330000,-148.770000,-699.900000,-149.020000C-697.840000,-142.290000,-691.600000,-137.420000,-684.180000,-137.420000L-682.140000,-137.420000C-674.720000,-137.420000,-668.480000,-142.290000,-666.420000,-149.020000C-665.990000,-148.770000,-665.520000,-148.650000,-665.070000,-148.650000C-663.140000,-148.650000,-661.570000,-150.750000,-661.570000,-153.370000C-661.570000,-155.970000,-663.140000,-158.100000,-665.070000,-158.100000C-665.270000,-158.100000,-665.490000,-158.070000,-665.690000,-158.020000L-665.690000,-166.340000C-665.690000,-175.440000,-673.020000,-182.780000,-682.130000,-182.780000Z" paint-order="fill markers stroke" fill="rgb(255,200,178)" stroke="none" stroke-width="1"/><g id="ey2kgd74p0b73" transform="matrix(1 0 0 1 -1102.25999999999999 -492.76200000000000)"><ellipse id="ey2kgd74p0b74" rx="2.173000" ry="4.441000" transform="matrix(1 0 0 1 413.43000000000001 333.81500000000000)" paint-order="fill markers stroke" fill="rgb(54,78,89)" stroke="none" stroke-width="1"/><ellipse id="ey2kgd74p0b75" rx="2.173000" ry="4.441000" transform="matrix(1 0 0 1 424.76999999999998 333.81500000000000)" paint-order="fill markers stroke" fill="rgb(54,78,89)" stroke="none" stroke-width="1"/></g><g id="ey2kgd74p0b76" transform="matrix(1 0 0 1 -1102.25999999999999 -492.76200000000000)"><rect id="ey2kgd74p0b77" width="6.142000" height="1.606000" rx="0" ry="0.803000" transform="matrix(1 0 0 1 409.41399999999999 326.48899999999998)" paint-order="fill markers stroke" fill="rgb(77,77,77)" stroke="none" stroke-width="1"/><rect id="ey2kgd74p0b78" width="6.142000" height="1.606000" rx="0" ry="0.803000" transform="matrix(1 0 0 1 422.64400000000001 326.48899999999998)" paint-order="fill markers stroke" fill="rgb(77,77,77)" stroke="none" stroke-width="1"/></g><path id="ey2kgd74p0b79" d="M-684.330000,-209.830000L-685.630000,-189.030000L-686.690000,-209.210000L-687.690000,-188.330000L-688.620000,-207.600000L-689.080000,-188.800000L-690.980000,-202.930000C-689.980000,-196,-689.630000,-184.380000,-687.850000,-177.630000L-686.900000,-180.290000L-686.800000,-177.020000L-685.450000,-179.920000L-684,-177.470000L-683.530000,-179.920000L-682.950000,-177.770000L-681.850000,-180.370000L-681.190000,-176.870000L-680.170000,-180.130000L-679.370000,-177.990000L-673.970000,-203.790000L-677.310000,-190.940000L-675.750000,-207.140000L-678.550000,-187.480000L-678.350000,-208.920000L-680.570000,-188.490000L-681.090000,-211.190000L-682.960000,-189.060000Z" fill="rgb(0,92,148)" stroke="none" stroke-width="1"/><g id="ey2kgd74p0b80" transform="matrix(1 0 0 1 -1102.19000000000005 -491.98700000000002)"><ellipse id="ey2kgd74p0b81" rx="2.606000" ry="1.069000" transform="matrix(1 0 0 1 411.14200000000000 339.66800000000001)" paint-order="fill markers stroke" fill="rgb(235,159,155)" stroke="none" stroke-width="1"/><ellipse id="ey2kgd74p0b82" rx="2.606000" ry="1.069000" transform="matrix(1 0 0 1 426.91100000000000 339.66800000000001)" paint-order="fill markers stroke" fill="rgb(235,159,155)" stroke="none" stroke-width="1"/><path id="ey2kgd74p0b83" d="M421.970000,339C421.500311,340.193034,420.364555,340.976587,419.100000,340.980000C417.830573,340.973324,416.693431,340.180891,416.230000,338.980000C416.082870,339.355357,416.008180,339.755970,416.010000,340.160000C416.010000,340.995432,416.336606,341.796647,416.917969,342.387386C417.499332,342.978126,418.287829,343.310000,419.110000,343.310000C420.818247,343.310009,422.204577,341.905790,422.210000,340.170000C422.207384,339.768673,422.129317,339.371551,421.980000,339Z" paint-order="fill markers stroke" fill="rgb(235,159,155)" stroke="none" stroke-width="1"/><path id="ey2kgd74p0b84" d="M414.480000,346.300000C414.248118,346.295493,414.040239,346.442275,413.966898,346.662299C413.893556,346.882323,413.971790,347.124477,414.160000,347.260000C415.960000,348.690000,417.400000,349.540000,418.960000,349.560000C420.520000,349.600000,422.060000,348.800000,424.030000,347.260000C424.199243,347.152828,424.293600,346.959392,424.273876,346.760043C424.254152,346.560694,424.123718,346.389500,423.936755,346.317572C423.749791,346.245643,423.538249,346.285273,423.390000,346.420000C421.460000,347.920000,420.150000,348.520000,418.970000,348.520000C417.790000,348.490000,416.570000,347.820000,414.810000,346.420000C414.711499,346.348640,414.591451,346.313331,414.470000,346.320000Z" fill="rgb(235,159,155)" stroke="none" stroke-width="1"/></g><path id="ey2kgd74p0b85" d="M-675.100000,-131.560000L-675.300000,-131.210000L-677.640000,-131.030000L-676.070000,-129.280000L-676.620000,-127L-674.470000,-127.940000L-672.470000,-126.720000L-672.710000,-129.050000L-671.410000,-130.170000C-672.580000,-130.720000,-673.810000,-131.190000,-675.110000,-131.570000ZM-687.580000,-131.440000L-689.340000,-129.890000L-691.620000,-130.450000L-690.680000,-128.290000L-691.930000,-126.290000L-689.590000,-126.530000L-688.070000,-124.730000L-687.570000,-127.030000L-685.370000,-127.900000L-687.400000,-129.100000ZM-694.380000,-129.980000L-695.830000,-129.720000C-697.190000,-129.020000,-698.450000,-128.200000,-699.580000,-127.280000L-698.650000,-126.830000L-698.290000,-124.510000L-696.650000,-126.210000L-694.350000,-125.840000L-695.450000,-127.910000ZM-681.360000,-127.080000L-683.120000,-125.520000L-685.400000,-126.090000L-684.460000,-123.930000L-685.710000,-121.930000L-683.380000,-122.160000L-681.880000,-120.360000L-681.360000,-122.660000L-679.180000,-123.530000L-681.210000,-124.730000ZM-667.620000,-125.840000L-667.600000,-123.490000L-669.530000,-122.130000L-667.290000,-121.430000L-666.590000,-119.170000L-665.230000,-121.070000L-662.880000,-121.040000L-664.260000,-122.940000L-663.760000,-124.340000C-663.920000,-124.540000,-664.080000,-124.720000,-664.240000,-124.900000L-665.720000,-124.420000ZM-676.220000,-125.600000L-676.650000,-123.300000L-678.790000,-122.330000L-676.710000,-121.230000L-676.450000,-118.880000L-674.750000,-120.510000L-672.450000,-120.040000L-673.470000,-122.160000L-672.310000,-124.200000L-674.640000,-123.870000ZM-702.760000,-124.020000L-703.460000,-121.780000L-704.460000,-121.460000C-704.620000,-121.160000,-704.780000,-120.840000,-704.920000,-120.530000L-703.780000,-119.730000L-703.810000,-117.370000L-701.940000,-118.770000L-699.720000,-118.020000L-700.480000,-120.250000L-699.080000,-122.130000L-701.420000,-122.100000ZM-691.180000,-123.360000L-691.600000,-121.040000L-693.740000,-120.080000L-691.670000,-118.980000L-691.410000,-116.630000L-689.710000,-118.260000L-687.410000,-117.780000L-688.440000,-119.900000L-687.280000,-121.940000L-689.610000,-121.620000ZM-682.300000,-118.560000L-683.350000,-116.440000L-685.670000,-116.110000L-684,-114.480000L-684.320000,-112.660000L-683.460000,-112.660000L-682.320000,-113.260000L-681.200000,-112.660000L-680.330000,-112.660000L-680.630000,-114.460000L-678.950000,-116.100000L-681.270000,-116.440000ZM-660.560000,-118.190000L-661.910000,-116.930000L-664.210000,-117.450000L-663.210000,-115.310000L-664.410000,-113.290000L-662.090000,-113.570000L-661.270000,-112.640000L-660.370000,-112.640000L-660.070000,-114.110000L-660.020000,-114.140000C-660.020000,-115.540000,-660.220000,-116.880000,-660.580000,-118.180000ZM-671.160000,-117.690000L-672.930000,-116.120000L-675.210000,-116.690000L-674.290000,-114.540000L-675.490000,-112.640000L-674.570000,-112.640000L-673.200000,-112.770000L-673.080000,-112.640000L-671.300000,-112.640000L-671.170000,-113.260000L-668.990000,-114.140000L-670.990000,-115.340000ZM-694.720000,-117.410000L-696.480000,-115.860000L-698.760000,-116.430000L-697.830000,-114.270000L-698.850000,-112.640000L-694.790000,-112.640000L-694.690000,-113L-692.530000,-113.880000L-694.550000,-115.080000ZM-705.670000,-116.340000L-706.310000,-114.280000C-706.310000,-114.210000,-706.310000,-114.150000,-706.310000,-114.080000L-706.310000,-112.630000L-703.330000,-112.630000L-701.980000,-114.430000L-704.320000,-114.410000Z" paint-order="fill markers stroke" fill="rgb(255,255,255)" stroke="none" stroke-width="1"/><path id="ey2kgd74p0b86" d="M-697.900000,-165.770000C-699.250000,-165.770000,-700.360000,-165.290000,-701.100000,-164.020000C-702.550000,-161.490000,-699.600000,-151.280000,-689.480000,-151.240000C-688.160000,-151.240000,-686.550000,-151.490000,-685.720000,-152.520000C-684.940000,-153.490000,-684.400000,-154.820000,-683.300000,-155.480000C-683.180000,-155.550000,-683.020000,-155.560000,-682.870000,-155.550000C-682.730000,-155.550000,-682.570000,-155.550000,-682.450000,-155.480000C-681.350000,-154.830000,-680.810000,-153.480000,-680.030000,-152.520000C-679.200000,-151.490000,-677.590000,-151.240000,-676.270000,-151.240000C-666.170000,-151.280000,-663.200000,-161.490000,-664.670000,-164.020000C-665.390000,-165.290000,-666.500000,-165.760000,-667.840000,-165.770000C-671.540000,-165.810000,-677,-162.300000,-681.140000,-162.300000L-684.600000,-162.300000C-688.750000,-162.300000,-694.200000,-165.800000,-697.900000,-165.770000ZM-691.420000,-160.800000C-688.920000,-160.850000,-686.770000,-159.720000,-686,-157C-690.150000,-154.530000,-694.330000,-155.900000,-696.080000,-159.500000C-694.550000,-160.300000,-692.920000,-160.770000,-691.420000,-160.800000ZM-674.320000,-160.800000C-672.820000,-160.770000,-671.200000,-160.300000,-669.660000,-159.500000C-671.420000,-155.900000,-675.600000,-154.530000,-679.760000,-157C-678.980000,-159.720000,-676.830000,-160.850000,-674.330000,-160.800000Z" fill="rgb(14,35,46)" stroke="none" stroke-width="1"/></g></g><g id="ey2kgd74p0b87" transform="matrix(1.58900000000000 0 0 1.58900000000000 -27.78299999999999 -159.10499999999993)"><g id="ey2kgd74p0b88_tr" transform="translate(101.733498,222.403023) rotate(0)"><g id="ey2kgd74p0b88" transform="translate(-101.733498,-222.403023)"><path id="ey2kgd74p0b89" d="M114.900000,201.600000C112.209625,203.173245,108.958143,206.207716,106.060000,209.850000C103.526685,213.038371,101.490127,216.408160,100.398589,219.217649C99.307052,222.027138,99.250004,224.046048,100.240000,224.830000C101.225374,225.620958,103.178775,225.111534,105.669773,223.413979C108.160772,221.716423,110.984948,218.970044,113.520000,215.780000C115.760035,212.961554,117.621874,209.988276,118.780000,207.380000L117.380000,207.910000Z" paint-order="fill markers stroke" fill="rgb(53,57,66)" stroke="none" stroke-width="1"/><g id="ey2kgd74p0b90"><rect id="ey2kgd74p0b91" width="4.532000" height="59.249000" rx="2.266000" ry="2.266000" transform="matrix(0.95087300000000 -0.30958100000000 0.30958100000000 0.95087300000000 99.57881933799999 161.31098823400001)" paint-order="fill markers stroke" fill="rgb(51,51,51)" stroke="none" stroke-width="1"/><rect id="ey2kgd74p0b92" width="4.532000" height="56.365000" rx="2.266000" ry="2.266000" transform="matrix(0.95087300000000 -0.30958100000000 0.30958100000000 0.95087300000000 99.57881933799999 161.31098823400001)" paint-order="fill markers stroke" fill="rgb(77,77,77)" stroke="none" stroke-width="1"/><rect id="ey2kgd74p0b93" width="4.532000" height="21.073000" rx="0" ry="0" transform="matrix(0.95087300000000 -0.30958100000000 0.30958100000000 0.95087300000000 99.57881933799999 161.31098823400001)" paint-order="fill markers stroke" fill="rgb(204,204,204)" stroke="none" stroke-width="1"/><g id="ey2kgd74p0b94"><path id="ey2kgd74p0b95" d="M151.380000,138.800000C150.320000,140.280000,144.560000,136.800000,142.830000,137.350000C141.100000,137.920000,138.510000,144.150000,136.780000,143.580000C135.050000,143.020000,136.580000,136.480000,135.520000,134.980000C134.440000,133.520000,127.720000,132.980000,127.720000,131.160000C127.720000,129.340000,134.440000,128.790000,135.500000,127.310000C136.570000,125.840000,135,119.310000,136.740000,118.730000C138.470000,118.160000,141.070000,124.370000,142.810000,124.930000C144.550000,125.490000,150.290000,121.980000,151.370000,123.450000C152.440000,124.930000,147.340000,129.320000,147.340000,131.150000C147.340000,132.950000,152.460000,137.350000,151.390000,138.820000Z" transform="matrix(1 0 0 1 -38.98999999685341 27.64505610446821)" paint-order="fill markers stroke" fill="rgb(255,102,0)" stroke="none" stroke-width="1"/><g id="ey2kgd74p0b96" display="none"><path id="ey2kgd74p0b97" d="M95.200000,138.270000C95.148934,138.287493,95.105253,138.318609,95.078887,138.356274C95.052521,138.393940,95.045709,138.434956,95.060000,138.470000L96.740000,143.670000C96.806498,143.642923,96.873166,143.616256,96.940000,143.590000C97.006547,143.569601,97.073215,143.549601,97.140000,143.530000L95.440000,138.330000C95.414810,138.258744,95.313017,138.227763,95.210000,138.260000ZM80.730000,161.940000C80.619543,161.973137,80.556863,162.089543,80.590000,162.200000C80.623137,162.310457,80.739543,162.373137,80.850000,162.340000L85.420000,160.840000C85.401540,160.706931,85.384872,160.573586,85.370000,160.440000ZM116.150000,150.490000C116.224962,150.605690,116.298302,150.722367,116.370000,150.840000L120.930000,149.370000C121.040457,149.336863,121.103137,149.220457,121.070000,149.110000C121.036863,148.999543,120.920457,148.936863,120.810000,148.970000Z" fill="rgb(255,102,0)" stroke="none" stroke-width="1"/><g id="ey2kgd74p0b98"><path id="ey2kgd74p0b99" d="M82.940000,148.720000C82.855174,148.739787,82.792909,148.812198,82.786054,148.899031C82.779199,148.985863,82.829330,149.067148,82.910000,149.100000L92.550000,154.030000C92.614306,153.912162,92.680985,153.795473,92.750000,153.680000L83.110000,148.730000C83.058990,148.707737,83.001010,148.707737,82.950000,148.730000Z" fill="rgb(255,102,0)" stroke="none" stroke-width="1"/><path id="ey2kgd74p0b100" d="M108.800000,138.480000C108.731888,138.498674,108.678674,138.551888,108.660000,138.620000L104.980000,148.890000C105.114097,148.920767,105.247457,148.954107,105.380000,148.990000L109.050000,138.740000C109.082749,138.666847,109.068663,138.581209,109.014209,138.522399C108.959756,138.463589,108.875452,138.442967,108.800000,138.470000Z" fill="rgb(255,102,0)" stroke="none" stroke-width="1"/><path id="ey2kgd74p0b101" d="M93.480000,164.900000L85.210000,171.540000C85.121634,171.611797,85.108203,171.741634,85.180000,171.830000C85.251797,171.918366,85.381634,171.931797,85.470000,171.860000L93.770000,165.200000C93.674486,165.101898,93.581133,165.001877,93.490000,164.900000Z" fill="rgb(255,102,0)" stroke="none" stroke-width="1"/><path id="ey2kgd74p0b102" d="M112.200000,158.800000C112.192778,158.933428,112.182776,159.066788,112.170000,159.200000L122.770000,159.700000C122.880457,159.727614,122.992386,159.660457,123.020000,159.550000C123.047614,159.439543,122.980457,159.327614,122.870000,159.300000C122.846848,159.295885,122.823152,159.295885,122.800000,159.300000Z" fill="rgb(255,102,0)" stroke="none" stroke-width="1"/></g></g></g></g><path id="ey2kgd74p0b103" d="M117.170000,200.570000C118.770000,201.100000,119.920000,205.770000,119.150000,206.520000C119.150000,206.520000,116.450000,206.370000,115.950000,205.380000C115.210000,203.960000,117.170000,200.580000,117.170000,200.580000Z" fill="rgb(53,57,66)" stroke="none" stroke-width="1"/></g></g><ellipse id="ey2kgd74p0b104" rx="4.764000" ry="15.351000" transform="matrix(0.93664200000000 0.35028900000000 -0.35028900000000 0.93664200000000 51.74462617799999 229.83562079099997)" paint-order="fill markers stroke" fill="rgb(53,57,66)" stroke="none" stroke-width="1"/><g id="ey2kgd74p0b105"><path id="ey2kgd74p0b106" d="M81.350000,177.860000C75.200000,177.860000,62.450000,181.910000,59.800000,194.310000C56.520000,209.610000,52.600000,225.210000,54.120000,237.240000C55.420000,247.440000,62.070000,261.540000,81.350000,261.540000C100.630000,261.540000,107.280000,247.440000,108.580000,237.240000C110.110000,225.210000,106.180000,209.620000,102.900000,194.320000C100.240000,181.920000,87.500000,177.880000,81.350000,177.880000Z" fill="rgb(53,57,66)" stroke="none" stroke-width="1"/><path id="ey2kgd74p0b107" d="M71.900000,188.500000C67.650000,188.560000,63.750000,191.860000,62.430000,197.980000C59.550000,211.410000,56.110000,225.080000,57.450000,235.650000C58.590000,244.610000,64.420000,256.980000,81.350000,256.980000C98.280000,256.980000,104.110000,244.610000,105.250000,235.650000C106.590000,225.090000,103.150000,211.410000,100.270000,197.980000C97.930000,187.080000,87.400000,185.130000,81.350000,194.400000C78.700000,190.340000,75.200000,188.440000,71.900000,188.500000Z" fill="rgb(255,255,255)" stroke="none" stroke-width="1"/></g><path id="ey2kgd74p0b108" d="M61.270000,261.460000L73.970000,261.460000C73.970000,260.060000,70.490000,256.240000,67.620000,256.300000C64.540000,256.370000,61.270000,259.070000,61.270000,261.460000Z" fill="rgb(255,102,0)" stroke="none" stroke-width="1"/><path id="ey2kgd74p0b109" d="M101.430000,261.460000L88.730000,261.460000C88.730000,260.060000,92.210000,256.240000,95.080000,256.300000C98.160000,256.370000,101.430000,259.070000,101.430000,261.460000Z" fill="rgb(255,102,0)" stroke="none" stroke-width="1"/><g id="ey2kgd74p0b110"><path id="ey2kgd74p0b111" d="M72.250000,196.930000C71.406612,196.930000,70.597766,197.265035,70.001400,197.861400C69.405035,198.457766,69.070000,199.266612,69.070000,200.110000C69.064674,200.956848,69.397356,201.770841,69.994300,202.371540C70.591244,202.972238,71.403135,203.310017,72.250000,203.310000C73.096865,203.310017,73.908756,202.972238,74.505700,202.371540C75.102644,201.770841,75.435326,200.956848,75.430000,200.110000C75.424489,198.357641,74.002368,196.939991,72.250000,196.940000ZM72.250000,197.660000C73.603098,197.660000,74.700000,198.756902,74.700000,200.110000C74.697746,200.582636,74.558830,201.044530,74.300000,201.440000C73.850090,200.743960,73.078785,200.322564,72.250000,200.320000C71.413780,200.323542,70.637118,200.753344,70.190000,201.460000C69.931170,201.064530,69.792254,200.602636,69.790000,200.130000C69.795507,198.780809,70.890798,197.689989,72.240000,197.690000Z" paint-order="fill markers stroke" fill="rgb(26,26,26)" stroke="none" stroke-width="1"/><path id="ey2kgd74p0b112" d="M90.450000,196.930000C91.293388,196.930000,92.102234,197.265035,92.698600,197.861400C93.294965,198.457766,93.630000,199.266612,93.630000,200.110000C93.635326,200.956848,93.302644,201.770841,92.705700,202.371540C92.108756,202.972238,91.296865,203.310017,90.450000,203.310000C89.603135,203.310017,88.791244,202.972238,88.194300,202.371540C87.597356,201.770841,87.264674,200.956848,87.270000,200.110000C87.275511,198.357641,88.697632,196.939991,90.450000,196.940000ZM90.450000,197.660000C89.100798,197.659989,88.005507,198.750809,88,200.100000C88.002254,200.572636,88.141170,201.034530,88.400000,201.430000C88.849910,200.733960,89.621215,200.312564,90.450000,200.310000C91.286220,200.313542,92.062882,200.743344,92.510000,201.450000C92.768830,201.054530,92.907746,200.592636,92.910000,200.120000C92.904493,198.770809,91.809202,197.679989,90.460000,197.680000Z" paint-order="fill markers stroke" fill="rgb(26,26,26)" stroke="none" stroke-width="1"/><path id="ey2kgd74p0b113" d="M81.350000,203.740000C77.250000,203.740000,77.010000,207.810000,77.010000,207.810000L81.360000,210.810000L85.700000,207.810000C85.700000,207.810000,85.440000,203.750000,81.350000,203.750000Z" fill="rgb(255,102,0)" stroke="none" stroke-width="1"/></g></g></g></g></g></svg>