<?xml version="1.0" encoding="UTF-8" standalone="no"?>
<svg
   xmlns:dc="http://purl.org/dc/elements/1.1/"
   xmlns:cc="http://creativecommons.org/ns#"
   xmlns:rdf="http://www.w3.org/1999/02/22-rdf-syntax-ns#"
   xmlns:svg="http://www.w3.org/2000/svg"
   xmlns="http://www.w3.org/2000/svg"
   xmlns:sodipodi="http://sodipodi.sourceforge.net/DTD/sodipodi-0.dtd"
   xmlns:inkscape="http://www.inkscape.org/namespaces/inkscape"
   inkscape:version="1.0 (1.0+r73+1)"
   sodipodi:docname="module_card_joke.svg"
   id="svg92"
   viewBox="0 0 279.98816 320.52657"
   version="1.1"
   height="1211.4287"
   width="1058.2595">
  <defs
     id="defs96" />
  <sodipodi:namedview
     inkscape:current-layer="svg92"
     inkscape:cy="673.79326"
     inkscape:cx="1193.3402"
     inkscape:zoom="0.29541922"
     fit-margin-bottom="0"
     fit-margin-right="0"
     fit-margin-left="0"
     fit-margin-top="0"
     showgrid="false"
     id="namedview94"
     inkscape:window-height="480"
     inkscape:window-width="640"
     inkscape:pageshadow="2"
     inkscape:pageopacity="0"
     guidetolerance="10"
     gridtolerance="10"
     objecttolerance="10"
     borderopacity="1"
     bordercolor="#666666"
     pagecolor="#ffffff" />
  <metadata
     id="metadata2">
    <rdf:RDF>
      <cc:Work
         rdf:about="">
        <dc:format>image/svg+xml</dc:format>
        <dc:type
           rdf:resource="http://purl.org/dc/dcmitype/StillImage" />
        <dc:title></dc:title>
        <dc:creator>
          <cc:Agent>
            <dc:title>Artur S</dc:title>
          </cc:Agent>
        </dc:creator>
      </cc:Work>
    </rdf:RDF>
  </metadata>
  <rect
     y="0"
     x="-0.0059792986"
     height="320.52658"
     width="280.00021"
     id="rect98"
     style="fill:none;stroke-width:2.45614;stroke-linecap:round;stroke-linejoin:round;paint-order:fill markers stroke" />
  <g
     transform="translate(1.1248753,93.581775)"
     id="g144">
    <g
       stroke-width="4.9459"
       id="g10">
      <path
         d="m 143.87,69.195 c 6.1547,2.3322 10.002,4.4595 9.184,8.1785 l 8.0198,0.3561 c -0.71607,-4.1751 -0.0861,-7.7423 5.899,-9.1885 -7.0479,0.01533 -8.1404,0.6907 -9.0396,6.1626 -4.1682,-3.9508 -9.1435,-4.6177 -14.063,-5.5087 z"
         fill="#353942"
         id="path4" />
      <path
         d="m 156.64,74.972 c -10.742,0 -33.025,7.0642 -37.676,28.753 -5.7328,26.734 -12.592,53.989 -9.914,75.019 2.2698,17.826 13.882,42.465 47.59,42.465 33.708,0 45.32,-24.64 47.59,-42.465 2.6776,-21.028 -4.1812,-48.283 -9.914,-75.019 C 189.6648,82.036 167.382,74.972 156.64,74.972 Z"
         fill="#353942"
         id="path6" />
      <path
         d="m 140.12,93.549 c -7.4198,0.11474 -14.25,5.8807 -16.546,16.59 -5.0325,23.467 -11.053,47.393 -8.7028,65.85 1.9924,15.647 12.184,37.275 41.773,37.275 29.589,0 39.783,-21.627 41.776,-37.275 2.3505,-18.459 -3.6703,-42.385 -8.7028,-65.85 -4.0827,-19.039 -22.498,-22.458 -33.073,-6.2645 -4.6263,-7.085 -10.753,-10.415 -16.524,-10.326 z"
         fill="#ffffff"
         id="path8" />
    </g>
    <g
       transform="matrix(4.9459,0,0,4.9459,-1648.6,-205.52)"
       fill="#ff6600"
       id="g18">
      <path
         d="m 357.9,86.259 h 4.4901 c 0,-0.49423 -1.2309,-1.8461 -2.2451,-1.8241 -1.0904,0.0236 -2.2451,0.97708 -2.2451,1.8241 z"
         id="path12" />
      <path
         d="m 372.09,86.259 h -4.4901 c 0,-0.49423 1.2309,-1.8461 2.2451,-1.8241 1.0904,0.0236 2.2451,0.97708 2.2451,1.8241 z"
         id="path14" />
      <path
         d="m 364.99,65.511 c -1.4436,0 -1.5332,1.4387 -1.5332,1.4387 l 1.5332,1.0583 1.5332,-1.0583 c 0,0 -0.0897,-1.4387 -1.5332,-1.4387 z"
         id="path16" />
    </g>
    <g
       transform="matrix(4.9459,0,0,4.9459,-1648.6,-205.52)"
       id="g28">
      <path
         d="m 361.78,62.795 c -0.59989,6.6e-5 -1.0857,0.47189 -1.1167,1.064 0.24215,-0.35798 0.65199,-0.5932 1.1167,-0.59325 0.46474,5e-5 0.87461,0.23527 1.1167,0.59325 -0.031,-0.59213 -0.51681,-1.064 -1.1167,-1.064 z"
         fill="#1a1a1a"
         style="paint-order:fill markers stroke"
         id="path20" />
      <path
         d="m 368.21,62.795 c -0.59989,6.6e-5 -1.0857,0.47189 -1.1167,1.064 0.24214,-0.35798 0.65198,-0.5932 1.1167,-0.59325 0.46474,5e-5 0.87461,0.23527 1.1167,0.59325 -0.031,-0.59213 -0.51681,-1.064 -1.1167,-1.064 z"
         fill="#1a1a1a"
         style="paint-order:fill markers stroke"
         id="path22" />
      <ellipse
         transform="rotate(37.72)"
         cx="326.12"
         cy="-165.42999"
         rx="1.6838"
         ry="5.4256001"
         fill="#353942"
         style="paint-order:fill markers stroke"
         id="ellipse24" />
      <ellipse
         transform="matrix(-0.79101,0.61181,0.61181,0.79101,0,0)"
         cx="-251.31"
         cy="281.17999"
         rx="1.6838"
         ry="5.4256001"
         fill="#353942"
         style="paint-order:fill markers stroke"
         id="ellipse26" />
    </g>
    <g
       transform="matrix(-0.48896,0,0,0.52364,161.33,-22.143)"
       stroke="#000000"
       id="g44">
      <title
         id="title30">Circle Balloon</title>
      <path
         d="M 330,125 A 125,70 0 0 1 205,195 125,70 0 0 1 80,125 125,70 0 0 1 205,55 125,70 0 0 1 330,125"
         stroke="none"
         id="path32" />
      <path
         d="m 110,166 c 11,21 -10,30 -22,43 32,-3 59,-7 70,-26"
         stroke="none"
         id="path34" />
      <path
         d="M 325,120 A 125,70 0 0 1 200,190 125,70 0 0 1 75,120 125,70 0 0 1 200,50 125,70 0 0 1 325,120"
         fill="#eeeeee"
         stroke-width="3.5"
         id="path36" />
      <path
         d="m 106,162 c 11,21 -10,30 -22,43 32,-3 59,-7 70,-26"
         fill="#eeeeee"
         stroke-width="3.5"
         id="path38" />
      <path
         d="M 314,117 A 117,63 0 0 1 197,180 117,63 0 0 1 80,117 117,63 0 0 1 197,54 117,63 0 0 1 314,117"
         fill="#ffffff"
         stroke="none"
         id="path40" />
      <path
         d="m 103,149 c 14,25 9,34 -6,47 30,-3 50,-10 58,-31"
         fill="#ffffff"
         stroke="none"
         id="path42" />
    </g>
    <g
       stroke-width="1.2356"
       aria-label="Haha"
       id="g54">
      <path
         d="m 24.851,51.863 q 0,1.7759 -0.18122,2.682 -0.18122,0.9061 -0.43492,1.0873 -0.2537,0.21746 -0.72486,0.21746 -1.6309,0 -2.1021,-3.1169 -0.43492,-3.1531 -0.90608,-13.7 -0.28994,-6.6325 -0.28994,-10.547 0,-3.1169 0.32619,-3.8418 0.68862,-1.3047 1.6309,-1.3047 0.28994,0 0.54364,0.18122 0.47116,0.86983 0.97856,7.2124 0.54364,6.3063 0.94232,7.1761 3.5518,-1.2685 8.0097,-2.5733 2.1746,-0.43492 2.8994,-0.72486 0.36243,-0.47116 0.7611,-3.4793 0.39867,-3.0444 0.79735,-3.733 0.28994,-0.47116 1.1235,-0.47116 0.86983,0 1.1598,0.54364 0.5074,1.051 0.65237,8.1909 0.03624,1.341 0.07249,3.2619 0.03624,2.8632 0.07249,5.074 0.07249,2.1746 0.10873,3.3344 0.07249,1.1235 0.10873,1.9209 0.03624,0.7611 0.07249,1.0148 0.03624,0.2537 0.03624,0.47116 0.03624,0.18122 0.03624,0.36243 0,0.57989 -0.5074,0.90608 -0.5074,0.32619 -1.196,0.32619 -0.65237,0 -1.0873,-0.32619 -0.68862,-0.79735 -0.90608,-3.4793 -0.21746,-2.7182 -0.28994,-6.0888 -0.07249,-3.3706 -0.32619,-4.7478 -0.2537,0.07249 -3.0807,1.3047 -2.827,1.2323 -5.6539,2.2108 l -2.9357,1.051 0.21746,6.1976 q 0.07249,2.6095 0.07249,3.4068 z"
         id="path46" />
      <path
         d="m 56.264,49.507 q 0,-0.43492 1.196,-1.4497 1.196,-1.01478 1.2323,-1.3047 0,-0.14497 -0.21746,-0.39867 -0.21746,-0.2537 -1.1598,-0.57989 -0.90608,-0.32619 -2.392,-0.32619 -1.5947,0 -2.7907,0.47116 -1.1598,0.47116 -1.7397,1.1598 -0.5799,0.68864 -0.83359,1.2685 -0.25369,0.57986 -0.2537,1.0148 0,0.72486 0.10873,0.94232 0.14497,0.18122 0.68862,0.43492 0.83359,0.32619 1.341,0.32619 0.79735,0 1.9934,-0.39867 1.19605,-0.39867 2.0296,-0.7611 z m 6.5237,2.3196 q -0.07249,0.83359 -0.65237,1.4497 -0.54364,0.57989 -0.90608,0.57989 -0.21746,0 -0.43492,-0.07249 -0.18122,-0.07249 -0.36243,-0.2537 -0.14497,-0.21746 -0.28994,-0.36243 -0.10873,-0.18122 -0.21746,-0.5074 -0.07249,-0.32619 -0.14497,-0.5074 -0.07249,-0.21746 -0.14497,-0.61613 -0.07249,-0.39867 -0.10873,-0.57989 0,-0.18122 -0.07249,-0.57989 -0.07249,-0.39867 -0.07249,-0.5074 -1.1598,1.341 -3.4431,2.6095 -2.2471,1.2323 -3.8418,1.2323 -1.0148,0 -2.4283,-0.32619 -1.4135,-0.32619 -2.0659,-0.79735 -1.1235,-0.83359 -1.1235,-3.5518 0,-1.5947 0.90608,-2.7545 0.90608,-1.1598 3.2619,-2.3196 2.6457,-1.341 4.9653,-1.341 1.0148,0 1.6672,0.2537 0.68862,0.2537 1.051,0.61613 0.39867,0.32619 0.43492,0.32619 0.57989,0.10873 1.0148,0.47116 0,-2.392 -0.21746,-3.9867 -0.18122,-1.6309 -0.54364,-2.392 -0.36242,-0.7611 -0.72486,-1.051 -0.36244,-0.2899 -0.86983,-0.28994 -1.7397,0 -3.7693,0.68862 -1.9934,0.68862 -3.6243,1.4135 -1.5947,0.68862 -2.3196,0.68862 -0.90608,0 -0.90608,-0.83359 0,-0.5074 0.21746,-0.90608 0.21746,-0.43492 0.5074,-0.72486 0.32619,-0.28994 0.97856,-0.57989 0.68862,-0.32619 1.2323,-0.5074 0.57989,-0.21746 1.6672,-0.57989 1.0873,-0.39867 1.8846,-0.68862 2.1746,-0.7611 3.8055,-0.7611 2.9357,0 4.3854,2.7545 0.65237,1.2323 0.7611,2.2471 0.14497,1.0148 0.21746,5.9076 0.07249,4.6029 0.32619,7.1399 z"
         id="path48" />
      <path
         d="m 68.53,50.232 q 0,-2.9357 -0.72486,-11.67 -0.68862,-8.7708 -0.68862,-11.38 0,-2.0659 0.28994,-2.5008 0.61613,-1.0148 1.2685,-1.0148 0.97856,0 1.2323,1.5222 0.28994,1.486 0.72486,7.901 0.2537,3.4431 0.39867,5.6177 l 0.18122,2.5008 q 1.051,-1.8122 4.1317,-4.3854 3.1169,-2.6095 4.3492,-2.6095 1.2323,0 2.4283,1.051 1.196,1.051 1.5584,2.3196 0.32619,1.1235 0.32619,8.5171 v 0.7611 q 0,7.0674 -1.4497,7.0674 -0.7611,0 -0.97856,-1.1235 -0.18122,-1.1235 -0.28994,-4.6391 -0.03624,-1.1598 -0.07249,-1.8122 -0.21746,-6.8862 -0.94232,-8.807 l -0.39867,-1.1235 -1.7397,1.4497 q -1.8484,1.5222 -3.3344,3.5156 -1.486,1.9934 -2.0296,3.5156 -0.2537,0.90608 -0.54364,3.5156 -0.2537,2.6095 -0.68862,4.3492 -0.43492,1.7397 -1.2685,1.7397 -0.36243,0 -0.90608,-0.43492 -0.83359,-0.65237 -0.83359,-3.8418 z"
         id="path50" />
      <path
         d="m 99.657,49.507 q 0,-0.43492 1.196,-1.4497 1.196,-1.0148 1.2323,-1.3047 0,-0.14497 -0.21746,-0.39867 -0.21746,-0.2537 -1.1598,-0.57989 -0.90607,-0.32619 -2.392,-0.32619 -1.5947,0 -2.7907,0.47116 -1.1598,0.47116 -1.7397,1.1598 -0.5799,0.68864 -0.83359,1.2685 -0.25369,0.57986 -0.2537,1.0148 0,0.72486 0.10873,0.94232 0.14497,0.18122 0.68862,0.43492 0.83359,0.32619 1.341,0.32619 0.79735,0 1.9934,-0.39867 1.19605,-0.39867 2.0296,-0.7611 z m 6.5237,2.3196 q -0.0725,0.83359 -0.65238,1.4497 -0.54364,0.57989 -0.90607,0.57989 -0.21746,0 -0.43492,-0.07249 -0.18121,-0.07249 -0.36243,-0.2537 -0.14497,-0.21746 -0.28994,-0.36243 -0.10873,-0.18122 -0.21746,-0.5074 -0.0725,-0.32619 -0.14497,-0.5074 -0.0725,-0.21746 -0.14497,-0.61613 -0.0725,-0.39867 -0.10873,-0.57989 0,-0.18122 -0.0725,-0.57989 -0.0725,-0.39867 -0.0725,-0.5074 -1.1598,1.341 -3.4431,2.6095 -2.2471,1.2323 -3.8418,1.2323 -1.0148,0 -2.4283,-0.32619 -1.4135,-0.32619 -2.0659,-0.79735 -1.1235,-0.83359 -1.1235,-3.5518 0,-1.5947 0.90608,-2.7545 0.90608,-1.1598 3.2619,-2.3196 2.6457,-1.341 4.9653,-1.341 1.0148,0 1.6672,0.2537 0.68862,0.2537 1.051,0.61613 0.39867,0.32619 0.43491,0.32619 0.57989,0.10873 1.0148,0.47116 0,-2.392 -0.21746,-3.9867 -0.18121,-1.6309 -0.54364,-2.392 -0.36243,-0.7611 -0.72486,-1.051 -0.36243,-0.2899 -0.86984,-0.28994 -1.7397,0 -3.7693,0.68862 -1.9934,0.68862 -3.6243,1.4135 -1.5947,0.68862 -2.3196,0.68862 -0.90608,0 -0.90608,-0.83359 0,-0.5074 0.21746,-0.90608 0.21746,-0.43492 0.5074,-0.72486 0.32619,-0.28994 0.97856,-0.57989 0.68862,-0.32619 1.2323,-0.5074 0.57989,-0.21746 1.6672,-0.57989 1.0873,-0.39867 1.8846,-0.68862 2.1746,-0.7611 3.8055,-0.7611 2.9357,0 4.3854,2.7545 0.65237,1.2323 0.7611,2.2471 0.14497,1.0148 0.21746,5.9076 0.0725,4.6029 0.32619,7.1399 z"
         id="path52" />
    </g>
    <g
       transform="matrix(0.42041,0,0,0.43746,139.03,-21.111)"
       stroke="#000000"
       id="g80">
      <title
         id="title56">Circle Balloon</title>
      <g
         stroke="none"
         id="g78">
        <path
           d="M 330,125 A 125,70 0 0 1 205,195 125,70 0 0 1 80,125 125,70 0 0 1 205,55 125,70 0 0 1 330,125"
           id="path58" />
        <path
           d="m 110,166 c 11,21 -10,30 -22,43 32,-3 59,-7 70,-26"
           id="path60" />
        <g
           shape-rendering="auto"
           id="g66">
          <path
             d="m 325,120 c 0,38.66 -55.964,70 -125,70 -69.036,0 -125,-31.34 -125,-70 0,-38.66 55.964,-70 125,-70 69.036,0 125,31.34 125,70"
             color="#000000"
             color-rendering="auto"
             dominant-baseline="auto"
             fill="#eeeeee"
             image-rendering="auto"
             solid-color="#000000"
             stop-color="#000000"
             style="font-variant-ligatures:normal;font-variant-position:normal;font-variant-caps:normal;font-variant-numeric:normal;font-variant-alternates:normal;font-variant-east-asian:normal;font-feature-settings:normal;font-variation-settings:normal;text-indent:0;text-decoration:none;text-decoration-line:none;text-decoration-style:solid;text-decoration-color:#000000;text-transform:none;text-orientation:mixed;white-space:normal;shape-padding:0;shape-margin:0;inline-size:0;isolation:auto;mix-blend-mode:normal"
             id="path62" />
          <path
             d="m 200,48.25 c -34.783,0 -66.292,7.8736 -89.244,20.727 C 87.804,81.83 73.25,99.826 73.25,120 c 0,20.174 14.554,38.171 37.506,51.023 22.952,12.853 54.462,20.727 89.244,20.727 34.782,0 66.292,-7.8736 89.244,-20.727 C 312.196,158.1696 326.75,140.174 326.75,120 326.75,99.826 312.196,81.829 289.244,68.977 266.292,56.124 234.782,48.25 200,48.25 Z m 0,3.5 c 34.253,0 65.244,7.7972 87.533,20.279 22.289,12.482 35.717,29.485 35.717,47.971 0,18.486 -13.427,35.489 -35.717,47.971 -22.289,12.482 -53.28,20.279 -87.533,20.279 -34.253,0 -65.244,-7.7972 -87.533,-20.279 C 90.178,155.489 76.75,138.486 76.75,120 76.75,101.514 90.177,84.511 112.467,72.029 134.756,59.547 165.747,51.75 200,51.75 Z"
             color="#000000"
             color-rendering="auto"
             dominant-baseline="auto"
             image-rendering="auto"
             solid-color="#000000"
             stop-color="#000000"
             style="font-variant-ligatures:normal;font-variant-position:normal;font-variant-caps:normal;font-variant-numeric:normal;font-variant-alternates:normal;font-variant-east-asian:normal;font-feature-settings:normal;font-variation-settings:normal;text-indent:0;text-decoration:none;text-decoration-line:none;text-decoration-style:solid;text-decoration-color:#000000;text-transform:none;text-orientation:mixed;white-space:normal;shape-padding:0;shape-margin:0;inline-size:0;isolation:auto;mix-blend-mode:normal"
             id="path64" />
        </g>
        <g
           shape-rendering="auto"
           id="g72">
          <path
             d="m 106,162 c 11,21 -10,30 -22,43 32,-3 59,-7 70,-26"
             color="#000000"
             color-rendering="auto"
             dominant-baseline="auto"
             fill="#eeeeee"
             image-rendering="auto"
             solid-color="#000000"
             stop-color="#000000"
             style="font-variant-ligatures:normal;font-variant-position:normal;font-variant-caps:normal;font-variant-numeric:normal;font-variant-alternates:normal;font-variant-east-asian:normal;font-feature-settings:normal;font-variation-settings:normal;text-indent:0;text-decoration:none;text-decoration-line:none;text-decoration-style:solid;text-decoration-color:#000000;text-transform:none;text-orientation:mixed;white-space:normal;shape-padding:0;shape-margin:0;inline-size:0;isolation:auto;mix-blend-mode:normal"
             id="path68" />
          <path
             d="m 107.55,161.19 -3.1016,1.625 c 2.62,5.0018 3.2587,9.0784 2.7109,12.674 -0.54775,3.5955 -2.321,6.8005 -4.8828,9.8984 -5.1235,6.1959 -13.354,11.702 -19.562,18.428 l -3.0977,3.3555 4.5469,-0.42578 c 16.026,-1.5025 30.868,-3.2474 43.229,-7.0703 12.361,-3.823 22.337,-9.8037 28.121,-19.795 l -3.0273,-1.7539 c -5.2156,9.0088 -14.24,14.528 -26.129,18.205 -10.566,3.2679 -23.529,4.9397 -37.449,6.3398 5.2976,-4.8923 11.516,-9.5522 16.064,-15.053 2.8132,-3.402 4.9774,-7.197 5.6484,-11.602 0.67101,-4.4045 -0.19027,-9.3279 -3.0703,-14.826 z"
             color="#000000"
             color-rendering="auto"
             dominant-baseline="auto"
             image-rendering="auto"
             solid-color="#000000"
             stop-color="#000000"
             style="font-variant-ligatures:normal;font-variant-position:normal;font-variant-caps:normal;font-variant-numeric:normal;font-variant-alternates:normal;font-variant-east-asian:normal;font-feature-settings:normal;font-variation-settings:normal;text-indent:0;text-decoration:none;text-decoration-line:none;text-decoration-style:solid;text-decoration-color:#000000;text-transform:none;text-orientation:mixed;white-space:normal;shape-padding:0;shape-margin:0;inline-size:0;isolation:auto;mix-blend-mode:normal"
             id="path70" />
        </g>
        <path
           d="M 314,117 A 117,63 0 0 1 197,180 117,63 0 0 1 80,117 117,63 0 0 1 197,54 117,63 0 0 1 314,117"
           fill="#ffffff"
           id="path74" />
        <path
           d="m 103,149 c 14,25 9,34 -6,47 30,-3 50,-10 58,-31"
           fill="#ffffff"
           id="path76" />
      </g>
    </g>
    <g
       stroke-width="1.0622"
       aria-label="Hihi"
       id="g90">
      <path
         d="m 202.01,43.09 q 0,1.5268 -0.1558,2.3058 -0.15579,0.77898 -0.37391,0.93477 -0.21811,0.18695 -0.62318,0.18695 -1.4022,0 -1.8072,-2.6797 -0.37391,-2.7108 -0.77897,-11.778 -0.24928,-5.7021 -0.24928,-9.0673 0,-2.6797 0.28043,-3.3029 0.59203,-1.1217 1.4022,-1.1217 0.24927,0 0.46738,0.1558 0.40507,0.74782 0.8413,6.2006 0.46738,5.4217 0.81013,6.1695 3.0536,-1.0906 6.8861,-2.2123 1.8695,-0.37391 2.4927,-0.62318 0.31159,-0.40507 0.65434,-2.9913 0.34275,-2.6174 0.6855,-3.2094 0.24927,-0.40507 0.96593,-0.40507 0.74781,0 0.99708,0.46738 0.43623,0.90361 0.56087,7.0419 0.0312,1.1529 0.0623,2.8043 0.0312,2.4616 0.0623,4.3623 0.0623,1.8695 0.0935,2.8666 0.0623,0.96593 0.0935,1.6514 0.0312,0.65434 0.0623,0.87245 0.0312,0.21811 0.0312,0.40507 0.0312,0.1558 0.0312,0.31159 0,0.49854 -0.43622,0.77898 -0.43623,0.28043 -1.0282,0.28043 -0.56086,0 -0.93477,-0.28043 -0.59202,-0.6855 -0.77898,-2.9913 -0.18695,-2.3369 -0.24927,-5.2347 -0.0623,-2.8978 -0.28043,-4.0818 -0.21811,0.06232 -2.6485,1.1217 -2.4304,1.0594 -4.8608,1.9007 l -2.5239,0.90361 0.18696,5.3282 q 0.0623,2.2434 0.0623,2.9289 z"
         id="path82" />
      <path
         d="m 221.38,26.887 q 0.52971,-0.37391 1.0282,-0.37391 0.49849,0 0.84129,0.40507 0.49855,0.93477 0.81014,5.4217 0.34275,4.4869 0.34275,8.3818 0,2.8043 -0.18696,3.1782 -0.62318,0.49854 -1.3398,0.49854 -1.0906,0 -1.3398,-0.65434 -0.1558,-0.49854 -0.49855,-6.4811 -0.31159,-6.0137 -0.31159,-8.039 0,-1.9007 0.65434,-2.3369 z m -0.34275,-7.2912 q 0.0623,-0.59202 0.49855,-0.96593 0.46738,-0.37391 0.90361,-0.37391 0.43623,0 1.1217,0.40507 0.6855,0.40507 0.6855,1.0906 0,0.74782 -0.37391,1.3398 -0.3739,0.59202 -0.99708,0.59202 -0.65434,0 -1.2464,-0.59202 -0.59203,-0.62318 -0.59203,-1.4956 z"
         id="path84" />
      <path
         d="m 230.07,41.688 q 0,-2.5239 -0.62318,-10.033 -0.59202,-7.5405 -0.59202,-9.7839 0,-1.7761 0.24927,-2.15 0.5297,-0.87245 1.0906,-0.87245 0.8413,0 1.0594,1.3087 0.24927,1.2775 0.62318,6.7927 0.21811,2.9601 0.34275,4.8296 l 0.15579,2.15 q 0.90361,-1.558 3.5521,-3.7702 2.6797,-2.2434 3.7391,-2.2434 1.0594,0 2.0876,0.90361 1.0282,0.90361 1.3398,1.9942 0.28043,0.96593 0.28043,7.3224 v 0.65434 q 0,6.076 -1.2464,6.076 -0.65434,0 -0.84129,-0.96593 -0.1558,-0.96593 -0.24928,-3.9884 -0.0311,-0.99709 -0.0623,-1.558 -0.18696,-5.9202 -0.81014,-7.5716 l -0.34275,-0.96593 -1.4956,1.2464 q -1.5891,1.3087 -2.8666,3.0224 -1.2775,1.7137 -1.7449,3.0224 -0.21811,0.77898 -0.46739,3.0224 -0.21811,2.2434 -0.59202,3.7391 -0.3739,1.4956 -1.0906,1.4956 -0.31159,0 -0.77898,-0.37391 -0.71665,-0.56086 -0.71665,-3.3029 z"
         id="path86" />
      <path
         d="m 249.19,26.887 q 0.5297,-0.37391 1.0282,-0.37391 0.49855,0 0.8413,0.40507 0.49854,0.93477 0.81013,5.4217 0.34275,4.4869 0.34275,8.3818 0,2.8043 -0.18695,3.1782 -0.62318,0.49854 -1.3398,0.49854 -1.0906,0 -1.3398,-0.65434 -0.15579,-0.49854 -0.49854,-6.4811 -0.31159,-6.0137 -0.31159,-8.039 0,-1.9007 0.65434,-2.3369 z m -0.34275,-7.2912 q 0.0623,-0.59202 0.49854,-0.96593 0.46739,-0.37391 0.90361,-0.37391 0.43623,0 1.1217,0.40507 0.68549,0.40507 0.68549,1.0906 0,0.74782 -0.3739,1.3398 -0.37391,0.59202 -0.99709,0.59202 -0.65434,0 -1.2464,-0.59202 -0.59202,-0.62318 -0.59202,-1.4956 z"
         id="path88" />
    </g>
  </g>
</svg>
