<?xml version="1.0" encoding="UTF-8"?>
<svg width="1049.8" height="836.1" version="1.1" viewBox="0 0 277.75 221.22" xmlns="http://www.w3.org/2000/svg" xmlns:cc="http://creativecommons.org/ns#" xmlns:dc="http://purl.org/dc/elements/1.1/" xmlns:rdf="http://www.w3.org/1999/02/22-rdf-syntax-ns#">
 <metadata>
  <rdf:RDF>
   <cc:Work rdf:about="">
    <dc:format>image/svg+xml</dc:format>
    <dc:type rdf:resource="http://purl.org/dc/dcmitype/StillImage"/>
    <dc:title/>
    <dc:creator>
     <cc:Agent>
      <dc:title>Artur S</dc:title>
     </cc:Agent>
    </dc:creator>
   </cc:Work>
  </rdf:RDF>
 </metadata>
 <g stroke-width="4.9459">
  <path d="m143.87 69.195c6.1547 2.3322 10.002 4.4595 9.184 8.1785l8.0198 0.3561c-0.71607-4.1751-0.0861-7.7423 5.899-9.1885-7.0479 0.01533-8.1404 0.6907-9.0396 6.1626-4.1682-3.9508-9.1435-4.6177-14.063-5.5087z" fill="#353942"/>
  <path d="m156.64 74.972c-10.742 0-33.025 7.0642-37.676 28.753-5.7328 26.734-12.592 53.989-9.914 75.019 2.2698 17.826 13.882 42.465 47.59 42.465 33.708 0 45.32-24.64 47.59-42.465 2.6776-21.028-4.1812-48.283-9.914-75.019-4.6512-21.689-26.934-28.753-37.676-28.753z" fill="#353942"/>
  <path d="m140.12 93.549c-7.4198 0.11474-14.25 5.8807-16.546 16.59-5.0325 23.467-11.053 47.393-8.7028 65.85 1.9924 15.647 12.184 37.275 41.773 37.275 29.589 0 39.783-21.627 41.776-37.275 2.3505-18.459-3.6703-42.385-8.7028-65.85-4.0827-19.039-22.498-22.458-33.073-6.2645-4.6263-7.085-10.753-10.415-16.524-10.326z" fill="#fff"/>
 </g>
 <g transform="matrix(4.9459 0 0 4.9459 -1648.6 -205.52)" fill="#f60">
  <path d="m357.9 86.259h4.4901c0-0.49423-1.2309-1.8461-2.2451-1.8241-1.0904 0.0236-2.2451 0.97708-2.2451 1.8241z"/>
  <path d="m372.09 86.259h-4.4901c0-0.49423 1.2309-1.8461 2.2451-1.8241 1.0904 0.0236 2.2451 0.97708 2.2451 1.8241z"/>
  <path d="m364.99 65.511c-1.4436 0-1.5332 1.4387-1.5332 1.4387l1.5332 1.0583 1.5332-1.0583s-0.0897-1.4387-1.5332-1.4387z"/>
 </g>
 <g transform="matrix(4.9459 0 0 4.9459 -1648.6 -205.52)">
  <path d="m361.78 62.795c-0.59989 6.6e-5 -1.0857 0.47189-1.1167 1.064 0.24215-0.35798 0.65199-0.5932 1.1167-0.59325 0.46474 5e-5 0.87461 0.23527 1.1167 0.59325-0.031-0.59213-0.51681-1.064-1.1167-1.064z" fill="#1a1a1a" style="paint-order:fill markers stroke"/>
  <path d="m368.21 62.795c-0.59989 6.6e-5 -1.0857 0.47189-1.1167 1.064 0.24214-0.35798 0.65198-0.5932 1.1167-0.59325 0.46474 5e-5 0.87461 0.23527 1.1167 0.59325-0.031-0.59213-0.51681-1.064-1.1167-1.064z" fill="#1a1a1a" style="paint-order:fill markers stroke"/>
  <ellipse transform="rotate(37.72)" cx="326.12" cy="-165.43" rx="1.6838" ry="5.4256" fill="#353942" style="paint-order:fill markers stroke"/>
  <ellipse transform="matrix(-.79101 .61181 .61181 .79101 0 0)" cx="-251.31" cy="281.18" rx="1.6838" ry="5.4256" fill="#353942" style="paint-order:fill markers stroke"/>
 </g>
 <g transform="matrix(-.48896 0 0 .52364 161.33 -22.143)" stroke="#000">
  <title>Circle Balloon</title>
  <path d="m330 125a125 70 0 0 1-125 70 125 70 0 0 1-125-70 125 70 0 0 1 125-70 125 70 0 0 1 125 70" stroke="none"/>
  <path d="m110 166c11 21-10 30-22 43 32-3 59-7 70-26" stroke="none"/>
  <path d="m325 120a125 70 0 0 1-125 70 125 70 0 0 1-125-70 125 70 0 0 1 125-70 125 70 0 0 1 125 70" fill="#eee" stroke-width="3.5"/>
  <path d="m106 162c11 21-10 30-22 43 32-3 59-7 70-26" fill="#eee" stroke-width="3.5"/>
  <path d="m314 117a117 63 0 0 1-117 63 117 63 0 0 1-117-63 117 63 0 0 1 117-63 117 63 0 0 1 117 63" fill="#fff" stroke="none"/>
  <path d="m103 149c14 25 9 34-6 47 30-3 50-10 58-31" fill="#fff" stroke="none"/>
 </g>
 <g stroke-width="1.2356" aria-label="Haha">
  <path d="m24.851 51.863q0 1.7759-0.18122 2.682t-0.43492 1.0873q-0.2537 0.21746-0.72486 0.21746-1.6309 0-2.1021-3.1169-0.43492-3.1531-0.90608-13.7-0.28994-6.6325-0.28994-10.547 0-3.1169 0.32619-3.8418 0.68862-1.3047 1.6309-1.3047 0.28994 0 0.54364 0.18122 0.47116 0.86983 0.97856 7.2124 0.54364 6.3063 0.94232 7.1761 3.5518-1.2685 8.0097-2.5733 2.1746-0.43492 2.8994-0.72486 0.36243-0.47116 0.7611-3.4793 0.39867-3.0444 0.79735-3.733 0.28994-0.47116 1.1235-0.47116 0.86983 0 1.1598 0.54364 0.5074 1.051 0.65237 8.1909 0.03624 1.341 0.07249 3.2619 0.03624 2.8632 0.07249 5.074 0.07249 2.1746 0.10873 3.3344 0.07249 1.1235 0.10873 1.9209 0.03624 0.7611 0.07249 1.0148 0.03624 0.2537 0.03624 0.47116 0.03624 0.18122 0.03624 0.36243 0 0.57989-0.5074 0.90608t-1.196 0.32619q-0.65237 0-1.0873-0.32619-0.68862-0.79735-0.90608-3.4793-0.21746-2.7182-0.28994-6.0888-0.07249-3.3706-0.32619-4.7478-0.2537 0.07249-3.0807 1.3047-2.827 1.2323-5.6539 2.2108l-2.9357 1.051 0.21746 6.1976q0.07249 2.6095 0.07249 3.4068z"/>
  <path d="m56.264 49.507q0-0.43492 1.196-1.4497t1.2323-1.3047q0-0.14497-0.21746-0.39867t-1.1598-0.57989q-0.90608-0.32619-2.392-0.32619-1.5947 0-2.7907 0.47116-1.1598 0.47116-1.7397 1.1598t-0.83359 1.2685-0.2537 1.0148q0 0.72486 0.10873 0.94232 0.14497 0.18122 0.68862 0.43492 0.83359 0.32619 1.341 0.32619 0.79735 0 1.9934-0.39867t2.0296-0.7611zm6.5237 2.3196q-0.07249 0.83359-0.65237 1.4497-0.54364 0.57989-0.90608 0.57989-0.21746 0-0.43492-0.07249-0.18122-0.07249-0.36243-0.2537-0.14497-0.21746-0.28994-0.36243-0.10873-0.18122-0.21746-0.5074-0.07249-0.32619-0.14497-0.5074-0.07249-0.21746-0.14497-0.61613-0.07249-0.39867-0.10873-0.57989 0-0.18122-0.07249-0.57989t-0.07249-0.5074q-1.1598 1.341-3.4431 2.6095-2.2471 1.2323-3.8418 1.2323-1.0148 0-2.4283-0.32619t-2.0659-0.79735q-1.1235-0.83359-1.1235-3.5518 0-1.5947 0.90608-2.7545t3.2619-2.3196q2.6457-1.341 4.9653-1.341 1.0148 0 1.6672 0.2537 0.68862 0.2537 1.051 0.61613 0.39867 0.32619 0.43492 0.32619 0.57989 0.10873 1.0148 0.47116 0-2.392-0.21746-3.9867-0.18122-1.6309-0.54364-2.392t-0.72486-1.051-0.86983-0.28994q-1.7397 0-3.7693 0.68862-1.9934 0.68862-3.6243 1.4135-1.5947 0.68862-2.3196 0.68862-0.90608 0-0.90608-0.83359 0-0.5074 0.21746-0.90608 0.21746-0.43492 0.5074-0.72486 0.32619-0.28994 0.97856-0.57989 0.68862-0.32619 1.2323-0.5074 0.57989-0.21746 1.6672-0.57989 1.0873-0.39867 1.8846-0.68862 2.1746-0.7611 3.8055-0.7611 2.9357 0 4.3854 2.7545 0.65237 1.2323 0.7611 2.2471 0.14497 1.0148 0.21746 5.9076 0.07249 4.6029 0.32619 7.1399z"/>
  <path d="m68.53 50.232q0-2.9357-0.72486-11.67-0.68862-8.7708-0.68862-11.38 0-2.0659 0.28994-2.5008 0.61613-1.0148 1.2685-1.0148 0.97856 0 1.2323 1.5222 0.28994 1.486 0.72486 7.901 0.2537 3.4431 0.39867 5.6177l0.18122 2.5008q1.051-1.8122 4.1317-4.3854 3.1169-2.6095 4.3492-2.6095t2.4283 1.051 1.5584 2.3196q0.32619 1.1235 0.32619 8.5171v0.7611q0 7.0674-1.4497 7.0674-0.7611 0-0.97856-1.1235-0.18122-1.1235-0.28994-4.6391-0.03624-1.1598-0.07249-1.8122-0.21746-6.8862-0.94232-8.807l-0.39867-1.1235-1.7397 1.4497q-1.8484 1.5222-3.3344 3.5156t-2.0296 3.5156q-0.2537 0.90608-0.54364 3.5156-0.2537 2.6095-0.68862 4.3492t-1.2685 1.7397q-0.36243 0-0.90608-0.43492-0.83359-0.65237-0.83359-3.8418z"/>
  <path d="m99.657 49.507q0-0.43492 1.196-1.4497 1.196-1.0148 1.2323-1.3047 0-0.14497-0.21746-0.39867t-1.1598-0.57989q-0.90607-0.32619-2.392-0.32619-1.5947 0-2.7907 0.47116-1.1598 0.47116-1.7397 1.1598t-0.83359 1.2685-0.2537 1.0148q0 0.72486 0.10873 0.94232 0.14497 0.18122 0.68862 0.43492 0.83359 0.32619 1.341 0.32619 0.79735 0 1.9934-0.39867t2.0296-0.7611zm6.5237 2.3196q-0.0725 0.83359-0.65238 1.4497-0.54364 0.57989-0.90607 0.57989-0.21746 0-0.43492-0.07249-0.18121-0.07249-0.36243-0.2537-0.14497-0.21746-0.28994-0.36243-0.10873-0.18122-0.21746-0.5074-0.0725-0.32619-0.14497-0.5074-0.0725-0.21746-0.14497-0.61613-0.0725-0.39867-0.10873-0.57989 0-0.18122-0.0725-0.57989t-0.0725-0.5074q-1.1598 1.341-3.4431 2.6095-2.2471 1.2323-3.8418 1.2323-1.0148 0-2.4283-0.32619t-2.0659-0.79735q-1.1235-0.83359-1.1235-3.5518 0-1.5947 0.90608-2.7545t3.2619-2.3196q2.6457-1.341 4.9653-1.341 1.0148 0 1.6672 0.2537 0.68862 0.2537 1.051 0.61613 0.39867 0.32619 0.43491 0.32619 0.57989 0.10873 1.0148 0.47116 0-2.392-0.21746-3.9867-0.18121-1.6309-0.54364-2.392t-0.72486-1.051-0.86984-0.28994q-1.7397 0-3.7693 0.68862-1.9934 0.68862-3.6243 1.4135-1.5947 0.68862-2.3196 0.68862-0.90608 0-0.90608-0.83359 0-0.5074 0.21746-0.90608 0.21746-0.43492 0.5074-0.72486 0.32619-0.28994 0.97856-0.57989 0.68862-0.32619 1.2323-0.5074 0.57989-0.21746 1.6672-0.57989 1.0873-0.39867 1.8846-0.68862 2.1746-0.7611 3.8055-0.7611 2.9357 0 4.3854 2.7545 0.65237 1.2323 0.7611 2.2471 0.14497 1.0148 0.21746 5.9076 0.0725 4.6029 0.32619 7.1399z"/>
 </g>
 <g transform="matrix(.42041 0 0 .43746 139.03 -21.111)" stroke="#000">
  <title>Circle Balloon</title>
  <g stroke="none">
   <path d="m330 125a125 70 0 0 1-125 70 125 70 0 0 1-125-70 125 70 0 0 1 125-70 125 70 0 0 1 125 70"/>
   <path d="m110 166c11 21-10 30-22 43 32-3 59-7 70-26"/>
   <g shape-rendering="auto">
    <path d="m325 120c0 38.66-55.964 70-125 70s-125-31.34-125-70 55.964-70 125-70 125 31.34 125 70" color="#000000" color-rendering="auto" dominant-baseline="auto" fill="#eee" image-rendering="auto" solid-color="#000000" stop-color="#000000" style="font-feature-settings:normal;font-variant-alternates:normal;font-variant-caps:normal;font-variant-east-asian:normal;font-variant-ligatures:normal;font-variant-numeric:normal;font-variant-position:normal;font-variation-settings:normal;inline-size:0;isolation:auto;mix-blend-mode:normal;shape-margin:0;shape-padding:0;text-decoration-color:#000000;text-decoration-line:none;text-decoration-style:solid;text-indent:0;text-orientation:mixed;text-transform:none;white-space:normal"/>
    <path d="m200 48.25c-34.783 0-66.292 7.8736-89.244 20.727-22.952 12.853-37.506 30.849-37.506 51.023s14.554 38.171 37.506 51.023c22.952 12.853 54.462 20.727 89.244 20.727s66.292-7.8736 89.244-20.727 37.506-30.849 37.506-51.023-14.554-38.171-37.506-51.023c-22.952-12.853-54.462-20.727-89.244-20.727zm0 3.5c34.253 0 65.244 7.7972 87.533 20.279 22.289 12.482 35.717 29.485 35.717 47.971s-13.427 35.489-35.717 47.971c-22.289 12.482-53.28 20.279-87.533 20.279s-65.244-7.7972-87.533-20.279c-22.289-12.482-35.717-29.485-35.717-47.971s13.427-35.489 35.717-47.971c22.289-12.482 53.28-20.279 87.533-20.279z" color="#000000" color-rendering="auto" dominant-baseline="auto" image-rendering="auto" solid-color="#000000" stop-color="#000000" style="font-feature-settings:normal;font-variant-alternates:normal;font-variant-caps:normal;font-variant-east-asian:normal;font-variant-ligatures:normal;font-variant-numeric:normal;font-variant-position:normal;font-variation-settings:normal;inline-size:0;isolation:auto;mix-blend-mode:normal;shape-margin:0;shape-padding:0;text-decoration-color:#000000;text-decoration-line:none;text-decoration-style:solid;text-indent:0;text-orientation:mixed;text-transform:none;white-space:normal"/>
   </g>
   <g shape-rendering="auto">
    <path d="m106 162c11 21-10 30-22 43 32-3 59-7 70-26" color="#000000" color-rendering="auto" dominant-baseline="auto" fill="#eee" image-rendering="auto" solid-color="#000000" stop-color="#000000" style="font-feature-settings:normal;font-variant-alternates:normal;font-variant-caps:normal;font-variant-east-asian:normal;font-variant-ligatures:normal;font-variant-numeric:normal;font-variant-position:normal;font-variation-settings:normal;inline-size:0;isolation:auto;mix-blend-mode:normal;shape-margin:0;shape-padding:0;text-decoration-color:#000000;text-decoration-line:none;text-decoration-style:solid;text-indent:0;text-orientation:mixed;text-transform:none;white-space:normal"/>
    <path d="m107.55 161.19-3.1016 1.625c2.62 5.0018 3.2587 9.0784 2.7109 12.674-0.54775 3.5955-2.321 6.8005-4.8828 9.8984-5.1235 6.1959-13.354 11.702-19.562 18.428l-3.0977 3.3555 4.5469-0.42578c16.026-1.5025 30.868-3.2474 43.229-7.0703 12.361-3.823 22.337-9.8037 28.121-19.795l-3.0273-1.7539c-5.2156 9.0088-14.24 14.528-26.129 18.205-10.566 3.2679-23.529 4.9397-37.449 6.3398 5.2976-4.8923 11.516-9.5522 16.064-15.053 2.8132-3.402 4.9774-7.197 5.6484-11.602 0.67101-4.4045-0.19027-9.3279-3.0703-14.826z" color="#000000" color-rendering="auto" dominant-baseline="auto" image-rendering="auto" solid-color="#000000" stop-color="#000000" style="font-feature-settings:normal;font-variant-alternates:normal;font-variant-caps:normal;font-variant-east-asian:normal;font-variant-ligatures:normal;font-variant-numeric:normal;font-variant-position:normal;font-variation-settings:normal;inline-size:0;isolation:auto;mix-blend-mode:normal;shape-margin:0;shape-padding:0;text-decoration-color:#000000;text-decoration-line:none;text-decoration-style:solid;text-indent:0;text-orientation:mixed;text-transform:none;white-space:normal"/>
   </g>
   <path d="m314 117a117 63 0 0 1-117 63 117 63 0 0 1-117-63 117 63 0 0 1 117-63 117 63 0 0 1 117 63" fill="#fff"/>
   <path d="m103 149c14 25 9 34-6 47 30-3 50-10 58-31" fill="#fff"/>
  </g>
 </g>
 <g stroke-width="1.0622" aria-label="Hihi">
  <path d="m202.01 43.09q0 1.5268-0.1558 2.3058-0.15579 0.77898-0.37391 0.93477-0.21811 0.18695-0.62318 0.18695-1.4022 0-1.8072-2.6797-0.37391-2.7108-0.77897-11.778-0.24928-5.7021-0.24928-9.0673 0-2.6797 0.28043-3.3029 0.59203-1.1217 1.4022-1.1217 0.24927 0 0.46738 0.1558 0.40507 0.74782 0.8413 6.2006 0.46738 5.4217 0.81013 6.1695 3.0536-1.0906 6.8861-2.2123 1.8695-0.37391 2.4927-0.62318 0.31159-0.40507 0.65434-2.9913 0.34275-2.6174 0.6855-3.2094 0.24927-0.40507 0.96593-0.40507 0.74781 0 0.99708 0.46738 0.43623 0.90361 0.56087 7.0419 0.0312 1.1529 0.0623 2.8043 0.0312 2.4616 0.0623 4.3623 0.0623 1.8695 0.0935 2.8666 0.0623 0.96593 0.0935 1.6514 0.0312 0.65434 0.0623 0.87245 0.0312 0.21811 0.0312 0.40507 0.0312 0.1558 0.0312 0.31159 0 0.49854-0.43622 0.77898-0.43623 0.28043-1.0282 0.28043-0.56086 0-0.93477-0.28043-0.59202-0.6855-0.77898-2.9913-0.18695-2.3369-0.24927-5.2347-0.0623-2.8978-0.28043-4.0818-0.21811 0.06232-2.6485 1.1217-2.4304 1.0594-4.8608 1.9007l-2.5239 0.90361 0.18696 5.3282q0.0623 2.2434 0.0623 2.9289z"/>
  <path d="m221.38 26.887q0.52971-0.37391 1.0282-0.37391t0.84129 0.40507q0.49855 0.93477 0.81014 5.4217 0.34275 4.4869 0.34275 8.3818 0 2.8043-0.18696 3.1782-0.62318 0.49854-1.3398 0.49854-1.0906 0-1.3398-0.65434-0.1558-0.49854-0.49855-6.4811-0.31159-6.0137-0.31159-8.039 0-1.9007 0.65434-2.3369zm-0.34275-7.2912q0.0623-0.59202 0.49855-0.96593 0.46738-0.37391 0.90361-0.37391t1.1217 0.40507q0.6855 0.40507 0.6855 1.0906 0 0.74782-0.37391 1.3398-0.3739 0.59202-0.99708 0.59202-0.65434 0-1.2464-0.59202-0.59203-0.62318-0.59203-1.4956z"/>
  <path d="m230.07 41.688q0-2.5239-0.62318-10.033-0.59202-7.5405-0.59202-9.7839 0-1.7761 0.24927-2.15 0.5297-0.87245 1.0906-0.87245 0.8413 0 1.0594 1.3087 0.24927 1.2775 0.62318 6.7927 0.21811 2.9601 0.34275 4.8296l0.15579 2.15q0.90361-1.558 3.5521-3.7702 2.6797-2.2434 3.7391-2.2434 1.0594 0 2.0876 0.90361t1.3398 1.9942q0.28043 0.96593 0.28043 7.3224v0.65434q0 6.076-1.2464 6.076-0.65434 0-0.84129-0.96593-0.1558-0.96593-0.24928-3.9884-0.0311-0.99709-0.0623-1.558-0.18696-5.9202-0.81014-7.5716l-0.34275-0.96593-1.4956 1.2464q-1.5891 1.3087-2.8666 3.0224t-1.7449 3.0224q-0.21811 0.77898-0.46739 3.0224-0.21811 2.2434-0.59202 3.7391-0.3739 1.4956-1.0906 1.4956-0.31159 0-0.77898-0.37391-0.71665-0.56086-0.71665-3.3029z"/>
  <path d="m249.19 26.887q0.5297-0.37391 1.0282-0.37391 0.49855 0 0.8413 0.40507 0.49854 0.93477 0.81013 5.4217 0.34275 4.4869 0.34275 8.3818 0 2.8043-0.18695 3.1782-0.62318 0.49854-1.3398 0.49854-1.0906 0-1.3398-0.65434-0.15579-0.49854-0.49854-6.4811-0.31159-6.0137-0.31159-8.039 0-1.9007 0.65434-2.3369zm-0.34275-7.2912q0.0623-0.59202 0.49854-0.96593 0.46739-0.37391 0.90361-0.37391 0.43623 0 1.1217 0.40507 0.68549 0.40507 0.68549 1.0906 0 0.74782-0.3739 1.3398-0.37391 0.59202-0.99709 0.59202-0.65434 0-1.2464-0.59202-0.59202-0.62318-0.59202-1.4956z"/>
 </g>
</svg>
