<svg id="svg8" version="1.1" viewBox="0 0 228.6 261.41" xmlns="http://www.w3.org/2000/svg" xmlns:xlink="http://www.w3.org/1999/xlink">
 <defs id="defs2">
  <linearGradient id="linearGradient2384" x1="232.4" x2="232.4" y1="580.47" y2="619.54" gradientTransform="matrix(.1313 0 0 .1313 -81.964 115.77)" gradientUnits="userSpaceOnUse" xlink:href="#linearGradient1464"/>
  <linearGradient id="linearGradient1464">
   <stop id="stop1460" style="stop-color:#2ad4ff" offset="0"/>
   <stop id="stop1462" style="stop-color:#2ad4ff;stop-opacity:0" offset="1"/>
  </linearGradient>
  <linearGradient id="linearGradient2386" x1="232.4" x2="232.4" y1="580.47" y2="619.54" gradientTransform="matrix(.1313 0 0 .1313 13.115 115.77)" gradientUnits="userSpaceOnUse" xlink:href="#linearGradient1464"/>
 </defs>
 <g id="layer1" transform="translate(-61.837 -47.611)">
  <g id="g5505" transform="translate(1346.7 6.728)">
   <rect id="rect5402" x="-1284.9" y="40.883" width="228.6" height="261.41" style="opacity:0;paint-order:fill markers stroke;stroke-width:1.2325"/>
   <g id="g5275">
    <g id="svg-card-crossword" transform="translate(-8.4667 8.4667)">

     <g id="g2038" transform="translate(-546.15 -45.252)">
      <rect id="rect1821" x="-615.95" y="101.74" width="26.458" height="26.458" style="fill:#fff;paint-order:fill markers stroke;stroke-linecap:round;stroke-linejoin:round;stroke-width:1.3229;stroke:#0e232e"/>
      <rect id="rect1823" x="-615.95" y="128.2" width="26.458" height="26.458" style="fill:#fff;paint-order:fill markers stroke;stroke-linecap:round;stroke-linejoin:round;stroke-width:1.3229;stroke:#0e232e"/>
      <rect id="rect1825" x="-615.95" y="154.65" width="26.458" height="26.458" style="fill:#fff;paint-order:fill markers stroke;stroke-linecap:round;stroke-linejoin:round;stroke-width:1.3229;stroke:#0e232e"/>
      <rect id="rect1827" x="-615.95" y="181.11" width="26.458" height="26.458" style="fill:#fff;paint-order:fill markers stroke;stroke-linecap:round;stroke-linejoin:round;stroke-width:1.3229;stroke:#0e232e"/>
      <rect id="rect1829" x="-615.95" y="207.57" width="26.458" height="26.458" style="fill:#fff;paint-order:fill markers stroke;stroke-linecap:round;stroke-linejoin:round;stroke-width:1.3229;stroke:#0e232e"/>
      <rect id="rect1855" x="-615.95" y="234.03" width="26.458" height="26.458" style="fill:#fff;paint-order:fill markers stroke;stroke-linecap:round;stroke-linejoin:round;stroke-width:1.3229;stroke:#0e232e"/>
      <rect id="rect1861" x="-615.95" y="260.49" width="26.458" height="26.458" style="fill:#fff;paint-order:fill markers stroke;stroke-linecap:round;stroke-linejoin:round;stroke-width:1.3229;stroke:#0e232e"/>
      <rect id="rect1867" x="-615.95" y="286.95" width="26.458" height="26.458" style="fill:#fff;paint-order:fill markers stroke;stroke-linecap:round;stroke-linejoin:round;stroke-width:1.3229;stroke:#0e232e"/>
      <rect id="rect1873" x="-642.41" y="207.57" width="26.458" height="26.458" style="fill:#fff;paint-order:fill markers stroke;stroke-linecap:round;stroke-linejoin:round;stroke-width:1.3229;stroke:#0e232e"/>
      <rect id="rect1879" x="-668.87" y="207.57" width="26.458" height="26.458" style="fill:#fff;paint-order:fill markers stroke;stroke-linecap:round;stroke-linejoin:round;stroke-width:1.3229;stroke:#0e232e"/>
      <rect id="rect1885" x="-695.32" y="207.57" width="26.458" height="26.458" style="fill:#fff;paint-order:fill markers stroke;stroke-linecap:round;stroke-linejoin:round;stroke-width:1.3229;stroke:#0e232e"/>
      <rect id="rect1891" x="-642.41" y="154.65" width="26.458" height="26.458" style="fill:#fff;paint-order:fill markers stroke;stroke-linecap:round;stroke-linejoin:round;stroke-width:1.3229;stroke:#0e232e"/>
      <rect id="rect1897" x="-668.87" y="154.65" width="26.458" height="26.458" style="fill:#fff;paint-order:fill markers stroke;stroke-linecap:round;stroke-linejoin:round;stroke-width:1.3229;stroke:#0e232e"/>
      <rect id="rect1903" x="-695.32" y="154.65" width="26.458" height="26.458" style="fill:#fff;paint-order:fill markers stroke;stroke-linecap:round;stroke-linejoin:round;stroke-width:1.3229;stroke:#0e232e"/>
      <rect id="rect1909" x="-589.49" y="154.65" width="26.458" height="26.458" style="fill:#fff;paint-order:fill markers stroke;stroke-linecap:round;stroke-linejoin:round;stroke-width:1.3229;stroke:#0e232e"/>
      <rect id="rect1915" x="-721.78" y="154.65" width="26.458" height="26.458" style="fill:#fff;paint-order:fill markers stroke;stroke-linecap:round;stroke-linejoin:round;stroke-width:1.3229;stroke:#0e232e"/>
      <rect id="rect1921" x="-642.41" y="286.95" width="26.458" height="26.458" style="fill:#fff;paint-order:fill markers stroke;stroke-linecap:round;stroke-linejoin:round;stroke-width:1.3229;stroke:#0e232e"/>
      <rect id="rect1927" x="-668.87" y="286.95" width="26.458" height="26.458" style="fill:#fff;paint-order:fill markers stroke;stroke-linecap:round;stroke-linejoin:round;stroke-width:1.3229;stroke:#0e232e"/>
      <rect id="rect1933" x="-695.32" y="286.95" width="26.458" height="26.458" style="fill:#fff;paint-order:fill markers stroke;stroke-linecap:round;stroke-linejoin:round;stroke-width:1.3229;stroke:#0e232e"/>
      <rect id="rect1939" x="-721.78" y="286.95" width="26.458" height="26.458" style="fill:#fff;paint-order:fill markers stroke;stroke-linecap:round;stroke-linejoin:round;stroke-width:1.3229;stroke:#0e232e"/>
      <rect id="rect1949" x="-536.58" y="286.95" width="26.458" height="26.458" style="fill:#fff;paint-order:fill markers stroke;stroke-linecap:round;stroke-linejoin:round;stroke-width:1.3229;stroke:#0e232e"/>
      <rect id="rect1955" x="-563.03" y="286.95" width="26.458" height="26.458" style="fill:#fff;paint-order:fill markers stroke;stroke-linecap:round;stroke-linejoin:round;stroke-width:1.3229;stroke:#0e232e"/>
      <rect id="rect1961" x="-589.49" y="286.95" width="26.458" height="26.458" style="fill:#fff;paint-order:fill markers stroke;stroke-linecap:round;stroke-linejoin:round;stroke-width:1.3229;stroke:#0e232e"/>
     </g>
     <g id="g2013" transform="translate(-546.15 -45.252)" style="fill:#364e59">
      <text id="text1833" x="-614.24377" y="123.21498" style="fill:#364e59;font-family:sans-serif;font-size:23.046px;letter-spacing:0px;line-height:1.25;stroke-width:.12003;word-spacing:0px" xml:space="preserve"><tspan id="tspan1831" x="-614.24377" y="123.21498" style="fill:#364e59;font-family:'Arial Black';stroke-width:.12003">W</tspan></text>
      <text id="text1837" x="-611.35181" y="149.67331" style="fill:#364e59;font-family:sans-serif;font-size:23.046px;letter-spacing:0px;line-height:1.25;stroke-width:.12003;word-spacing:0px" xml:space="preserve"><tspan id="tspan1835" x="-611.35181" y="149.67331" style="fill:#364e59;font-family:'Arial Black';stroke-width:.12003">E</tspan></text>
      <text id="text1841" x="-613.17474" y="176.13164" style="fill:#364e59;font-family:sans-serif;font-size:23.046px;letter-spacing:0px;line-height:1.25;stroke-width:.12003;word-spacing:0px" xml:space="preserve"><tspan id="tspan1839" x="-613.17474" y="176.13164" style="fill:#364e59;font-family:'Arial Black';stroke-width:.12003">K</tspan></text>
      <text id="text1845" x="-610.99731" y="202.58997" style="fill:#364e59;font-family:sans-serif;font-size:23.046px;letter-spacing:0px;line-height:1.25;stroke-width:.12003;word-spacing:0px" xml:space="preserve"><tspan id="tspan1843" x="-610.99731" y="202.58997" style="fill:#364e59;font-family:'Arial Black';stroke-width:.12003">T</tspan></text>
      <text id="text1849" x="-612.3139" y="229.04829" style="fill:#364e59;font-family:sans-serif;font-size:23.046px;letter-spacing:0px;line-height:1.25;stroke-width:.12003;word-spacing:0px" xml:space="preserve"><tspan id="tspan1847" x="-612.3139" y="229.04829" style="fill:#364e59;font-family:'Arial Black';stroke-width:.12003">O</tspan></text>
      <text id="text1859" x="-612.5896" y="255.50662" style="fill:#364e59;font-family:sans-serif;font-size:23.046px;letter-spacing:0px;line-height:1.25;stroke-width:.12003;word-spacing:0px" xml:space="preserve"><tspan id="tspan1857" x="-612.5896" y="255.50662" style="fill:#364e59;font-family:'Arial Black';stroke-width:.12003">R</tspan></text>
      <text id="text1865" x="-611.35175" y="281.96497" style="fill:#364e59;font-family:sans-serif;font-size:23.046px;letter-spacing:0px;line-height:1.25;stroke-width:.12003;word-spacing:0px" xml:space="preserve"><tspan id="tspan1863" x="-611.35175" y="281.96497" style="fill:#364e59;font-family:'Arial Black';stroke-width:.12003">E</tspan></text>
      <text id="text1871" x="-613.17474" y="308.42331" style="fill:#364e59;font-family:sans-serif;font-size:23.046px;letter-spacing:0px;line-height:1.25;stroke-width:.12003;word-spacing:0px" xml:space="preserve"><tspan id="tspan1869" x="-613.17474" y="308.42331" style="fill:#364e59;font-family:'Arial Black';stroke-width:.12003">K</tspan></text>
      <text id="text1877" x="-638.78912" y="229.04829" style="fill:#364e59;font-family:sans-serif;font-size:23.046px;letter-spacing:0px;line-height:1.25;stroke-width:.12003;word-spacing:0px" xml:space="preserve"><tspan id="tspan1875" x="-638.78912" y="229.04829" style="fill:#364e59;font-family:'Arial Black';stroke-width:.12003">N</tspan></text>
      <text id="text1883" x="-666.09137" y="229.04829" style="fill:#364e59;font-family:sans-serif;font-size:23.046px;letter-spacing:0px;line-height:1.25;stroke-width:.12003;word-spacing:0px" xml:space="preserve"><tspan id="tspan1881" x="-666.09137" y="229.04829" style="fill:#364e59;font-family:'Arial Black';stroke-width:.12003">K</tspan></text>
      <text id="text1889" x="-691.68884" y="229.04829" style="fill:#364e59;font-family:sans-serif;font-size:23.046px;letter-spacing:0px;line-height:1.25;stroke-width:.12003;word-spacing:0px" xml:space="preserve"><tspan id="tspan1887" x="-691.68884" y="229.04829" style="fill:#364e59;font-family:'Arial Black';stroke-width:.12003">O</tspan></text>
      <text id="text1895" x="-637.46124" y="176.13164" style="fill:#364e59;font-family:sans-serif;font-size:23.046px;letter-spacing:0px;line-height:1.25;stroke-width:.12003;word-spacing:0px" xml:space="preserve"><tspan id="tspan1893" x="-637.46124" y="176.13164" style="fill:#364e59;font-family:'Arial Black';stroke-width:.12003">S</tspan></text>
      <text id="text1901" x="-660.08234" y="176.13164" style="fill:#364e59;font-family:sans-serif;font-size:23.046px;letter-spacing:0px;line-height:1.25;stroke-width:.12003;word-spacing:0px" xml:space="preserve"><tspan id="tspan1899" x="-660.08234" y="176.13164" style="fill:#364e59;font-family:'Arial Black';stroke-width:.12003">I</tspan></text>
      <text id="text1907" x="-691.68884" y="176.13164" style="fill:#364e59;font-family:sans-serif;font-size:23.046px;letter-spacing:0px;line-height:1.25;stroke-width:.12003;word-spacing:0px" xml:space="preserve"><tspan id="tspan1905" x="-691.68884" y="176.13164" style="fill:#364e59;font-family:'Arial Black';stroke-width:.12003">O</tspan></text>
      <text id="text1913" x="-585.85559" y="176.13164" style="fill:#364e59;font-family:sans-serif;font-size:23.046px;letter-spacing:0px;line-height:1.25;stroke-width:.12003;word-spacing:0px" xml:space="preserve"><tspan id="tspan1911" x="-585.85559" y="176.13164" style="fill:#364e59;font-family:'Arial Black';stroke-width:.12003">O</tspan></text>
      <text id="text1919" x="-717.87708" y="176.13164" style="fill:#364e59;font-family:sans-serif;font-size:23.046px;letter-spacing:0px;line-height:1.25;stroke-width:.12003;word-spacing:0px" xml:space="preserve"><tspan id="tspan1917" x="-717.87708" y="176.13164" style="fill:#364e59;font-family:'Arial Black';stroke-width:.12003">B</tspan></text>
      <text id="text1925" x="-640.08881" y="308.42331" style="fill:#364e59;font-family:sans-serif;font-size:23.046px;letter-spacing:0px;line-height:1.25;stroke-width:.12003;word-spacing:0px" xml:space="preserve"><tspan id="tspan1923" x="-640.08881" y="308.42331" style="fill:#364e59;font-family:'Arial Black';stroke-width:.12003">M</tspan></text>
      <text id="text1931" x="-664.63977" y="308.42331" style="fill:#364e59;font-family:sans-serif;font-size:23.046px;letter-spacing:0px;line-height:1.25;stroke-width:.12003;word-spacing:0px" xml:space="preserve"><tspan id="tspan1929" x="-664.63977" y="308.42331" style="fill:#364e59;font-family:'Arial Black';stroke-width:.12003">A</tspan></text>
      <text id="text1937" x="-691.96454" y="308.42331" style="fill:#364e59;font-family:sans-serif;font-size:23.046px;letter-spacing:0px;line-height:1.25;stroke-width:.12003;word-spacing:0px" xml:space="preserve"><tspan id="tspan1935" x="-691.96454" y="308.42331" style="fill:#364e59;font-family:'Arial Black';stroke-width:.12003">R</tspan></text>
      <text id="text1943" x="-717.87708" y="308.42331" style="fill:#364e59;font-family:sans-serif;font-size:23.046px;letter-spacing:0px;line-height:1.25;stroke-width:.12003;word-spacing:0px" xml:space="preserve"><tspan id="tspan1941" x="-717.87708" y="308.42331" style="fill:#364e59;font-family:'Arial Black';stroke-width:.12003">B</tspan></text>
      <text id="text1953" x="-531.55487" y="308.42331" style="fill:#364e59;font-family:sans-serif;font-size:23.046px;letter-spacing:0px;line-height:1.25;stroke-width:.12003;word-spacing:0px" xml:space="preserve"><tspan id="tspan1951" x="-531.55487" y="308.42331" style="fill:#364e59;font-family:'Arial Black';stroke-width:.12003">Z</tspan></text>
      <text id="text1959" x="-559.67297" y="308.42331" style="fill:#364e59;font-family:sans-serif;font-size:23.046px;letter-spacing:0px;line-height:1.25;stroke-width:.12003;word-spacing:0px" xml:space="preserve"><tspan id="tspan1957" x="-559.67297" y="308.42331" style="fill:#364e59;font-family:'Arial Black';stroke-width:.12003">R</tspan></text>
      <text id="text1965" x="-585.58551" y="308.42331" style="fill:#364e59;font-family:sans-serif;font-size:23.046px;letter-spacing:0px;line-height:1.25;stroke-width:.12003;word-spacing:0px" xml:space="preserve"><tspan id="tspan1963" x="-585.58551" y="308.42331" style="fill:#364e59;font-family:'Arial Black';stroke-width:.12003">A</tspan></text>
     </g>
    </g>
    <g id="svg-card-crossword-penguin">
     <g id="g2352" transform="matrix(1.5583 -.34626 .34626 1.5583 -558.54 -227.36)">
      <path id="path2334" d="m-443.2 171.34a15.351 4.7642 51.531 0 1 8.8362 8.2538 15.351 4.7642 51.531 0 1 5.8198 14.983 15.351 4.7642 51.531 0 1-13.28-9.0553 15.351 4.7642 51.531 0 1-5.2591-8.4067l1.3942 0.54105z" style="fill:#353942;paint-order:fill markers stroke"/>
      <g id="g2348" transform="matrix(.22151 .15077 -.15077 .22151 -380.25 157.98)">
       <path id="path2336" d="m-167.7 194.21v49.746l15.903 38.442 15.902-38.442v-49.746h-15.902z" style="fill:#ffd388;paint-order:fill markers stroke"/>
       <path id="path2338" transform="matrix(.26458 0 0 .26458 0 138.25)" d="m-633.83 58v325.17a37.902 26.235 0 0 1 22.203-5.0137 37.902 26.235 0 0 1 37.537 22.84h0.36524v-343z" style="fill:#19aeff;paint-order:fill markers stroke"/>
       <path id="path2340" transform="matrix(.26458 0 0 .26458 0 138.25)" d="m-608.37-59.811c-14.103 0-25.457 11.355-25.457 25.457v47.354h120.21v-47.354c0-14.103-11.353-25.457-25.455-25.457z" style="fill:#ff4141;paint-order:fill markers stroke"/>
       <path id="path2342" transform="matrix(.26458 0 0 .26458 0 138.25)" d="m-573.72 58v343h0.35742a37.902 26.235 0 0 1 37.543-22.84 37.902 26.235 0 0 1 22.203 5.0059v-325.17z" style="fill:#0084c8;paint-order:fill markers stroke"/>
       <path id="path2344" d="m-167.7 141.69v11.906h31.805v-11.906z" style="fill:#e7e7e7;paint-order:fill markers stroke"/>
       <path id="path2346" d="m-158 267.4 6.2058 15.001 6.2058-15.001z" style="fill:#0084c8;paint-order:fill markers stroke"/>
      </g>
      <path id="path2350" d="m-444.05 171.78c-1.6732 0.01-4.2252 4.0994-3.7288 5.0471 0 0 2.6138 0.6869 3.4037-0.0925 1.142-1.1268 0.32511-4.9546 0.32511-4.9546z" style="fill:#353942"/>
     </g>
     <ellipse id="ellipse2354" transform="matrix(-.93664 .35029 .35029 .93664 0 0)" cx="1099.4" cy="-147.65" rx="7.605" ry="24.505" style="fill:#353942;paint-order:fill markers stroke"/>
     <path id="path2356" d="m-1127.1 163.85c-9.8096 0-30.158 6.4511-34.405 26.257-5.2354 24.413-11.499 49.302-9.0536 68.505 2.0728 16.278 12.677 38.779 43.459 38.779s41.386-22.501 43.459-38.779c2.4451-19.203-3.8183-44.092-9.0536-68.505-4.2475-19.806-24.596-26.257-34.406-26.257z" style="fill:#353942"/>
     <path id="path2358" d="m-1142.2 180.82c-6.7757 0.10487-13.013 5.3704-15.11 15.15-4.5956 21.43-10.094 43.279-7.9473 60.135 1.8195 14.289 11.126 34.039 38.147 34.039s36.33-19.75 38.149-34.039c2.1465-16.856-3.3516-38.706-7.9473-60.135-3.7283-17.386-20.546-20.509-30.202-5.7206-4.2247-6.4699-9.8193-9.5108-15.089-9.4294z" style="fill:#fff"/>
     <path id="path2360" d="m-1159.2 297.3h20.28c0-2.2322-5.5595-8.338-10.14-8.2388-4.9246 0.10663-10.14 4.4131-10.14 8.2388z" style="fill:#f60"/>
     <path id="path2362" d="m-1095.1 297.3h-20.28c0-2.2322 5.5596-8.338 10.14-8.2388 4.9247 0.10663 10.14 4.4131 10.14 8.2388z" style="fill:#f60"/>
     <g id="g2370" transform="matrix(1.5963 0 0 1.5963 -1257.7 -120.06)">
      <path id="path2364" d="m72.711 196.93a3.1778 3.1778 0 0 0-3.1774 3.1789 3.1778 3.1778 0 0 0 3.1774 3.1775 3.1778 3.1778 0 0 0 3.1774-3.1775 3.1778 3.1778 0 0 0-3.1774-3.1789zm0 0.72854a2.4495 2.4495 0 0 1 2.4504 2.4504 2.4495 2.4495 0 0 1-0.39061 1.321 2.4495 2.4495 0 0 0-2.0598-1.1235 2.4495 2.4495 0 0 0-2.0598 1.1279 2.4495 2.4495 0 0 1-0.38914-1.3254 2.4495 2.4495 0 0 1 2.4489-2.4504z" style="fill:#1a1a1a;paint-order:fill markers stroke"/>
      <path id="path2366" d="m90.91 196.93a3.1778 3.1778 0 0 1 3.1774 3.1789 3.1778 3.1778 0 0 1-3.1774 3.1775 3.1778 3.1778 0 0 1-3.1774-3.1775 3.1778 3.1778 0 0 1 3.1774-3.1789zm0 0.72854a2.4495 2.4495 0 0 0-2.4504 2.4504 2.4495 2.4495 0 0 0 0.39061 1.321 2.4495 2.4495 0 0 1 2.0598-1.1235 2.4495 2.4495 0 0 1 2.0598 1.1279 2.4495 2.4495 0 0 0 0.38914-1.3254 2.4495 2.4495 0 0 0-2.4489-2.4504z" style="fill:#1a1a1a;paint-order:fill markers stroke"/>
      <path id="path2368" d="m81.81 203.74c-4.0866 0-4.3404 4.0728-4.3404 4.0728l4.3404 2.9961 4.3405-2.9961s-0.25393-4.0728-4.3405-4.0728z" style="fill:#f60"/>
     </g>
     <g id="g2378" transform="matrix(4.5863 0 0 4.5863 -908.97 -689.64)">
      <circle id="circle2372" cx="-51.462" cy="194.59" r="2.6114" style="fill:url(#linearGradient2384);paint-order:fill markers stroke"/>
      <circle id="circle2374" transform="scale(-1,1)" cx="43.617" cy="194.59" r="2.6114" style="fill:url(#linearGradient2386);paint-order:fill markers stroke"/>
      <path id="path2376" transform="matrix(.26458 0 0 .26458 0 138.25)" d="m-194.5 201.52c-2.2885 4e-3 -4.7301 0.97858-6.4121 1.9883-1.682 1.0097-3.1472 1.8441-4.2109 2.5117-1.0637 0.66758-1.4658 0.68945-1.9434 0.68945l-2.2246-0.0117c-0.12402 0.57062-0.24665 1.1383-0.3711 1.709 0.12759 0.0313 0.8799 0.26397 0.94141 0.27734 2.8512 0.61671 2.6191 2.6006 2.8164 4.3926l4e-3 -8e-3c0.078 6.2411 5.1587 11.26 11.4 11.262 6.2989 8e-5 11.404-5.1054 11.404-11.404 2e-5 -1.8867-0.45843-3.6669-1.2695-5.2344 3.2429-0.92368 6.3806-1.002 9.3828 0-0.8111 1.5675-1.2696 3.3476-1.2695 5.2344-6e-5 6.2989 5.1074 11.404 11.406 11.404 6.2416-2e-3 11.32-5.0206 11.398-11.262l4e-3 8e-3c0.19654-1.7847-0.0313-3.7595 2.7832-4.3848 0.0687-0.0138 0.61312-0.11801 0.77539-0.14843-0.1363-0.62477-0.27047-1.2464-0.40625-1.8711l-1.9883 0.0371c-0.4775 8e-3 -0.87962-0.0222-1.9434-0.68945-1.0638-0.66766-2.5289-1.502-4.2109-2.5117-1.682-1.0097-4.1236-1.9844-6.4121-1.9883-3.6472 4e-5 -6.8947 1.7127-8.9824 4.377h-0.60742c-3.3641-0.71577-6.8109-0.962-10.475 0h-0.60742c-2.0879-2.6643-5.3352-4.3769-8.9824-4.377zm0 1.8066c5.3015-4e-5 9.5996 4.2981 9.5996 9.5996 3e-5 5.3015-4.2981 9.5996-9.5996 9.5996-5.3015 3e-5 -9.5996-4.2981-9.5996-9.5996-2e-5 -5.3015 4.2981-9.5996 9.5996-9.5996zm29.652 0c5.3015-4e-5 9.5996 4.2981 9.5996 9.5996 2e-5 5.3015-4.2981 9.5996-9.5996 9.5996-5.3015 3e-5 -9.5977-4.2981-9.5977-9.5996-3e-5 -5.3015 4.2962-9.5996 9.5977-9.5996z" style="fill:#333;paint-order:fill markers stroke"/>
     </g>
     <path id="path2380" d="m-1153.2 189.06s-1.8377 6.4322 0.7657 16.081c0 0-23.585-23.891 3.8287-48.701 0 0 1.6847-3.2161-7.6573 4.5944 0 0 4.9007-8.7294 13.936-10.567 0 0-4.5943-0.30632-9.1887 1.9909 0 0 11.792-12.405 30.17-2.2972 0 0 8.8826-5.207 20.828 2.7567 0 0-9.6483-2.4504-11.486-0.61263 0 0 11.18-0.30631 19.143 13.63 0 0-4.1348-4.4413-5.6664-4.4413 0 0 5.3603 5.8196 6.126 10.414 0 0-3.063-5.0539-5.9727-5.9727 0 0 10.108 11.945-0.4596 35.53 0 0 0.7657-6.4322-0.6126-8.4231 0 0-1.2251 7.351-5.5133 12.864 0 0 4.7476-16.846 2.9099-21.747 0 0-1.3783 6.5853-6.126 12.099 0 0 4.2883-12.252 3.063-14.243 0 0-1.2252 5.3602-5.5133 8.8826 0 0 3.8287-6.7385 3.3693-10.567 0 0-2.7567 6.8916-3.8287 8.1168 0 0 1.8377-6.279 1.6847-9.342 0 0-1.991 8.7294-11.333 11.486 0 0 8.4231-10.261 8.5763-16.846 0 0-4.5945 10.567-10.72 13.018 0 0 5.6664-8.27 5.9727-12.864 0 0-3.9819 7.3511-10.261 10.567 0 0 5.9726-7.5042 5.3602-11.946 0 0-2.4503 7.3511-9.6483 10.873 0 0 2.6034-2.4503 3.5224-9.342 0 0-8.8826 7.1979-9.9547 14.243 0 0-1.072-4.7475 2.144-13.171 0 0-8.423 11.946-7.6573 18.837 0 0-2.6034-11.333 1.2253-18.99 0 0-6.5854 12.405-5.054 21.441 0 0-1.9909-4.5945-1.8377-10.567 0 0-1.6846 9.9546 0.6127 19.297 0 0-4.4414-8.4232-4.7477-16.081z" style="fill:#f60"/>

     <animateTransform id="svg-card-crossword-penguin"
                       attributeName="transform"
                       attributeType="XML"
                       type="translate"
                       dur="5s"
                       values="0,0;-20,0;0,0"
                       repeatCount="indefinite"/>



    </g>
   </g>
  </g>
 </g>

</svg>
