<svg id="svg8" width="447.41" height="480.23" version="1.1" viewBox="0 0 118.38 127.06" xmlns="http://www.w3.org/2000/svg">
 <g id="layer1" transform="translate(-92.9 -140.1)">
  <g id="g83747">
   <ellipse id="ellipse578" transform="matrix(.67776 .73529 .73529 -.67776 0 0)" cx="276.99" cy="7.7758" rx="7.2359" ry="23.316" style="fill:#353942;paint-order:fill markers stroke"/>
   <ellipse id="ellipse580" transform="rotate(20.505)" cx="173.68" cy="168.89" rx="7.2359" ry="23.316" style="fill:#353942;paint-order:fill markers stroke"/>
   <path id="path582" d="m148.48 140.1c-9.3335 0-28.694 6.1381-32.736 24.983-4.9812 23.228-10.941 46.909-8.6142 65.18 1.9722 15.488 12.062 36.897 41.35 36.897 29.288 0 39.378-21.409 41.35-36.897 2.3265-18.271-3.633-41.952-8.6142-65.18-4.0413-18.845-23.402-24.983-32.736-24.983z" style="fill:#353942"/>
   <path id="path584" d="m134.12 156.24c-6.4469 0.0997-12.382 5.1097-14.377 14.415-4.3726 20.39-9.6038 41.179-7.5616 57.217 1.7312 13.595 10.587 32.387 36.296 32.387 25.709 0 34.567-18.792 36.298-32.387 2.0423-16.038-3.189-36.827-7.5616-57.217-3.5474-16.542-19.548-19.514-28.736-5.443-4.0197-6.1559-9.3428-9.0492-14.357-8.9717z" style="fill:#fff"/>
   <path id="path586" d="m117.98 267.07h19.296c0-2.1239-5.2898-7.9334-9.6479-7.8389-4.6857 0.10142-9.6478 4.1989-9.6478 7.8389z" style="fill:#f60"/>
   <path id="path590" d="m178.98 267.07h-19.296c0-2.1239 5.2898-7.9334 9.6479-7.8389 4.6857 0.10142 9.6478 4.1989 9.6478 7.8389z" style="fill:#f60"/>
   <path id="path594" d="m148.48 177.91c-6.2035 0-6.5888 6.1825-6.5888 6.1825l6.5888 4.5481 6.5889-4.5481s-0.38547-6.1825-6.5889-6.1825z" style="fill:#f60"/>
   <g id="g749" transform="matrix(4.2974 0 0 4.2974 -1347 -103.62)">
    <path id="path737" d="m351.21 62.795c0.62007 6.7e-5 1.1226 0.50286 1.1224 1.1229-6e-5 0.61987-0.50254 1.1224-1.1224 1.1224-0.61987-6.7e-5 -1.1224-0.50255-1.1224-1.1224-2.2e-4 -0.62006 0.50234-1.1229 1.1224-1.1229zm0 0.25735c-0.47811-1.63e-4 -0.86574 0.38747-0.86558 0.86558 4.1e-4 0.16554-0.18321-0.5324-0.0935-0.39326 0.15928-0.24739 0.69795-0.59533 0.99218-0.59531 0.29454 3.16e-4 0.65964 0.39021 0.81855 0.6382 0.0898-0.13964-0.97044 0.89672-0.97048 0.7307 1.6e-4 -0.47791 0.59677-1.2458 0.11886-1.2459z" style="fill:#1a1a1a;paint-order:fill markers stroke"/>
    <path id="path739" d="m344.78 62.795c-0.62007 6.7e-5 -1.1226 0.50286-1.1224 1.1229 6e-5 0.61987 0.50254 1.1224 1.1224 1.1224 0.61987-6.7e-5 1.1224-0.50255 1.1224-1.1224 2.2e-4 -0.62006-0.50234-1.1229-1.1224-1.1229zm0.71934 1.6381c0.47811-1.63e-4 0.1464-0.99333 0.14624-0.51521-4.1e-4 0.16554-0.0483 0.3275-0.13798 0.46664-0.15928-0.24739-0.46644-1.48-0.76067-1.48-0.29454 3.16e-4 -0.53561 1.2336-0.69453 1.4816-0.0898-0.13964 1.5492 0.20219 1.5493 0.03617-1.6e-4 -0.47791-0.58024 0.01098-0.10232 0.01085z" style="fill:#1a1a1a;paint-order:fill markers stroke"/>
    <path id="path741" d="m345.09 63.317a0.32246 0.32246 0 0 1-0.3224 0.32246 0.32246 0.32246 0 0 1-0.32253-0.32232 0.32246 0.32246 0 0 1 0.32226-0.3226 0.32246 0.32246 0 0 1 0.32267 0.32218" style="fill:#fff;stroke-width:0"/>
    <path id="path743" d="m345.08 64.433a0.50023 0.50023 0 0 1-0.50012 0.50023 0.50023 0.50023 0 0 1-0.50034-0.50001 0.50023 0.50023 0 0 1 0.49991-0.50044 0.50023 0.50023 0 0 1 0.50055 0.4998" style="fill:#fff;stroke-width:0"/>
    <path id="path745" d="m351.48 63.247a0.32246 0.32246 0 0 1-0.32239 0.32246 0.32246 0.32246 0 0 1-0.32253-0.32232 0.32246 0.32246 0 0 1 0.32226-0.3226 0.32246 0.32246 0 0 1 0.32266 0.32218" style="fill:#fff;stroke-width:0"/>
    <path id="path747" d="m351.47 64.363a0.50023 0.50023 0 0 1-0.50012 0.50023 0.50023 0.50023 0 0 1-0.50034-0.50001 0.50023 0.50023 0 0 1 0.49991-0.50044 0.50023 0.50023 0 0 1 0.50055 0.4998" style="fill:#fff;stroke-width:0"/>
   </g>
  </g>
 </g>
</svg>
