<svg id="svg8" width="43.742" height="50" version="1.1" viewBox="0 0 11.574 13.229" xmlns="http://www.w3.org/2000/svg">
 <g id="layer1" transform="matrix(.72905 0 0 .72905 -86.464 -159.52)">
  <g id="g167" transform="matrix(.61372 0 0 .61372 -57.049 97.141)">
   <path id="ellipse82" transform="matrix(.26458 0 0 .26458 0 138.25)" d="m1130.6 226.7c-8.2088 0-25.237 5.3984-28.791 21.973-2.0631 9.6204-4.3067 19.323-5.9004 28.582a6.364 20.506 20.505 0 0-10.816 16.639 6.364 20.506 20.505 0 0-1.2227 21.438 6.364 20.506 20.505 0 0 10.258-10.426c0.039 0.36264 0.06 0.73578 0.1055 1.0938 1.7345 13.622 10.608 32.451 36.367 32.451s34.633-18.829 36.367-32.451c0.046-0.35801 0.069-0.73107 0.1074-1.0938a20.506 6.364 69.495 0 0 10.258 10.426 20.506 6.364 69.495 0 0-1.2227-21.436 20.506 6.364 69.495 0 0-10.816-16.641c-1.5937-9.2586-3.8392-18.962-5.9023-28.582-3.5543-16.574-20.582-21.973-28.791-21.973z" style="fill:#353942;paint-order:fill markers stroke"/>
   <g id="g156">
    <path id="path60" d="m292.05 227.78h4.4901c0-0.49423-1.2309-1.8461-2.2451-1.8241-1.0904 0.0236-2.2451 0.97708-2.2451 1.8241z" style="fill:#f60"/>
    <path id="path86" d="m306.24 227.78h-4.4901c0-0.49423 1.2309-1.8461 2.2451-1.8241 1.0904 0.0236 2.2451 0.97708 2.2451 1.8241z" style="fill:#f60"/>
   </g>
   <path id="path70" d="m295.8 201.99c-1.5002 0.0232-2.8817 1.1896-3.346 3.3548-1.0175 4.7447-2.2348 9.5818-1.7596 13.314 0.40284 3.1636 2.464 7.5365 8.4465 7.5365s8.0437-4.3728 8.4465-7.5365c0.47524-3.7321-0.74208-8.5692-1.7596-13.314-0.82549-3.8494-4.5489-4.5413-6.6869-1.2671-0.93537-1.4325-2.1741-2.1058-3.3409-2.0877z" style="fill:#fff"/>
   <path id="path58" d="m299.14 207.03c-1.4436 0-1.5332 1.4387-1.5332 1.4387l1.5332 1.0583 1.5332-1.0583s-0.0897-1.4387-1.5332-1.4387z" style="fill:#f60"/>
   <g id="g152" style="fill:#353942">
    <path id="path62" d="m295.93 204.62a1.1225 1.1225 0 0 0-1.1224 1.1229 1.1225 1.1225 0 0 0 1.1224 1.1224 1.1225 1.1225 0 0 0 1.1224-1.1224 1.1225 1.1225 0 0 0-1.1224-1.1229zm0 0.25735a0.86528 0.86528 0 0 1 0.86558 0.86558 0.86528 0.86528 0 0 1-0.13798 0.46664 0.86528 0.86528 0 0 0-0.7276-0.39687 0.86528 0.86528 0 0 0-0.7276 0.39842 0.86528 0.86528 0 0 1-0.13746-0.46819 0.86528 0.86528 0 0 1 0.86506-0.86558z" style="fill:#353942;paint-order:fill markers stroke"/>
    <path id="path88" d="m302.36 204.62a1.1225 1.1225 0 0 1 1.1224 1.1229 1.1225 1.1225 0 0 1-1.1224 1.1224 1.1225 1.1225 0 0 1-1.1224-1.1224 1.1225 1.1225 0 0 1 1.1224-1.1229zm0 0.25735a0.86528 0.86528 0 0 0-0.86558 0.86558 0.86528 0.86528 0 0 0 0.13798 0.46664 0.86528 0.86528 0 0 1 0.7276-0.39687 0.86528 0.86528 0 0 1 0.7276 0.39842 0.86528 0.86528 0 0 0 0.13746-0.46819 0.86528 0.86528 0 0 0-0.86506-0.86558z" style="fill:#353942;paint-order:fill markers stroke"/>
   </g>
  </g>
 </g>
</svg>
